%TF.GenerationSoftware,KiCad,Pcbnew,6.0.9+dfsg-1*%
%TF.CreationDate,2023-01-22T16:10:59-08:00*%
%TF.ProjectId,led_matrix_32x64_kicad,6c65645f-6d61-4747-9269-785f33327836,rev?*%
%TF.SameCoordinates,PX2efe460PY2edf448*%
%TF.FileFunction,Soldermask,Top*%
%TF.FilePolarity,Negative*%
%FSLAX46Y46*%
G04 Gerber Fmt 4.6, Leading zero omitted, Abs format (unit mm)*
G04 Created by KiCad (PCBNEW 6.0.9+dfsg-1) date 2023-01-22 16:10:59*
%MOMM*%
%LPD*%
G01*
G04 APERTURE LIST*
G04 Aperture macros list*
%AMRoundRect*
0 Rectangle with rounded corners*
0 $1 Rounding radius*
0 $2 $3 $4 $5 $6 $7 $8 $9 X,Y pos of 4 corners*
0 Add a 4 corners polygon primitive as box body*
4,1,4,$2,$3,$4,$5,$6,$7,$8,$9,$2,$3,0*
0 Add four circle primitives for the rounded corners*
1,1,$1+$1,$2,$3*
1,1,$1+$1,$4,$5*
1,1,$1+$1,$6,$7*
1,1,$1+$1,$8,$9*
0 Add four rect primitives between the rounded corners*
20,1,$1+$1,$2,$3,$4,$5,0*
20,1,$1+$1,$4,$5,$6,$7,0*
20,1,$1+$1,$6,$7,$8,$9,0*
20,1,$1+$1,$8,$9,$2,$3,0*%
G04 Aperture macros list end*
%ADD10RoundRect,0.250000X0.337500X0.475000X-0.337500X0.475000X-0.337500X-0.475000X0.337500X-0.475000X0*%
%ADD11O,1.800000X1.800000*%
%ADD12O,1.500000X1.500000*%
%ADD13R,3.500000X1.700000*%
%ADD14O,1.700000X1.700000*%
%ADD15R,1.700000X1.700000*%
%ADD16R,1.700000X3.500000*%
%ADD17R,0.510000X0.700000*%
%ADD18RoundRect,0.250000X-0.350000X-0.450000X0.350000X-0.450000X0.350000X0.450000X-0.350000X0.450000X0*%
%ADD19RoundRect,0.500000X0.500000X0.500000X-0.500000X0.500000X-0.500000X-0.500000X0.500000X-0.500000X0*%
%ADD20R,1.600000X1.600000*%
%ADD21C,1.600000*%
G04 APERTURE END LIST*
D10*
%TO.C,C3*%
X66294000Y-55880000D03*
X64219000Y-55880000D03*
%TD*%
D11*
%TO.C,U1*%
X46413000Y-57147000D03*
D12*
X41263000Y-54117000D03*
D11*
X40963000Y-57147000D03*
D12*
X46113000Y-54117000D03*
D13*
X53478000Y-57277000D03*
D14*
X52578000Y-57277000D03*
X52578000Y-54737000D03*
D13*
X53478000Y-54737000D03*
X53478000Y-52197000D03*
D15*
X52578000Y-52197000D03*
D13*
X53478000Y-49657000D03*
D14*
X52578000Y-49657000D03*
D13*
X53478000Y-47117000D03*
D14*
X52578000Y-47117000D03*
X52578000Y-44577000D03*
D13*
X53478000Y-44577000D03*
D14*
X52578000Y-42037000D03*
D13*
X53478000Y-42037000D03*
D15*
X52578000Y-39497000D03*
D13*
X53478000Y-39497000D03*
X53478000Y-36957000D03*
D14*
X52578000Y-36957000D03*
X52578000Y-34417000D03*
D13*
X53478000Y-34417000D03*
D14*
X52578000Y-31877000D03*
D13*
X53478000Y-31877000D03*
D14*
X52578000Y-29337000D03*
D13*
X53478000Y-29337000D03*
X53478000Y-26797000D03*
D15*
X52578000Y-26797000D03*
D14*
X52578000Y-24257000D03*
D13*
X53478000Y-24257000D03*
X53478000Y-21717000D03*
D14*
X52578000Y-21717000D03*
X52578000Y-19177000D03*
D13*
X53478000Y-19177000D03*
D14*
X52578000Y-16637000D03*
D13*
X53478000Y-16637000D03*
D15*
X52578000Y-14097000D03*
D13*
X53478000Y-14097000D03*
D14*
X52578000Y-11557000D03*
D13*
X53478000Y-11557000D03*
D14*
X52578000Y-9017000D03*
D13*
X53478000Y-9017000D03*
D14*
X34798000Y-9017000D03*
D13*
X33898000Y-9017000D03*
X33898000Y-11557000D03*
D14*
X34798000Y-11557000D03*
D15*
X34798000Y-14097000D03*
D13*
X33898000Y-14097000D03*
X33898000Y-16637000D03*
D14*
X34798000Y-16637000D03*
X34798000Y-19177000D03*
D13*
X33898000Y-19177000D03*
D14*
X34798000Y-21717000D03*
D13*
X33898000Y-21717000D03*
X33898000Y-24257000D03*
D14*
X34798000Y-24257000D03*
D13*
X33898000Y-26797000D03*
D15*
X34798000Y-26797000D03*
D14*
X34798000Y-29337000D03*
D13*
X33898000Y-29337000D03*
D14*
X34798000Y-31877000D03*
D13*
X33898000Y-31877000D03*
D14*
X34798000Y-34417000D03*
D13*
X33898000Y-34417000D03*
D14*
X34798000Y-36957000D03*
D13*
X33898000Y-36957000D03*
D15*
X34798000Y-39497000D03*
D13*
X33898000Y-39497000D03*
X33898000Y-42037000D03*
D14*
X34798000Y-42037000D03*
X34798000Y-44577000D03*
D13*
X33898000Y-44577000D03*
X33898000Y-47117000D03*
D14*
X34798000Y-47117000D03*
X34798000Y-49657000D03*
D13*
X33898000Y-49657000D03*
D15*
X34798000Y-52197000D03*
D13*
X33898000Y-52197000D03*
D14*
X34798000Y-54737000D03*
D13*
X33898000Y-54737000D03*
D14*
X34798000Y-57277000D03*
D13*
X33898000Y-57277000D03*
D14*
X46228000Y-9247000D03*
D16*
X46228000Y-8347000D03*
X43688000Y-8347000D03*
D15*
X43688000Y-9247000D03*
D16*
X41148000Y-8347000D03*
D14*
X41148000Y-9247000D03*
%TD*%
D17*
%TO.C,U2*%
X66101000Y-45978500D03*
X65151000Y-45978500D03*
X64201000Y-45978500D03*
X64201000Y-48298500D03*
X66101000Y-48298500D03*
%TD*%
D18*
%TO.C,R1*%
X64167000Y-51583500D03*
X66167000Y-51583500D03*
%TD*%
D19*
%TO.C,SW3*%
X27432000Y-31877000D03*
X27432000Y-39877000D03*
%TD*%
D10*
%TO.C,C2*%
X66167000Y-42545000D03*
X64092000Y-42545000D03*
%TD*%
D15*
%TO.C,J4*%
X63373000Y-18669000D03*
D14*
X65913000Y-18669000D03*
%TD*%
D15*
%TO.C,J3*%
X21590000Y-57516000D03*
D14*
X21590000Y-54976000D03*
X21590000Y-52436000D03*
%TD*%
D15*
%TO.C,J1*%
X4459000Y-21971000D03*
D14*
X4459000Y-24511000D03*
X6999000Y-21971000D03*
X6999000Y-24511000D03*
X9539000Y-21971000D03*
X9539000Y-24511000D03*
X12079000Y-21971000D03*
X12079000Y-24511000D03*
X14619000Y-21971000D03*
X14619000Y-24511000D03*
X17159000Y-21971000D03*
X17159000Y-24511000D03*
X19699000Y-21971000D03*
X19699000Y-24511000D03*
X22239000Y-21971000D03*
X22239000Y-24511000D03*
%TD*%
D20*
%TO.C,C1*%
X65825380Y-36195000D03*
D21*
X63325380Y-36195000D03*
%TD*%
D15*
%TO.C,J2*%
X4064000Y-37221000D03*
D14*
X4064000Y-39761000D03*
X4064000Y-42301000D03*
X4064000Y-44841000D03*
%TD*%
M02*
