<?xml version="1.0" standalone="no"?>
 <!DOCTYPE svg PUBLIC "-//W3C//DTD SVG 1.1//EN" 
 "http://www.w3.org/Graphics/SVG/1.1/DTD/svg11.dtd"> 
<svg
  xmlns:svg="http://www.w3.org/2000/svg"
  xmlns="http://www.w3.org/2000/svg"
  xmlns:xlink="http://www.w3.org/1999/xlink"
  version="1.1"
  width="29.700220cm" height="21.000720cm" viewBox="0 0 297002200 210007200">
<title>SVG Picture created as led_matrix_32x64_kicad-F_Paste.svg date 2023/01/27 10:18:52 </title>
  <desc>Picture generated by PCBNEW </desc>
<g style="fill:#000000; fill-opacity:1.000000;stroke:#000000; stroke-opacity:1.000000;
stroke-linecap:round; stroke-linejoin:round;"
 transform="translate(0 0) scale(1 1)">
</g>
<g style="fill:#000000; fill-opacity:0.0; 
stroke:#000000; stroke-width:0.000000; stroke-opacity:1; 
stroke-linecap:round; stroke-linejoin:round;">
</g>
<g style="fill:#000000; fill-opacity:0.0; 
stroke:#000000; stroke-width:100000.000000; stroke-opacity:1; 
stroke-linecap:round; stroke-linejoin:round;">
<path d="M49276000 49149000
L119380000 49149000
" />
<path d="M119380000 49149000
L119380000 111125000
" />
<path d="M49276000 111125000
L119380000 111125000
" />
<path d="M49276000 49149000
L49276000 111125000
" />
<g >
</g>
<g style="fill:#000000; fill-opacity:0.0; 
stroke:#000000; stroke-width:1.000000; stroke-opacity:1; 
stroke-linecap:round; stroke-linejoin:round;">
</g>
<g style="fill:#000000; fill-opacity:1.0; 
stroke:#000000; stroke-width:1.000000; stroke-opacity:1; 
stroke-linecap:round; stroke-linejoin:round;">
<path style="fill:#000000; fill-opacity:1.0; 
stroke:#000000; stroke-width:1.000000; stroke-opacity:1; 
stroke-linecap:round; stroke-linejoin:round;fill-rule:evenodd;"
d="M 116157500.000000,105504000.000000
116138470.000000,105599671.000000
116084277.000000,105680777.000000
116003171.000000,105734970.000000
115907500.000000,105754000.000000
115232500.000000,105754000.000000
115136829.000000,105734970.000000
115055723.000000,105680777.000000
115001530.000000,105599671.000000
114982500.000000,105504000.000000
114982500.000000,104554000.000000
115001530.000000,104458329.000000
115055723.000000,104377223.000000
115136829.000000,104323030.000000
115232500.000000,104304000.000000
115907500.000000,104304000.000000
116003171.000000,104323030.000000
116084277.000000,104377223.000000
116138470.000000,104458329.000000
116157500.000000,104554000.000000
Z" /> 
<path style="fill:#000000; fill-opacity:1.0; 
stroke:#000000; stroke-width:1.000000; stroke-opacity:1; 
stroke-linecap:round; stroke-linejoin:round;fill-rule:evenodd;"
d="M 114082500.000000,105504000.000000
114063470.000000,105599671.000000
114009277.000000,105680777.000000
113928171.000000,105734970.000000
113832500.000000,105754000.000000
113157500.000000,105754000.000000
113061829.000000,105734970.000000
112980723.000000,105680777.000000
112926530.000000,105599671.000000
112907500.000000,105504000.000000
112907500.000000,104554000.000000
112926530.000000,104458329.000000
112980723.000000,104377223.000000
113061829.000000,104323030.000000
113157500.000000,104304000.000000
113832500.000000,104304000.000000
113928171.000000,104323030.000000
114009277.000000,104377223.000000
114063470.000000,104458329.000000
114082500.000000,104554000.000000
Z" /> 
</g>
<g >
</g>
<g >
</g>
<g style="fill:#000000; fill-opacity:1.0; 
stroke:#000000; stroke-width:1.000000; stroke-opacity:1; 
stroke-linecap:round; stroke-linejoin:round;">
<path style="fill:#000000; fill-opacity:1.0; 
stroke:#000000; stroke-width:1.000000; stroke-opacity:1; 
stroke-linecap:round; stroke-linejoin:round;fill-rule:evenodd;"
d="M 115122000.000000,94777500.000000
115632000.000000,94777500.000000
115632000.000000,95477500.000000
115122000.000000,95477500.000000
Z" /> 
<path style="fill:#000000; fill-opacity:1.0; 
stroke:#000000; stroke-width:1.000000; stroke-opacity:1; 
stroke-linecap:round; stroke-linejoin:round;fill-rule:evenodd;"
d="M 114172000.000000,94777500.000000
114682000.000000,94777500.000000
114682000.000000,95477500.000000
114172000.000000,95477500.000000
Z" /> 
<path style="fill:#000000; fill-opacity:1.0; 
stroke:#000000; stroke-width:1.000000; stroke-opacity:1; 
stroke-linecap:round; stroke-linejoin:round;fill-rule:evenodd;"
d="M 113222000.000000,94777500.000000
113732000.000000,94777500.000000
113732000.000000,95477500.000000
113222000.000000,95477500.000000
Z" /> 
<path style="fill:#000000; fill-opacity:1.0; 
stroke:#000000; stroke-width:1.000000; stroke-opacity:1; 
stroke-linecap:round; stroke-linejoin:round;fill-rule:evenodd;"
d="M 113222000.000000,97097500.000000
113732000.000000,97097500.000000
113732000.000000,97797500.000000
113222000.000000,97797500.000000
Z" /> 
<path style="fill:#000000; fill-opacity:1.0; 
stroke:#000000; stroke-width:1.000000; stroke-opacity:1; 
stroke-linecap:round; stroke-linejoin:round;fill-rule:evenodd;"
d="M 115122000.000000,97097500.000000
115632000.000000,97097500.000000
115632000.000000,97797500.000000
115122000.000000,97797500.000000
Z" /> 
</g>
<g >
</g>
<g style="fill:#000000; fill-opacity:1.0; 
stroke:#000000; stroke-width:1.000000; stroke-opacity:1; 
stroke-linecap:round; stroke-linejoin:round;">
<path style="fill:#000000; fill-opacity:1.0; 
stroke:#000000; stroke-width:1.000000; stroke-opacity:1; 
stroke-linecap:round; stroke-linejoin:round;fill-rule:evenodd;"
d="M 112843000.000000,100282500.000000
112862030.000000,100186829.000000
112916223.000000,100105723.000000
112997329.000000,100051530.000000
113093000.000000,100032500.000000
113793000.000000,100032500.000000
113888671.000000,100051530.000000
113969777.000000,100105723.000000
114023970.000000,100186829.000000
114043000.000000,100282500.000000
114043000.000000,101182500.000000
114023970.000000,101278171.000000
113969777.000000,101359277.000000
113888671.000000,101413470.000000
113793000.000000,101432500.000000
113093000.000000,101432500.000000
112997329.000000,101413470.000000
112916223.000000,101359277.000000
112862030.000000,101278171.000000
112843000.000000,101182500.000000
Z" /> 
<path style="fill:#000000; fill-opacity:1.0; 
stroke:#000000; stroke-width:1.000000; stroke-opacity:1; 
stroke-linecap:round; stroke-linejoin:round;fill-rule:evenodd;"
d="M 114843000.000000,100282500.000000
114862030.000000,100186829.000000
114916223.000000,100105723.000000
114997329.000000,100051530.000000
115093000.000000,100032500.000000
115793000.000000,100032500.000000
115888671.000000,100051530.000000
115969777.000000,100105723.000000
116023970.000000,100186829.000000
116043000.000000,100282500.000000
116043000.000000,101182500.000000
116023970.000000,101278171.000000
115969777.000000,101359277.000000
115888671.000000,101413470.000000
115793000.000000,101432500.000000
115093000.000000,101432500.000000
114997329.000000,101413470.000000
114916223.000000,101359277.000000
114862030.000000,101278171.000000
114843000.000000,101182500.000000
Z" /> 
</g>
<g >
</g>
<g style="fill:#000000; fill-opacity:1.0; 
stroke:#000000; stroke-width:1.000000; stroke-opacity:1; 
stroke-linecap:round; stroke-linejoin:round;">
<path style="fill:#000000; fill-opacity:1.0; 
stroke:#000000; stroke-width:1.000000; stroke-opacity:1; 
stroke-linecap:round; stroke-linejoin:round;fill-rule:evenodd;"
d="M 77708000.000000,81526000.000000
77696336.000000,81633368.000000
77646573.000000,81766112.000000
77561553.000000,81879553.000000
77448112.000000,81964573.000000
77315368.000000,82014336.000000
77208000.000000,82026000.000000
76208000.000000,82026000.000000
76100632.000000,82014336.000000
75967888.000000,81964573.000000
75854447.000000,81879553.000000
75769427.000000,81766112.000000
75719664.000000,81633368.000000
75708000.000000,81526000.000000
75708000.000000,80526000.000000
75719664.000000,80418632.000000
75769427.000000,80285888.000000
75854447.000000,80172447.000000
75967888.000000,80087427.000000
76100632.000000,80037664.000000
76208000.000000,80026000.000000
77208000.000000,80026000.000000
77315368.000000,80037664.000000
77448112.000000,80087427.000000
77561553.000000,80172447.000000
77646573.000000,80285888.000000
77696336.000000,80418632.000000
77708000.000000,80526000.000000
Z" /> 
<path style="fill:#000000; fill-opacity:1.0; 
stroke:#000000; stroke-width:1.000000; stroke-opacity:1; 
stroke-linecap:round; stroke-linejoin:round;fill-rule:evenodd;"
d="M 77708000.000000,89526000.000000
77696336.000000,89633368.000000
77646573.000000,89766112.000000
77561553.000000,89879553.000000
77448112.000000,89964573.000000
77315368.000000,90014336.000000
77208000.000000,90026000.000000
76208000.000000,90026000.000000
76100632.000000,90014336.000000
75967888.000000,89964573.000000
75854447.000000,89879553.000000
75769427.000000,89766112.000000
75719664.000000,89633368.000000
75708000.000000,89526000.000000
75708000.000000,88526000.000000
75719664.000000,88418632.000000
75769427.000000,88285888.000000
75854447.000000,88172447.000000
75967888.000000,88087427.000000
76100632.000000,88037664.000000
76208000.000000,88026000.000000
77208000.000000,88026000.000000
77315368.000000,88037664.000000
77448112.000000,88087427.000000
77561553.000000,88172447.000000
77646573.000000,88285888.000000
77696336.000000,88418632.000000
77708000.000000,88526000.000000
Z" /> 
</g>
<g >
</g>
<g style="fill:#000000; fill-opacity:1.0; 
stroke:#000000; stroke-width:1.000000; stroke-opacity:1; 
stroke-linecap:round; stroke-linejoin:round;">
<path style="fill:#000000; fill-opacity:1.0; 
stroke:#000000; stroke-width:1.000000; stroke-opacity:1; 
stroke-linecap:round; stroke-linejoin:round;fill-rule:evenodd;"
d="M 116030500.000000,92169000.000000
116011470.000000,92264671.000000
115957277.000000,92345777.000000
115876171.000000,92399970.000000
115780500.000000,92419000.000000
115105500.000000,92419000.000000
115009829.000000,92399970.000000
114928723.000000,92345777.000000
114874530.000000,92264671.000000
114855500.000000,92169000.000000
114855500.000000,91219000.000000
114874530.000000,91123329.000000
114928723.000000,91042223.000000
115009829.000000,90988030.000000
115105500.000000,90969000.000000
115780500.000000,90969000.000000
115876171.000000,90988030.000000
115957277.000000,91042223.000000
116011470.000000,91123329.000000
116030500.000000,91219000.000000
Z" /> 
<path style="fill:#000000; fill-opacity:1.0; 
stroke:#000000; stroke-width:1.000000; stroke-opacity:1; 
stroke-linecap:round; stroke-linejoin:round;fill-rule:evenodd;"
d="M 113955500.000000,92169000.000000
113936470.000000,92264671.000000
113882277.000000,92345777.000000
113801171.000000,92399970.000000
113705500.000000,92419000.000000
113030500.000000,92419000.000000
112934829.000000,92399970.000000
112853723.000000,92345777.000000
112799530.000000,92264671.000000
112780500.000000,92169000.000000
112780500.000000,91219000.000000
112799530.000000,91123329.000000
112853723.000000,91042223.000000
112934829.000000,90988030.000000
113030500.000000,90969000.000000
113705500.000000,90969000.000000
113801171.000000,90988030.000000
113882277.000000,91042223.000000
113936470.000000,91123329.000000
113955500.000000,91219000.000000
Z" /> 
</g>
<g >
</g>
<g >
</g>
<g >
</g>
<g >
</g>
<g >
</g>
<g >
</g>
<g >
</g>
<g >
</g>
</g> 
</svg>
