<?xml version="1.0" encoding="UTF-8" standalone="no"?>
<svg
   version="1.1"
   width="29.700220cm"
   height="21.000720cm"
   viewBox="0 0 297002200 210007200"
   id="svg2005"
   sodipodi:docname="led_matrix_32x64_kicad-F_Mask.svg"
   inkscape:version="1.2.1 (9c6d41e410, 2022-07-14)"
   xmlns:inkscape="http://www.inkscape.org/namespaces/inkscape"
   xmlns:sodipodi="http://sodipodi.sourceforge.net/DTD/sodipodi-0.dtd"
   xmlns="http://www.w3.org/2000/svg"
   xmlns:svg="http://www.w3.org/2000/svg">
  <defs
     id="defs2009" />
  <sodipodi:namedview
     id="namedview2007"
     pagecolor="#ffffff"
     bordercolor="#666666"
     borderopacity="1.0"
     inkscape:showpageshadow="2"
     inkscape:pageopacity="0.0"
     inkscape:pagecheckerboard="0"
     inkscape:deskcolor="#d1d1d1"
     inkscape:document-units="cm"
     showgrid="false"
     inkscape:zoom="2.2486095"
     inkscape:cx="324.86743"
     inkscape:cy="309.74698"
     inkscape:window-width="1920"
     inkscape:window-height="995"
     inkscape:window-x="0"
     inkscape:window-y="0"
     inkscape:window-maximized="1"
     inkscape:current-layer="svg2005" />
  <title
     id="title1681">SVG Picture created as led_matrix_32x64_kicad-F_Mask.svg date 2023/01/22 16:11:07 </title>
  <desc
     id="desc1683">Picture generated by PCBNEW </desc>
  <rect
     style="fill:none;stroke:#000000;stroke-width:100353;stroke-dasharray:none"
     id="rect2167"
     width="91899648"
     height="69899648"
     x="40050176"
     y="47050180" />
  <g
     style="fill:#000000; fill-opacity:1.000000;stroke:#000000; stroke-opacity:1.000000; stroke-linecap:round; stroke-linejoin:round;"
     transform="translate(0 0) scale(1 1)"
     id="g1685" />
  <g
     style="fill:#000000; fill-opacity:0.0;  stroke:#000000; stroke-width:0.000000; stroke-opacity:1;  stroke-linecap:round; stroke-linejoin:round;"
     id="g2003">
    <g
       id="g1687" />
    <g
       style="fill:#000000; fill-opacity:0.0;  stroke:#000000; stroke-width:1.000000; stroke-opacity:1;  stroke-linecap:round; stroke-linejoin:round;"
       id="g1689" />
    <g
       style="fill:#000000; fill-opacity:1.0;  stroke:#000000; stroke-width:1.000000; stroke-opacity:1;  stroke-linecap:round; stroke-linejoin:round;"
       id="g1695">
      <path
         style="fill:#000000; fill-opacity:1.0;  stroke:#000000; stroke-width:1.000000; stroke-opacity:1;  stroke-linecap:round; stroke-linejoin:round;fill-rule:evenodd;"
         d="M 116157500.000000,105504000.000000 116138470.000000,105599671.000000 116084277.000000,105680777.000000 116003171.000000,105734970.000000 115907500.000000,105754000.000000 115232500.000000,105754000.000000 115136829.000000,105734970.000000 115055723.000000,105680777.000000 115001530.000000,105599671.000000 114982500.000000,105504000.000000 114982500.000000,104554000.000000 115001530.000000,104458329.000000 115055723.000000,104377223.000000 115136829.000000,104323030.000000 115232500.000000,104304000.000000 115907500.000000,104304000.000000 116003171.000000,104323030.000000 116084277.000000,104377223.000000 116138470.000000,104458329.000000 116157500.000000,104554000.000000 Z"
         id="path1691" />
      <path
         style="fill:#000000; fill-opacity:1.0;  stroke:#000000; stroke-width:1.000000; stroke-opacity:1;  stroke-linecap:round; stroke-linejoin:round;fill-rule:evenodd;"
         d="M 114082500.000000,105504000.000000 114063470.000000,105599671.000000 114009277.000000,105680777.000000 113928171.000000,105734970.000000 113832500.000000,105754000.000000 113157500.000000,105754000.000000 113061829.000000,105734970.000000 112980723.000000,105680777.000000 112926530.000000,105599671.000000 112907500.000000,105504000.000000 112907500.000000,104554000.000000 112926530.000000,104458329.000000 112980723.000000,104377223.000000 113061829.000000,104323030.000000 113157500.000000,104304000.000000 113832500.000000,104304000.000000 113928171.000000,104323030.000000 114009277.000000,104377223.000000 114063470.000000,104458329.000000 114082500.000000,104554000.000000 Z"
         id="path1693" />
    </g>
    <g
       id="g1697" />
    <g
       style="fill:#000000; fill-opacity:1.0;  stroke:#000000; stroke-width:1.000000; stroke-opacity:1;  stroke-linecap:round; stroke-linejoin:round;"
       id="g1879">
      <circle
         cx="95689000.000000"
         cy="106296000.000000"
         r="900000.000000"
         id="circle1699" />
      <circle
         cx="90539000.000000"
         cy="103266000.000000"
         r="750000.000000"
         id="circle1701" />
      <circle
         cx="90239000.000000"
         cy="106296000.000000"
         r="900000.000000"
         id="circle1703" />
      <circle
         cx="95389000.000000"
         cy="103266000.000000"
         r="750000.000000"
         id="circle1705" />
      <path
         style="fill:#000000; fill-opacity:1.0;  stroke:#000000; stroke-width:1.000000; stroke-opacity:1;  stroke-linecap:round; stroke-linejoin:round;fill-rule:evenodd;"
         d="M 104504000.000000,105576000.000000 104504000.000000,107276000.000000 101004000.000000,107276000.000000 101004000.000000,105576000.000000 Z"
         id="path1707" />
      <circle
         cx="101854000.000000"
         cy="106426000.000000"
         r="850000.000000"
         id="circle1709" />
      <circle
         cx="101854000.000000"
         cy="103886000.000000"
         r="850000.000000"
         id="circle1711" />
      <path
         style="fill:#000000; fill-opacity:1.0;  stroke:#000000; stroke-width:1.000000; stroke-opacity:1;  stroke-linecap:round; stroke-linejoin:round;fill-rule:evenodd;"
         d="M 104504000.000000,103036000.000000 104504000.000000,104736000.000000 101004000.000000,104736000.000000 101004000.000000,103036000.000000 Z"
         id="path1713" />
      <path
         style="fill:#000000; fill-opacity:1.0;  stroke:#000000; stroke-width:1.000000; stroke-opacity:1;  stroke-linecap:round; stroke-linejoin:round;fill-rule:evenodd;"
         d="M 104504000.000000,100496000.000000 104504000.000000,102196000.000000 101004000.000000,102196000.000000 101004000.000000,100496000.000000 Z"
         id="path1715" />
      <path
         style="fill:#000000; fill-opacity:1.0;  stroke:#000000; stroke-width:1.000000; stroke-opacity:1;  stroke-linecap:round; stroke-linejoin:round;fill-rule:evenodd;"
         d="M 102704000.000000,100496000.000000 102704000.000000,102196000.000000 101004000.000000,102196000.000000 101004000.000000,100496000.000000 Z"
         id="path1717" />
      <path
         style="fill:#000000; fill-opacity:1.0;  stroke:#000000; stroke-width:1.000000; stroke-opacity:1;  stroke-linecap:round; stroke-linejoin:round;fill-rule:evenodd;"
         d="M 104504000.000000,97956000.000000 104504000.000000,99656000.000000 101004000.000000,99656000.000000 101004000.000000,97956000.000000 Z"
         id="path1719" />
      <circle
         cx="101854000.000000"
         cy="98806000.000000"
         r="850000.000000"
         id="circle1721" />
      <path
         style="fill:#000000; fill-opacity:1.0;  stroke:#000000; stroke-width:1.000000; stroke-opacity:1;  stroke-linecap:round; stroke-linejoin:round;fill-rule:evenodd;"
         d="M 104504000.000000,95416000.000000 104504000.000000,97116000.000000 101004000.000000,97116000.000000 101004000.000000,95416000.000000 Z"
         id="path1723" />
      <circle
         cx="101854000.000000"
         cy="96266000.000000"
         r="850000.000000"
         id="circle1725" />
      <circle
         cx="101854000.000000"
         cy="93726000.000000"
         r="850000.000000"
         id="circle1727" />
      <path
         style="fill:#000000; fill-opacity:1.0;  stroke:#000000; stroke-width:1.000000; stroke-opacity:1;  stroke-linecap:round; stroke-linejoin:round;fill-rule:evenodd;"
         d="M 104504000.000000,92876000.000000 104504000.000000,94576000.000000 101004000.000000,94576000.000000 101004000.000000,92876000.000000 Z"
         id="path1729" />
      <circle
         cx="101854000.000000"
         cy="91186000.000000"
         r="850000.000000"
         id="circle1731" />
      <path
         style="fill:#000000; fill-opacity:1.0;  stroke:#000000; stroke-width:1.000000; stroke-opacity:1;  stroke-linecap:round; stroke-linejoin:round;fill-rule:evenodd;"
         d="M 104504000.000000,90336000.000000 104504000.000000,92036000.000000 101004000.000000,92036000.000000 101004000.000000,90336000.000000 Z"
         id="path1733" />
      <path
         style="fill:#000000; fill-opacity:1.0;  stroke:#000000; stroke-width:1.000000; stroke-opacity:1;  stroke-linecap:round; stroke-linejoin:round;fill-rule:evenodd;"
         d="M 102704000.000000,87796000.000000 102704000.000000,89496000.000000 101004000.000000,89496000.000000 101004000.000000,87796000.000000 Z"
         id="path1735" />
      <path
         style="fill:#000000; fill-opacity:1.0;  stroke:#000000; stroke-width:1.000000; stroke-opacity:1;  stroke-linecap:round; stroke-linejoin:round;fill-rule:evenodd;"
         d="M 104504000.000000,87796000.000000 104504000.000000,89496000.000000 101004000.000000,89496000.000000 101004000.000000,87796000.000000 Z"
         id="path1737" />
      <path
         style="fill:#000000; fill-opacity:1.0;  stroke:#000000; stroke-width:1.000000; stroke-opacity:1;  stroke-linecap:round; stroke-linejoin:round;fill-rule:evenodd;"
         d="M 104504000.000000,85256000.000000 104504000.000000,86956000.000000 101004000.000000,86956000.000000 101004000.000000,85256000.000000 Z"
         id="path1739" />
      <circle
         cx="101854000.000000"
         cy="86106000.000000"
         r="850000.000000"
         id="circle1741" />
      <circle
         cx="101854000.000000"
         cy="83566000.000000"
         r="850000.000000"
         id="circle1743" />
      <path
         style="fill:#000000; fill-opacity:1.0;  stroke:#000000; stroke-width:1.000000; stroke-opacity:1;  stroke-linecap:round; stroke-linejoin:round;fill-rule:evenodd;"
         d="M 104504000.000000,82716000.000000 104504000.000000,84416000.000000 101004000.000000,84416000.000000 101004000.000000,82716000.000000 Z"
         id="path1745" />
      <circle
         cx="101854000.000000"
         cy="81026000.000000"
         r="850000.000000"
         id="circle1747" />
      <path
         style="fill:#000000; fill-opacity:1.0;  stroke:#000000; stroke-width:1.000000; stroke-opacity:1;  stroke-linecap:round; stroke-linejoin:round;fill-rule:evenodd;"
         d="M 104504000.000000,80176000.000000 104504000.000000,81876000.000000 101004000.000000,81876000.000000 101004000.000000,80176000.000000 Z"
         id="path1749" />
      <circle
         cx="101854000.000000"
         cy="78486000.000000"
         r="850000.000000"
         id="circle1751" />
      <path
         style="fill:#000000; fill-opacity:1.0;  stroke:#000000; stroke-width:1.000000; stroke-opacity:1;  stroke-linecap:round; stroke-linejoin:round;fill-rule:evenodd;"
         d="M 104504000.000000,77636000.000000 104504000.000000,79336000.000000 101004000.000000,79336000.000000 101004000.000000,77636000.000000 Z"
         id="path1753" />
      <path
         style="fill:#000000; fill-opacity:1.0;  stroke:#000000; stroke-width:1.000000; stroke-opacity:1;  stroke-linecap:round; stroke-linejoin:round;fill-rule:evenodd;"
         d="M 104504000.000000,75096000.000000 104504000.000000,76796000.000000 101004000.000000,76796000.000000 101004000.000000,75096000.000000 Z"
         id="path1755" />
      <path
         style="fill:#000000; fill-opacity:1.0;  stroke:#000000; stroke-width:1.000000; stroke-opacity:1;  stroke-linecap:round; stroke-linejoin:round;fill-rule:evenodd;"
         d="M 102704000.000000,75096000.000000 102704000.000000,76796000.000000 101004000.000000,76796000.000000 101004000.000000,75096000.000000 Z"
         id="path1757" />
      <circle
         cx="101854000.000000"
         cy="73406000.000000"
         r="850000.000000"
         id="circle1759" />
      <path
         style="fill:#000000; fill-opacity:1.0;  stroke:#000000; stroke-width:1.000000; stroke-opacity:1;  stroke-linecap:round; stroke-linejoin:round;fill-rule:evenodd;"
         d="M 104504000.000000,72556000.000000 104504000.000000,74256000.000000 101004000.000000,74256000.000000 101004000.000000,72556000.000000 Z"
         id="path1761" />
      <path
         style="fill:#000000; fill-opacity:1.0;  stroke:#000000; stroke-width:1.000000; stroke-opacity:1;  stroke-linecap:round; stroke-linejoin:round;fill-rule:evenodd;"
         d="M 104504000.000000,70016000.000000 104504000.000000,71716000.000000 101004000.000000,71716000.000000 101004000.000000,70016000.000000 Z"
         id="path1763" />
      <circle
         cx="101854000.000000"
         cy="70866000.000000"
         r="850000.000000"
         id="circle1765" />
      <circle
         cx="101854000.000000"
         cy="68326000.000000"
         r="850000.000000"
         id="circle1767" />
      <path
         style="fill:#000000; fill-opacity:1.0;  stroke:#000000; stroke-width:1.000000; stroke-opacity:1;  stroke-linecap:round; stroke-linejoin:round;fill-rule:evenodd;"
         d="M 104504000.000000,67476000.000000 104504000.000000,69176000.000000 101004000.000000,69176000.000000 101004000.000000,67476000.000000 Z"
         id="path1769" />
      <circle
         cx="101854000.000000"
         cy="65786000.000000"
         r="850000.000000"
         id="circle1771" />
      <path
         style="fill:#000000; fill-opacity:1.0;  stroke:#000000; stroke-width:1.000000; stroke-opacity:1;  stroke-linecap:round; stroke-linejoin:round;fill-rule:evenodd;"
         d="M 104504000.000000,64936000.000000 104504000.000000,66636000.000000 101004000.000000,66636000.000000 101004000.000000,64936000.000000 Z"
         id="path1773" />
      <path
         style="fill:#000000; fill-opacity:1.0;  stroke:#000000; stroke-width:1.000000; stroke-opacity:1;  stroke-linecap:round; stroke-linejoin:round;fill-rule:evenodd;"
         d="M 102704000.000000,62396000.000000 102704000.000000,64096000.000000 101004000.000000,64096000.000000 101004000.000000,62396000.000000 Z"
         id="path1775" />
      <path
         style="fill:#000000; fill-opacity:1.0;  stroke:#000000; stroke-width:1.000000; stroke-opacity:1;  stroke-linecap:round; stroke-linejoin:round;fill-rule:evenodd;"
         d="M 104504000.000000,62396000.000000 104504000.000000,64096000.000000 101004000.000000,64096000.000000 101004000.000000,62396000.000000 Z"
         id="path1777" />
      <circle
         cx="101854000.000000"
         cy="60706000.000000"
         r="850000.000000"
         id="circle1779" />
      <path
         style="fill:#000000; fill-opacity:1.0;  stroke:#000000; stroke-width:1.000000; stroke-opacity:1;  stroke-linecap:round; stroke-linejoin:round;fill-rule:evenodd;"
         d="M 104504000.000000,59856000.000000 104504000.000000,61556000.000000 101004000.000000,61556000.000000 101004000.000000,59856000.000000 Z"
         id="path1781" />
      <circle
         cx="101854000.000000"
         cy="58166000.000000"
         r="850000.000000"
         id="circle1783" />
      <path
         style="fill:#000000; fill-opacity:1.0;  stroke:#000000; stroke-width:1.000000; stroke-opacity:1;  stroke-linecap:round; stroke-linejoin:round;fill-rule:evenodd;"
         d="M 104504000.000000,57316000.000000 104504000.000000,59016000.000000 101004000.000000,59016000.000000 101004000.000000,57316000.000000 Z"
         id="path1785" />
      <circle
         cx="84074000.000000"
         cy="58166000.000000"
         r="850000.000000"
         id="circle1787" />
      <path
         style="fill:#000000; fill-opacity:1.0;  stroke:#000000; stroke-width:1.000000; stroke-opacity:1;  stroke-linecap:round; stroke-linejoin:round;fill-rule:evenodd;"
         d="M 84924000.000000,57316000.000000 84924000.000000,59016000.000000 81424000.000000,59016000.000000 81424000.000000,57316000.000000 Z"
         id="path1789" />
      <path
         style="fill:#000000; fill-opacity:1.0;  stroke:#000000; stroke-width:1.000000; stroke-opacity:1;  stroke-linecap:round; stroke-linejoin:round;fill-rule:evenodd;"
         d="M 84924000.000000,59856000.000000 84924000.000000,61556000.000000 81424000.000000,61556000.000000 81424000.000000,59856000.000000 Z"
         id="path1791" />
      <circle
         cx="84074000.000000"
         cy="60706000.000000"
         r="850000.000000"
         id="circle1793" />
      <path
         style="fill:#000000; fill-opacity:1.0;  stroke:#000000; stroke-width:1.000000; stroke-opacity:1;  stroke-linecap:round; stroke-linejoin:round;fill-rule:evenodd;"
         d="M 84924000.000000,62396000.000000 84924000.000000,64096000.000000 83224000.000000,64096000.000000 83224000.000000,62396000.000000 Z"
         id="path1795" />
      <path
         style="fill:#000000; fill-opacity:1.0;  stroke:#000000; stroke-width:1.000000; stroke-opacity:1;  stroke-linecap:round; stroke-linejoin:round;fill-rule:evenodd;"
         d="M 84924000.000000,62396000.000000 84924000.000000,64096000.000000 81424000.000000,64096000.000000 81424000.000000,62396000.000000 Z"
         id="path1797" />
      <path
         style="fill:#000000; fill-opacity:1.0;  stroke:#000000; stroke-width:1.000000; stroke-opacity:1;  stroke-linecap:round; stroke-linejoin:round;fill-rule:evenodd;"
         d="M 84924000.000000,64936000.000000 84924000.000000,66636000.000000 81424000.000000,66636000.000000 81424000.000000,64936000.000000 Z"
         id="path1799" />
      <circle
         cx="84074000.000000"
         cy="65786000.000000"
         r="850000.000000"
         id="circle1801" />
      <circle
         cx="84074000.000000"
         cy="68326000.000000"
         r="850000.000000"
         id="circle1803" />
      <path
         style="fill:#000000; fill-opacity:1.0;  stroke:#000000; stroke-width:1.000000; stroke-opacity:1;  stroke-linecap:round; stroke-linejoin:round;fill-rule:evenodd;"
         d="M 84924000.000000,67476000.000000 84924000.000000,69176000.000000 81424000.000000,69176000.000000 81424000.000000,67476000.000000 Z"
         id="path1805" />
      <circle
         cx="84074000.000000"
         cy="70866000.000000"
         r="850000.000000"
         id="circle1807" />
      <path
         style="fill:#000000; fill-opacity:1.0;  stroke:#000000; stroke-width:1.000000; stroke-opacity:1;  stroke-linecap:round; stroke-linejoin:round;fill-rule:evenodd;"
         d="M 84924000.000000,70016000.000000 84924000.000000,71716000.000000 81424000.000000,71716000.000000 81424000.000000,70016000.000000 Z"
         id="path1809" />
      <path
         style="fill:#000000; fill-opacity:1.0;  stroke:#000000; stroke-width:1.000000; stroke-opacity:1;  stroke-linecap:round; stroke-linejoin:round;fill-rule:evenodd;"
         d="M 84924000.000000,72556000.000000 84924000.000000,74256000.000000 81424000.000000,74256000.000000 81424000.000000,72556000.000000 Z"
         id="path1811" />
      <circle
         cx="84074000.000000"
         cy="73406000.000000"
         r="850000.000000"
         id="circle1813" />
      <path
         style="fill:#000000; fill-opacity:1.0;  stroke:#000000; stroke-width:1.000000; stroke-opacity:1;  stroke-linecap:round; stroke-linejoin:round;fill-rule:evenodd;"
         d="M 84924000.000000,75096000.000000 84924000.000000,76796000.000000 81424000.000000,76796000.000000 81424000.000000,75096000.000000 Z"
         id="path1815" />
      <path
         style="fill:#000000; fill-opacity:1.0;  stroke:#000000; stroke-width:1.000000; stroke-opacity:1;  stroke-linecap:round; stroke-linejoin:round;fill-rule:evenodd;"
         d="M 84924000.000000,75096000.000000 84924000.000000,76796000.000000 83224000.000000,76796000.000000 83224000.000000,75096000.000000 Z"
         id="path1817" />
      <circle
         cx="84074000.000000"
         cy="78486000.000000"
         r="850000.000000"
         id="circle1819" />
      <path
         style="fill:#000000; fill-opacity:1.0;  stroke:#000000; stroke-width:1.000000; stroke-opacity:1;  stroke-linecap:round; stroke-linejoin:round;fill-rule:evenodd;"
         d="M 84924000.000000,77636000.000000 84924000.000000,79336000.000000 81424000.000000,79336000.000000 81424000.000000,77636000.000000 Z"
         id="path1821" />
      <circle
         cx="84074000.000000"
         cy="81026000.000000"
         r="850000.000000"
         id="circle1823" />
      <path
         style="fill:#000000; fill-opacity:1.0;  stroke:#000000; stroke-width:1.000000; stroke-opacity:1;  stroke-linecap:round; stroke-linejoin:round;fill-rule:evenodd;"
         d="M 84924000.000000,80176000.000000 84924000.000000,81876000.000000 81424000.000000,81876000.000000 81424000.000000,80176000.000000 Z"
         id="path1825" />
      <circle
         cx="84074000.000000"
         cy="83566000.000000"
         r="850000.000000"
         id="circle1827" />
      <path
         style="fill:#000000; fill-opacity:1.0;  stroke:#000000; stroke-width:1.000000; stroke-opacity:1;  stroke-linecap:round; stroke-linejoin:round;fill-rule:evenodd;"
         d="M 84924000.000000,82716000.000000 84924000.000000,84416000.000000 81424000.000000,84416000.000000 81424000.000000,82716000.000000 Z"
         id="path1829" />
      <circle
         cx="84074000.000000"
         cy="86106000.000000"
         r="850000.000000"
         id="circle1831" />
      <path
         style="fill:#000000; fill-opacity:1.0;  stroke:#000000; stroke-width:1.000000; stroke-opacity:1;  stroke-linecap:round; stroke-linejoin:round;fill-rule:evenodd;"
         d="M 84924000.000000,85256000.000000 84924000.000000,86956000.000000 81424000.000000,86956000.000000 81424000.000000,85256000.000000 Z"
         id="path1833" />
      <path
         style="fill:#000000; fill-opacity:1.0;  stroke:#000000; stroke-width:1.000000; stroke-opacity:1;  stroke-linecap:round; stroke-linejoin:round;fill-rule:evenodd;"
         d="M 84924000.000000,87796000.000000 84924000.000000,89496000.000000 83224000.000000,89496000.000000 83224000.000000,87796000.000000 Z"
         id="path1835" />
      <path
         style="fill:#000000; fill-opacity:1.0;  stroke:#000000; stroke-width:1.000000; stroke-opacity:1;  stroke-linecap:round; stroke-linejoin:round;fill-rule:evenodd;"
         d="M 84924000.000000,87796000.000000 84924000.000000,89496000.000000 81424000.000000,89496000.000000 81424000.000000,87796000.000000 Z"
         id="path1837" />
      <path
         style="fill:#000000; fill-opacity:1.0;  stroke:#000000; stroke-width:1.000000; stroke-opacity:1;  stroke-linecap:round; stroke-linejoin:round;fill-rule:evenodd;"
         d="M 84924000.000000,90336000.000000 84924000.000000,92036000.000000 81424000.000000,92036000.000000 81424000.000000,90336000.000000 Z"
         id="path1839" />
      <circle
         cx="84074000.000000"
         cy="91186000.000000"
         r="850000.000000"
         id="circle1841" />
      <circle
         cx="84074000.000000"
         cy="93726000.000000"
         r="850000.000000"
         id="circle1843" />
      <path
         style="fill:#000000; fill-opacity:1.0;  stroke:#000000; stroke-width:1.000000; stroke-opacity:1;  stroke-linecap:round; stroke-linejoin:round;fill-rule:evenodd;"
         d="M 84924000.000000,92876000.000000 84924000.000000,94576000.000000 81424000.000000,94576000.000000 81424000.000000,92876000.000000 Z"
         id="path1845" />
      <path
         style="fill:#000000; fill-opacity:1.0;  stroke:#000000; stroke-width:1.000000; stroke-opacity:1;  stroke-linecap:round; stroke-linejoin:round;fill-rule:evenodd;"
         d="M 84924000.000000,95416000.000000 84924000.000000,97116000.000000 81424000.000000,97116000.000000 81424000.000000,95416000.000000 Z"
         id="path1847" />
      <circle
         cx="84074000.000000"
         cy="96266000.000000"
         r="850000.000000"
         id="circle1849" />
      <circle
         cx="84074000.000000"
         cy="98806000.000000"
         r="850000.000000"
         id="circle1851" />
      <path
         style="fill:#000000; fill-opacity:1.0;  stroke:#000000; stroke-width:1.000000; stroke-opacity:1;  stroke-linecap:round; stroke-linejoin:round;fill-rule:evenodd;"
         d="M 84924000.000000,97956000.000000 84924000.000000,99656000.000000 81424000.000000,99656000.000000 81424000.000000,97956000.000000 Z"
         id="path1853" />
      <path
         style="fill:#000000; fill-opacity:1.0;  stroke:#000000; stroke-width:1.000000; stroke-opacity:1;  stroke-linecap:round; stroke-linejoin:round;fill-rule:evenodd;"
         d="M 84924000.000000,100496000.000000 84924000.000000,102196000.000000 83224000.000000,102196000.000000 83224000.000000,100496000.000000 Z"
         id="path1855" />
      <path
         style="fill:#000000; fill-opacity:1.0;  stroke:#000000; stroke-width:1.000000; stroke-opacity:1;  stroke-linecap:round; stroke-linejoin:round;fill-rule:evenodd;"
         d="M 84924000.000000,100496000.000000 84924000.000000,102196000.000000 81424000.000000,102196000.000000 81424000.000000,100496000.000000 Z"
         id="path1857" />
      <circle
         cx="84074000.000000"
         cy="103886000.000000"
         r="850000.000000"
         id="circle1859" />
      <path
         style="fill:#000000; fill-opacity:1.0;  stroke:#000000; stroke-width:1.000000; stroke-opacity:1;  stroke-linecap:round; stroke-linejoin:round;fill-rule:evenodd;"
         d="M 84924000.000000,103036000.000000 84924000.000000,104736000.000000 81424000.000000,104736000.000000 81424000.000000,103036000.000000 Z"
         id="path1861" />
      <circle
         cx="84074000.000000"
         cy="106426000.000000"
         r="850000.000000"
         id="circle1863" />
      <path
         style="fill:#000000; fill-opacity:1.0;  stroke:#000000; stroke-width:1.000000; stroke-opacity:1;  stroke-linecap:round; stroke-linejoin:round;fill-rule:evenodd;"
         d="M 84924000.000000,105576000.000000 84924000.000000,107276000.000000 81424000.000000,107276000.000000 81424000.000000,105576000.000000 Z"
         id="path1865" />
      <circle
         cx="95504000.000000"
         cy="58396000.000000"
         r="850000.000000"
         id="circle1867" />
      <path
         style="fill:#000000; fill-opacity:1.0;  stroke:#000000; stroke-width:1.000000; stroke-opacity:1;  stroke-linecap:round; stroke-linejoin:round;fill-rule:evenodd;"
         d="M 94654000.000000,55746000.000000 96354000.000000,55746000.000000 96354000.000000,59246000.000000 94654000.000000,59246000.000000 Z"
         id="path1869" />
      <path
         style="fill:#000000; fill-opacity:1.0;  stroke:#000000; stroke-width:1.000000; stroke-opacity:1;  stroke-linecap:round; stroke-linejoin:round;fill-rule:evenodd;"
         d="M 92114000.000000,55746000.000000 93814000.000000,55746000.000000 93814000.000000,59246000.000000 92114000.000000,59246000.000000 Z"
         id="path1871" />
      <path
         style="fill:#000000; fill-opacity:1.0;  stroke:#000000; stroke-width:1.000000; stroke-opacity:1;  stroke-linecap:round; stroke-linejoin:round;fill-rule:evenodd;"
         d="M 93814000.000000,57546000.000000 93814000.000000,59246000.000000 92114000.000000,59246000.000000 92114000.000000,57546000.000000 Z"
         id="path1873" />
      <path
         style="fill:#000000; fill-opacity:1.0;  stroke:#000000; stroke-width:1.000000; stroke-opacity:1;  stroke-linecap:round; stroke-linejoin:round;fill-rule:evenodd;"
         d="M 89574000.000000,55746000.000000 91274000.000000,55746000.000000 91274000.000000,59246000.000000 89574000.000000,59246000.000000 Z"
         id="path1875" />
      <circle
         cx="90424000.000000"
         cy="58396000.000000"
         r="850000.000000"
         id="circle1877" />
    </g>
    <g
       id="g1881" />
    <g
       style="fill:#000000; fill-opacity:1.0;  stroke:#000000; stroke-width:1.000000; stroke-opacity:1;  stroke-linecap:round; stroke-linejoin:round;"
       id="g1893">
      <path
         style="fill:#000000; fill-opacity:1.0;  stroke:#000000; stroke-width:1.000000; stroke-opacity:1;  stroke-linecap:round; stroke-linejoin:round;fill-rule:evenodd;"
         d="M 115122000.000000,94777500.000000 115632000.000000,94777500.000000 115632000.000000,95477500.000000 115122000.000000,95477500.000000 Z"
         id="path1883" />
      <path
         style="fill:#000000; fill-opacity:1.0;  stroke:#000000; stroke-width:1.000000; stroke-opacity:1;  stroke-linecap:round; stroke-linejoin:round;fill-rule:evenodd;"
         d="M 114172000.000000,94777500.000000 114682000.000000,94777500.000000 114682000.000000,95477500.000000 114172000.000000,95477500.000000 Z"
         id="path1885" />
      <path
         style="fill:#000000; fill-opacity:1.0;  stroke:#000000; stroke-width:1.000000; stroke-opacity:1;  stroke-linecap:round; stroke-linejoin:round;fill-rule:evenodd;"
         d="M 113222000.000000,94777500.000000 113732000.000000,94777500.000000 113732000.000000,95477500.000000 113222000.000000,95477500.000000 Z"
         id="path1887" />
      <path
         style="fill:#000000; fill-opacity:1.0;  stroke:#000000; stroke-width:1.000000; stroke-opacity:1;  stroke-linecap:round; stroke-linejoin:round;fill-rule:evenodd;"
         d="M 113222000.000000,97097500.000000 113732000.000000,97097500.000000 113732000.000000,97797500.000000 113222000.000000,97797500.000000 Z"
         id="path1889" />
      <path
         style="fill:#000000; fill-opacity:1.0;  stroke:#000000; stroke-width:1.000000; stroke-opacity:1;  stroke-linecap:round; stroke-linejoin:round;fill-rule:evenodd;"
         d="M 115122000.000000,97097500.000000 115632000.000000,97097500.000000 115632000.000000,97797500.000000 115122000.000000,97797500.000000 Z"
         id="path1891" />
    </g>
    <g
       id="g1895" />
    <g
       style="fill:#000000; fill-opacity:1.0;  stroke:#000000; stroke-width:1.000000; stroke-opacity:1;  stroke-linecap:round; stroke-linejoin:round;"
       id="g1901">
      <path
         style="fill:#000000; fill-opacity:1.0;  stroke:#000000; stroke-width:1.000000; stroke-opacity:1;  stroke-linecap:round; stroke-linejoin:round;fill-rule:evenodd;"
         d="M 112843000.000000,100282500.000000 112862030.000000,100186829.000000 112916223.000000,100105723.000000 112997329.000000,100051530.000000 113093000.000000,100032500.000000 113793000.000000,100032500.000000 113888671.000000,100051530.000000 113969777.000000,100105723.000000 114023970.000000,100186829.000000 114043000.000000,100282500.000000 114043000.000000,101182500.000000 114023970.000000,101278171.000000 113969777.000000,101359277.000000 113888671.000000,101413470.000000 113793000.000000,101432500.000000 113093000.000000,101432500.000000 112997329.000000,101413470.000000 112916223.000000,101359277.000000 112862030.000000,101278171.000000 112843000.000000,101182500.000000 Z"
         id="path1897" />
      <path
         style="fill:#000000; fill-opacity:1.0;  stroke:#000000; stroke-width:1.000000; stroke-opacity:1;  stroke-linecap:round; stroke-linejoin:round;fill-rule:evenodd;"
         d="M 114843000.000000,100282500.000000 114862030.000000,100186829.000000 114916223.000000,100105723.000000 114997329.000000,100051530.000000 115093000.000000,100032500.000000 115793000.000000,100032500.000000 115888671.000000,100051530.000000 115969777.000000,100105723.000000 116023970.000000,100186829.000000 116043000.000000,100282500.000000 116043000.000000,101182500.000000 116023970.000000,101278171.000000 115969777.000000,101359277.000000 115888671.000000,101413470.000000 115793000.000000,101432500.000000 115093000.000000,101432500.000000 114997329.000000,101413470.000000 114916223.000000,101359277.000000 114862030.000000,101278171.000000 114843000.000000,101182500.000000 Z"
         id="path1899" />
    </g>
    <g
       id="g1903" />
    <g
       style="fill:#000000; fill-opacity:1.0;  stroke:#000000; stroke-width:1.000000; stroke-opacity:1;  stroke-linecap:round; stroke-linejoin:round;"
       id="g1909">
      <path
         style="fill:#000000; fill-opacity:1.0;  stroke:#000000; stroke-width:1.000000; stroke-opacity:1;  stroke-linecap:round; stroke-linejoin:round;fill-rule:evenodd;"
         d="M 77708000.000000,81526000.000000 77696336.000000,81633368.000000 77646573.000000,81766112.000000 77561553.000000,81879553.000000 77448112.000000,81964573.000000 77315368.000000,82014336.000000 77208000.000000,82026000.000000 76208000.000000,82026000.000000 76100632.000000,82014336.000000 75967888.000000,81964573.000000 75854447.000000,81879553.000000 75769427.000000,81766112.000000 75719664.000000,81633368.000000 75708000.000000,81526000.000000 75708000.000000,80526000.000000 75719664.000000,80418632.000000 75769427.000000,80285888.000000 75854447.000000,80172447.000000 75967888.000000,80087427.000000 76100632.000000,80037664.000000 76208000.000000,80026000.000000 77208000.000000,80026000.000000 77315368.000000,80037664.000000 77448112.000000,80087427.000000 77561553.000000,80172447.000000 77646573.000000,80285888.000000 77696336.000000,80418632.000000 77708000.000000,80526000.000000 Z"
         id="path1905" />
      <path
         style="fill:#000000; fill-opacity:1.0;  stroke:#000000; stroke-width:1.000000; stroke-opacity:1;  stroke-linecap:round; stroke-linejoin:round;fill-rule:evenodd;"
         d="M 77708000.000000,89526000.000000 77696336.000000,89633368.000000 77646573.000000,89766112.000000 77561553.000000,89879553.000000 77448112.000000,89964573.000000 77315368.000000,90014336.000000 77208000.000000,90026000.000000 76208000.000000,90026000.000000 76100632.000000,90014336.000000 75967888.000000,89964573.000000 75854447.000000,89879553.000000 75769427.000000,89766112.000000 75719664.000000,89633368.000000 75708000.000000,89526000.000000 75708000.000000,88526000.000000 75719664.000000,88418632.000000 75769427.000000,88285888.000000 75854447.000000,88172447.000000 75967888.000000,88087427.000000 76100632.000000,88037664.000000 76208000.000000,88026000.000000 77208000.000000,88026000.000000 77315368.000000,88037664.000000 77448112.000000,88087427.000000 77561553.000000,88172447.000000 77646573.000000,88285888.000000 77696336.000000,88418632.000000 77708000.000000,88526000.000000 Z"
         id="path1907" />
    </g>
    <g
       id="g1911" />
    <g
       style="fill:#000000; fill-opacity:1.0;  stroke:#000000; stroke-width:1.000000; stroke-opacity:1;  stroke-linecap:round; stroke-linejoin:round;"
       id="g1917">
      <path
         style="fill:#000000; fill-opacity:1.0;  stroke:#000000; stroke-width:1.000000; stroke-opacity:1;  stroke-linecap:round; stroke-linejoin:round;fill-rule:evenodd;"
         d="M 116030500.000000,92169000.000000 116011470.000000,92264671.000000 115957277.000000,92345777.000000 115876171.000000,92399970.000000 115780500.000000,92419000.000000 115105500.000000,92419000.000000 115009829.000000,92399970.000000 114928723.000000,92345777.000000 114874530.000000,92264671.000000 114855500.000000,92169000.000000 114855500.000000,91219000.000000 114874530.000000,91123329.000000 114928723.000000,91042223.000000 115009829.000000,90988030.000000 115105500.000000,90969000.000000 115780500.000000,90969000.000000 115876171.000000,90988030.000000 115957277.000000,91042223.000000 116011470.000000,91123329.000000 116030500.000000,91219000.000000 Z"
         id="path1913" />
      <path
         style="fill:#000000; fill-opacity:1.0;  stroke:#000000; stroke-width:1.000000; stroke-opacity:1;  stroke-linecap:round; stroke-linejoin:round;fill-rule:evenodd;"
         d="M 113955500.000000,92169000.000000 113936470.000000,92264671.000000 113882277.000000,92345777.000000 113801171.000000,92399970.000000 113705500.000000,92419000.000000 113030500.000000,92419000.000000 112934829.000000,92399970.000000 112853723.000000,92345777.000000 112799530.000000,92264671.000000 112780500.000000,92169000.000000 112780500.000000,91219000.000000 112799530.000000,91123329.000000 112853723.000000,91042223.000000 112934829.000000,90988030.000000 113030500.000000,90969000.000000 113705500.000000,90969000.000000 113801171.000000,90988030.000000 113882277.000000,91042223.000000 113936470.000000,91123329.000000 113955500.000000,91219000.000000 Z"
         id="path1915" />
    </g>
    <g
       id="g1919" />
    <g
       style="fill:#000000; fill-opacity:1.0;  stroke:#000000; stroke-width:1.000000; stroke-opacity:1;  stroke-linecap:round; stroke-linejoin:round;"
       id="g1925">
      <path
         style="fill:#000000; fill-opacity:1.0;  stroke:#000000; stroke-width:1.000000; stroke-opacity:1;  stroke-linecap:round; stroke-linejoin:round;fill-rule:evenodd;"
         d="M 113499000.000000,68668000.000000 111799000.000000,68668000.000000 111799000.000000,66968000.000000 113499000.000000,66968000.000000 Z"
         id="path1921" />
      <circle
         cx="115189000.000000"
         cy="67818000.000000"
         r="850000.000000"
         id="circle1923" />
    </g>
    <g
       id="g1927" />
    <g
       style="fill:#000000; fill-opacity:1.0;  stroke:#000000; stroke-width:1.000000; stroke-opacity:1;  stroke-linecap:round; stroke-linejoin:round;"
       id="g1935">
      <path
         style="fill:#000000; fill-opacity:1.0;  stroke:#000000; stroke-width:1.000000; stroke-opacity:1;  stroke-linecap:round; stroke-linejoin:round;fill-rule:evenodd;"
         d="M 71716000.000000,105815000.000000 71716000.000000,107515000.000000 70016000.000000,107515000.000000 70016000.000000,105815000.000000 Z"
         id="path1929" />
      <circle
         cx="70866000.000000"
         cy="104125000.000000"
         r="850000.000000"
         id="circle1931" />
      <circle
         cx="70866000.000000"
         cy="101585000.000000"
         r="850000.000000"
         id="circle1933" />
    </g>
    <g
       id="g1937" />
    <g
       style="fill:#000000; fill-opacity:1.0;  stroke:#000000; stroke-width:1.000000; stroke-opacity:1;  stroke-linecap:round; stroke-linejoin:round;"
       id="g1971">
      <path
         style="fill:#000000; fill-opacity:1.0;  stroke:#000000; stroke-width:1.000000; stroke-opacity:1;  stroke-linecap:round; stroke-linejoin:round;fill-rule:evenodd;"
         d="M 52885000.000000,70270000.000000 54585000.000000,70270000.000000 54585000.000000,71970000.000000 52885000.000000,71970000.000000 Z"
         id="path1939" />
      <circle
         cx="53735000.000000"
         cy="73660000.000000"
         r="850000.000000"
         id="circle1941" />
      <circle
         cx="56275000.000000"
         cy="71120000.000000"
         r="850000.000000"
         id="circle1943" />
      <circle
         cx="56275000.000000"
         cy="73660000.000000"
         r="850000.000000"
         id="circle1945" />
      <circle
         cx="58815000.000000"
         cy="71120000.000000"
         r="850000.000000"
         id="circle1947" />
      <circle
         cx="58815000.000000"
         cy="73660000.000000"
         r="850000.000000"
         id="circle1949" />
      <circle
         cx="61355000.000000"
         cy="71120000.000000"
         r="850000.000000"
         id="circle1951" />
      <circle
         cx="61355000.000000"
         cy="73660000.000000"
         r="850000.000000"
         id="circle1953" />
      <circle
         cx="63895000.000000"
         cy="71120000.000000"
         r="850000.000000"
         id="circle1955" />
      <circle
         cx="63895000.000000"
         cy="73660000.000000"
         r="850000.000000"
         id="circle1957" />
      <circle
         cx="66435000.000000"
         cy="71120000.000000"
         r="850000.000000"
         id="circle1959" />
      <circle
         cx="66435000.000000"
         cy="73660000.000000"
         r="850000.000000"
         id="circle1961" />
      <circle
         cx="68975000.000000"
         cy="71120000.000000"
         r="850000.000000"
         id="circle1963" />
      <circle
         cx="68975000.000000"
         cy="73660000.000000"
         r="850000.000000"
         id="circle1965" />
      <circle
         cx="71515000.000000"
         cy="71120000.000000"
         r="850000.000000"
         id="circle1967" />
      <circle
         cx="71515000.000000"
         cy="73660000.000000"
         r="850000.000000"
         id="circle1969" />
    </g>
    <g
       id="g1973" />
    <g
       style="fill:#000000; fill-opacity:1.0;  stroke:#000000; stroke-width:1.000000; stroke-opacity:1;  stroke-linecap:round; stroke-linejoin:round;"
       id="g1979">
      <path
         style="fill:#000000; fill-opacity:1.0;  stroke:#000000; stroke-width:1.000000; stroke-opacity:1;  stroke-linecap:round; stroke-linejoin:round;fill-rule:evenodd;"
         d="M 115901380.000000,84544000.000000 115901380.000000,86144000.000000 114301380.000000,86144000.000000 114301380.000000,84544000.000000 Z"
         id="path1975" />
      <circle
         cx="112601380.000000"
         cy="85344000.000000"
         r="800000.000000"
         id="circle1977" />
    </g>
    <g
       style="fill:#000000; fill-opacity:1.0;  stroke:#000000; stroke-width:21200.000000; stroke-opacity:1;  stroke-linecap:round; stroke-linejoin:round;"
       id="g1981" />
    <g
       id="g1983" />
    <g
       style="fill:#000000; fill-opacity:1.0;  stroke:#000000; stroke-width:21200.000000; stroke-opacity:1;  stroke-linecap:round; stroke-linejoin:round;"
       id="g1985" />
    <g
       style="fill:#000000; fill-opacity:1.0;  stroke:#000000; stroke-width:1.000000; stroke-opacity:1;  stroke-linecap:round; stroke-linejoin:round;"
       id="g1995">
      <path
         style="fill:#000000; fill-opacity:1.0;  stroke:#000000; stroke-width:1.000000; stroke-opacity:1;  stroke-linecap:round; stroke-linejoin:round;fill-rule:evenodd;"
         d="M 54190000.000000,85520000.000000 54190000.000000,87220000.000000 52490000.000000,87220000.000000 52490000.000000,85520000.000000 Z"
         id="path1987" />
      <circle
         cx="53340000.000000"
         cy="88910000.000000"
         r="850000.000000"
         id="circle1989" />
      <circle
         cx="53340000.000000"
         cy="91450000.000000"
         r="850000.000000"
         id="circle1991" />
      <circle
         cx="53340000.000000"
         cy="93990000.000000"
         r="850000.000000"
         id="circle1993" />
    </g>
    <g
       id="g1997" />
    <g
       id="g1999" />
    <g
       id="g2001" />
  </g>
</svg>
