M48
; DRILL file {KiCad 6.0.7+dfsg-3} date Sat 10 Dec 2022 05:16:35 PM PST
; FORMAT={-:-/ absolute / metric / decimal}
; #@! TF.CreationDate,2022-12-10T17:16:35-08:00
; #@! TF.GenerationSoftware,Kicad,Pcbnew,6.0.7+dfsg-3
; #@! TF.FileFunction,Plated,1,2,PTH
FMAT,2
METRIC
; #@! TA.AperFunction,Plated,PTH,ComponentDrill
T1C0.800
; #@! TA.AperFunction,Plated,PTH,ComponentDrill
T2C1.000
; #@! TA.AperFunction,Plated,PTH,ComponentDrill
T3C1.020
; #@! TA.AperFunction,Plated,PTH,ComponentDrill
T4C1.300
%
G90
G05
T1
X24.13Y-58.42
X24.13Y-60.92
T2
X8.89Y-59.69
X11.43Y-59.69
X13.97Y-59.69
X16.51Y-59.69
X50.165Y-12.075
X50.165Y-14.615
X50.165Y-17.155
X50.165Y-19.695
T3
X9.525Y-5.08
X9.525Y-7.62
X9.525Y-10.16
X9.525Y-12.7
X9.525Y-15.24
X9.525Y-17.78
X9.525Y-20.32
X9.525Y-22.86
X9.525Y-25.4
X9.525Y-27.94
X9.525Y-30.48
X9.525Y-33.02
X9.525Y-35.56
X9.525Y-38.1
X9.525Y-40.64
X9.525Y-43.18
X9.525Y-45.72
X9.525Y-48.26
X9.525Y-50.8
X9.525Y-53.34
X15.875Y-53.11
X18.415Y-53.11
X20.955Y-53.11
X27.305Y-5.08
X27.305Y-7.62
X27.305Y-10.16
X27.305Y-12.7
X27.305Y-15.24
X27.305Y-17.78
X27.305Y-20.32
X27.305Y-22.86
X27.305Y-25.4
X27.305Y-27.94
X27.305Y-30.48
X27.305Y-33.02
X27.305Y-35.56
X27.305Y-38.1
X27.305Y-40.64
X27.305Y-43.18
X27.305Y-45.72
X27.305Y-48.26
X27.305Y-50.8
X27.305Y-53.34
T4
X37.32Y-33.655
X37.32Y-38.655
X37.465Y-48.26
X37.465Y-53.26
X49.82Y-33.655
X49.82Y-38.655
X49.965Y-48.26
X49.965Y-53.26
T0
M30
