%TF.GenerationSoftware,KiCad,Pcbnew,6.0.7+dfsg-3*%
%TF.CreationDate,2022-12-10T17:15:55-08:00*%
%TF.ProjectId,matrix_clock_kicad,6d617472-6978-45f6-936c-6f636b5f6b69,rev?*%
%TF.SameCoordinates,PX69fa208PY4509570*%
%TF.FileFunction,Copper,L2,Bot*%
%TF.FilePolarity,Positive*%
%FSLAX46Y46*%
G04 Gerber Fmt 4.6, Leading zero omitted, Abs format (unit mm)*
G04 Created by KiCad (PCBNEW 6.0.7+dfsg-3) date 2022-12-10 17:15:55*
%MOMM*%
%LPD*%
G01*
G04 APERTURE LIST*
G04 Aperture macros list*
%AMRoundRect*
0 Rectangle with rounded corners*
0 $1 Rounding radius*
0 $2 $3 $4 $5 $6 $7 $8 $9 X,Y pos of 4 corners*
0 Add a 4 corners polygon primitive as box body*
4,1,4,$2,$3,$4,$5,$6,$7,$8,$9,$2,$3,0*
0 Add four circle primitives for the rounded corners*
1,1,$1+$1,$2,$3*
1,1,$1+$1,$4,$5*
1,1,$1+$1,$6,$7*
1,1,$1+$1,$8,$9*
0 Add four rect primitives between the rounded corners*
20,1,$1+$1,$2,$3,$4,$5,0*
20,1,$1+$1,$4,$5,$6,$7,0*
20,1,$1+$1,$6,$7,$8,$9,0*
20,1,$1+$1,$8,$9,$2,$3,0*%
G04 Aperture macros list end*
%TA.AperFunction,ComponentPad*%
%ADD10O,1.700000X1.700000*%
%TD*%
%TA.AperFunction,SMDPad,CuDef*%
%ADD11R,3.500000X1.700000*%
%TD*%
%TA.AperFunction,ComponentPad*%
%ADD12R,1.700000X1.700000*%
%TD*%
%TA.AperFunction,SMDPad,CuDef*%
%ADD13R,1.700000X3.500000*%
%TD*%
%TA.AperFunction,ComponentPad*%
%ADD14O,3.048000X1.850000*%
%TD*%
%TA.AperFunction,ComponentPad*%
%ADD15R,1.600000X1.600000*%
%TD*%
%TA.AperFunction,ComponentPad*%
%ADD16C,1.600000*%
%TD*%
%TA.AperFunction,SMDPad,CuDef*%
%ADD17RoundRect,0.500000X-0.500000X-0.500000X0.500000X-0.500000X0.500000X0.500000X-0.500000X0.500000X0*%
%TD*%
%TA.AperFunction,Conductor*%
%ADD18C,0.500000*%
%TD*%
%TA.AperFunction,Conductor*%
%ADD19C,1.000000*%
%TD*%
G04 APERTURE END LIST*
D10*
%TO.P,U1,1,GPIO0*%
%TO.N,unconnected-(U1-Pad1)*%
X27305000Y-5080000D03*
D11*
X28205000Y-5080000D03*
D10*
%TO.P,U1,2,GPIO1*%
%TO.N,unconnected-(U1-Pad2)*%
X27305000Y-7620000D03*
D11*
X28205000Y-7620000D03*
%TO.P,U1,3,GND*%
%TO.N,GND*%
X28205000Y-10160000D03*
D12*
X27305000Y-10160000D03*
D10*
%TO.P,U1,4,GPIO2*%
%TO.N,unconnected-(U1-Pad4)*%
X27305000Y-12700000D03*
D11*
X28205000Y-12700000D03*
D10*
%TO.P,U1,5,GPIO3*%
%TO.N,unconnected-(U1-Pad5)*%
X27305000Y-15240000D03*
D11*
X28205000Y-15240000D03*
D10*
%TO.P,U1,6,GPIO4*%
%TO.N,/SDA*%
X27305000Y-17780000D03*
D11*
X28205000Y-17780000D03*
%TO.P,U1,7,GPIO5*%
%TO.N,/SCL*%
X28205000Y-20320000D03*
D10*
X27305000Y-20320000D03*
D12*
%TO.P,U1,8,GND*%
%TO.N,GND*%
X27305000Y-22860000D03*
D11*
X28205000Y-22860000D03*
%TO.P,U1,9,GPIO6*%
%TO.N,unconnected-(U1-Pad9)*%
X28205000Y-25400000D03*
D10*
X27305000Y-25400000D03*
%TO.P,U1,10,GPIO7*%
%TO.N,unconnected-(U1-Pad10)*%
X27305000Y-27940000D03*
D11*
X28205000Y-27940000D03*
%TO.P,U1,11,GPIO8*%
%TO.N,unconnected-(U1-Pad11)*%
X28205000Y-30480000D03*
D10*
X27305000Y-30480000D03*
%TO.P,U1,12,GPIO9*%
%TO.N,unconnected-(U1-Pad12)*%
X27305000Y-33020000D03*
D11*
X28205000Y-33020000D03*
D12*
%TO.P,U1,13,GND*%
%TO.N,GND*%
X27305000Y-35560000D03*
D11*
X28205000Y-35560000D03*
%TO.P,U1,14,GPIO10*%
%TO.N,unconnected-(U1-Pad14)*%
X28205000Y-38100000D03*
D10*
X27305000Y-38100000D03*
%TO.P,U1,15,GPIO11*%
%TO.N,unconnected-(U1-Pad15)*%
X27305000Y-40640000D03*
D11*
X28205000Y-40640000D03*
%TO.P,U1,16,GPIO12*%
%TO.N,unconnected-(U1-Pad16)*%
X28205000Y-43180000D03*
D10*
X27305000Y-43180000D03*
D11*
%TO.P,U1,17,GPIO13*%
%TO.N,unconnected-(U1-Pad17)*%
X28205000Y-45720000D03*
D10*
X27305000Y-45720000D03*
D11*
%TO.P,U1,18,GND*%
%TO.N,GND*%
X28205000Y-48260000D03*
D12*
X27305000Y-48260000D03*
D10*
%TO.P,U1,19,GPIO14*%
%TO.N,/SEL*%
X27305000Y-50800000D03*
D11*
X28205000Y-50800000D03*
%TO.P,U1,20,GPIO15*%
%TO.N,/INC*%
X28205000Y-53340000D03*
D10*
X27305000Y-53340000D03*
D11*
%TO.P,U1,21,GPIO16*%
%TO.N,unconnected-(U1-Pad21)*%
X8625000Y-53340000D03*
D10*
X9525000Y-53340000D03*
D11*
%TO.P,U1,22,GPIO17*%
%TO.N,unconnected-(U1-Pad22)*%
X8625000Y-50800000D03*
D10*
X9525000Y-50800000D03*
D11*
%TO.P,U1,23,GND*%
%TO.N,GND*%
X8625000Y-48260000D03*
D12*
X9525000Y-48260000D03*
D10*
%TO.P,U1,24,GPIO18*%
%TO.N,/CIN*%
X9525000Y-45720000D03*
D11*
X8625000Y-45720000D03*
%TO.P,U1,25,GPIO19*%
%TO.N,/DIN*%
X8625000Y-43180000D03*
D10*
X9525000Y-43180000D03*
D11*
%TO.P,U1,26,GPIO20*%
%TO.N,unconnected-(U1-Pad26)*%
X8625000Y-40640000D03*
D10*
X9525000Y-40640000D03*
%TO.P,U1,27,GPIO21*%
%TO.N,unconnected-(U1-Pad27)*%
X9525000Y-38100000D03*
D11*
X8625000Y-38100000D03*
D12*
%TO.P,U1,28,GND*%
%TO.N,GND*%
X9525000Y-35560000D03*
D11*
X8625000Y-35560000D03*
D10*
%TO.P,U1,29,GPIO22*%
%TO.N,unconnected-(U1-Pad29)*%
X9525000Y-33020000D03*
D11*
X8625000Y-33020000D03*
%TO.P,U1,30,RUN*%
%TO.N,/RUN*%
X8625000Y-30480000D03*
D10*
X9525000Y-30480000D03*
%TO.P,U1,31,GPIO26_ADC0*%
%TO.N,unconnected-(U1-Pad31)*%
X9525000Y-27940000D03*
D11*
X8625000Y-27940000D03*
D10*
%TO.P,U1,32,GPIO27_ADC1*%
%TO.N,unconnected-(U1-Pad32)*%
X9525000Y-25400000D03*
D11*
X8625000Y-25400000D03*
%TO.P,U1,33,AGND*%
%TO.N,unconnected-(U1-Pad33)*%
X8625000Y-22860000D03*
D12*
X9525000Y-22860000D03*
D11*
%TO.P,U1,34,GPIO28_ADC2*%
%TO.N,unconnected-(U1-Pad34)*%
X8625000Y-20320000D03*
D10*
X9525000Y-20320000D03*
D11*
%TO.P,U1,35,ADC_VREF*%
%TO.N,unconnected-(U1-Pad35)*%
X8625000Y-17780000D03*
D10*
X9525000Y-17780000D03*
%TO.P,U1,36,3V3*%
%TO.N,/3.3V*%
X9525000Y-15240000D03*
D11*
X8625000Y-15240000D03*
%TO.P,U1,37,3V3_EN*%
%TO.N,unconnected-(U1-Pad37)*%
X8625000Y-12700000D03*
D10*
X9525000Y-12700000D03*
D11*
%TO.P,U1,38,GND*%
%TO.N,GND*%
X8625000Y-10160000D03*
D12*
X9525000Y-10160000D03*
D11*
%TO.P,U1,39,VSYS*%
%TO.N,unconnected-(U1-Pad39)*%
X8625000Y-7620000D03*
D10*
X9525000Y-7620000D03*
%TO.P,U1,40,VBUS*%
%TO.N,/5V*%
X9525000Y-5080000D03*
D11*
X8625000Y-5080000D03*
D13*
%TO.P,U1,41,SWCLK*%
%TO.N,unconnected-(U1-Pad41)*%
X20955000Y-54010000D03*
D10*
X20955000Y-53110000D03*
D12*
%TO.P,U1,42,GND*%
%TO.N,GND*%
X18415000Y-53110000D03*
D13*
X18415000Y-54010000D03*
D10*
%TO.P,U1,43,SWDIO*%
%TO.N,unconnected-(U1-Pad43)*%
X15875000Y-53110000D03*
D13*
X15875000Y-54010000D03*
%TD*%
D14*
%TO.P,SW2,1,A*%
%TO.N,/INC*%
X49965000Y-53260000D03*
X37465000Y-53260000D03*
%TO.P,SW2,2,B*%
%TO.N,GND*%
X49965000Y-48260000D03*
X37465000Y-48260000D03*
%TD*%
%TO.P,SW1,1,A*%
%TO.N,/SEL*%
X49820000Y-38655000D03*
X37320000Y-38655000D03*
%TO.P,SW1,2,B*%
%TO.N,GND*%
X49820000Y-33655000D03*
X37320000Y-33655000D03*
%TD*%
D15*
%TO.P,C1,1*%
%TO.N,/5V*%
X24130000Y-58420000D03*
D16*
%TO.P,C1,2*%
%TO.N,GND*%
X24130000Y-60920000D03*
%TD*%
D12*
%TO.P,J2,1,Pin_1*%
%TO.N,GND*%
X50165000Y-12075000D03*
D10*
%TO.P,J2,2,Pin_2*%
%TO.N,/3.3V*%
X50165000Y-14615000D03*
%TO.P,J2,3,Pin_3*%
%TO.N,/SDA*%
X50165000Y-17155000D03*
%TO.P,J2,4,Pin_4*%
%TO.N,/SCL*%
X50165000Y-19695000D03*
%TD*%
D12*
%TO.P,J1,1,Pin_1*%
%TO.N,/5V*%
X16510000Y-59690000D03*
D10*
%TO.P,J1,2,Pin_2*%
%TO.N,GND*%
X13970000Y-59690000D03*
%TO.P,J1,3,Pin_3*%
%TO.N,/DIN*%
X11430000Y-59690000D03*
%TO.P,J1,4,Pin_4*%
%TO.N,/CIN*%
X8890000Y-59690000D03*
%TD*%
D17*
%TO.P,SW3,1,A*%
%TO.N,/RUN*%
X3175000Y-30735000D03*
%TO.P,SW3,2,B*%
%TO.N,GND*%
X3175000Y-38735000D03*
%TD*%
D18*
%TO.N,GND*%
X25805000Y-56920000D02*
X25805000Y-50570000D01*
X25805000Y-60376370D02*
X25805000Y-56920000D01*
X25805000Y-56920000D02*
X49131386Y-56920000D01*
X49131386Y-56920000D02*
X52139000Y-53912386D01*
X21915000Y-48260000D02*
X23495000Y-48260000D01*
X25261370Y-60920000D02*
X25805000Y-60376370D01*
X23495000Y-48260000D02*
X27305000Y-48260000D01*
X24130000Y-60920000D02*
X25261370Y-60920000D01*
X25805000Y-50570000D02*
X23495000Y-48260000D01*
D19*
%TO.N,/5V*%
X16510000Y-59690000D02*
X22860000Y-59690000D01*
X22860000Y-59690000D02*
X24130000Y-58420000D01*
X9525000Y-5080000D02*
X10727081Y-5080000D01*
X10727081Y-5080000D02*
X13480000Y-7832919D01*
X13480000Y-7832919D02*
X13480000Y-56660000D01*
X13480000Y-56660000D02*
X16510000Y-59690000D01*
D18*
%TO.N,GND*%
X18415000Y-53110000D02*
X18415000Y-51760000D01*
X18415000Y-51760000D02*
X21915000Y-48260000D01*
X12470000Y-61190000D02*
X23860000Y-61190000D01*
X23860000Y-61190000D02*
X24130000Y-60920000D01*
X7265000Y-48260000D02*
X5715000Y-49810000D01*
X7080738Y-61190000D02*
X12470000Y-61190000D01*
X5715000Y-49810000D02*
X5715000Y-59824262D01*
X5715000Y-59824262D02*
X7080738Y-61190000D01*
X12470000Y-61190000D02*
X13970000Y-59690000D01*
%TO.N,/DIN*%
X11430000Y-59690000D02*
X12330000Y-58790000D01*
X12330000Y-58790000D02*
X12330000Y-45350000D01*
X12330000Y-45350000D02*
X10160000Y-43180000D01*
X10160000Y-43180000D02*
X9525000Y-43180000D01*
%TO.N,/CIN*%
X11430000Y-57150000D02*
X11430000Y-46990000D01*
X8890000Y-59690000D02*
X11430000Y-57150000D01*
X11430000Y-46990000D02*
X10160000Y-45720000D01*
X10160000Y-45720000D02*
X9525000Y-45720000D01*
%TO.N,GND*%
X50165000Y-12075000D02*
X52304261Y-14214261D01*
X52304261Y-31170739D02*
X49820000Y-33655000D01*
X52304261Y-14214261D02*
X52304261Y-31170739D01*
X27305000Y-10160000D02*
X26845000Y-10160000D01*
X25400000Y-21590000D02*
X26670000Y-22860000D01*
X26845000Y-10160000D02*
X25400000Y-11605000D01*
X26670000Y-22860000D02*
X27305000Y-22860000D01*
X25400000Y-11605000D02*
X25400000Y-21590000D01*
X9525000Y-10160000D02*
X9985000Y-10160000D01*
D19*
%TO.N,/3.3V*%
X50165000Y-14615000D02*
X43825000Y-14615000D01*
X43825000Y-14615000D02*
X31115000Y-1905000D01*
X31115000Y-1905000D02*
X6350000Y-1905000D01*
X6350000Y-1905000D02*
X5080000Y-3175000D01*
X5080000Y-13335000D02*
X6985000Y-15240000D01*
X6985000Y-15240000D02*
X9525000Y-15240000D01*
X5080000Y-3175000D02*
X5080000Y-13335000D01*
D18*
%TO.N,/SDA*%
X27305000Y-17780000D02*
X49540000Y-17780000D01*
X49540000Y-17780000D02*
X50165000Y-17155000D01*
%TO.N,/SCL*%
X27305000Y-20320000D02*
X27930000Y-19695000D01*
X27930000Y-19695000D02*
X50165000Y-19695000D01*
%TO.N,GND*%
X27305000Y-22860000D02*
X29565000Y-22860000D01*
X29565000Y-22860000D02*
X31115000Y-24410000D01*
X31115000Y-24410000D02*
X31115000Y-35560000D01*
X52139000Y-53912386D02*
X52139000Y-46376000D01*
X52139000Y-46376000D02*
X51994000Y-46231000D01*
X31115000Y-35560000D02*
X27305000Y-35560000D01*
X35415000Y-35560000D02*
X31115000Y-35560000D01*
X31115000Y-35560000D02*
X31115000Y-47625000D01*
X31115000Y-47625000D02*
X30480000Y-48260000D01*
X30480000Y-48260000D02*
X27305000Y-48260000D01*
X37320000Y-33655000D02*
X35415000Y-35560000D01*
X49820000Y-33655000D02*
X37320000Y-33655000D01*
X49965000Y-48260000D02*
X51994000Y-46231000D01*
X51994000Y-46231000D02*
X51994000Y-35829000D01*
X51994000Y-35829000D02*
X49820000Y-33655000D01*
X37465000Y-48260000D02*
X49965000Y-48260000D01*
%TO.N,/SEL*%
X37320000Y-38655000D02*
X49820000Y-38655000D01*
X27305000Y-50800000D02*
X29565000Y-50800000D01*
X29565000Y-50800000D02*
X33655000Y-46710000D01*
X33655000Y-46710000D02*
X33655000Y-42320000D01*
X33655000Y-42320000D02*
X37320000Y-38655000D01*
%TO.N,/INC*%
X37465000Y-53260000D02*
X49965000Y-53260000D01*
X27305000Y-53340000D02*
X27385000Y-53260000D01*
X27385000Y-53260000D02*
X37465000Y-53260000D01*
%TO.N,GND*%
X3175000Y-38735000D02*
X3175000Y-44170000D01*
X3175000Y-44170000D02*
X7265000Y-48260000D01*
X3175000Y-38735000D02*
X6350000Y-35560000D01*
X6350000Y-35560000D02*
X9525000Y-35560000D01*
%TO.N,/RUN*%
X8000000Y-30735000D02*
X8890000Y-29845000D01*
X3175000Y-30735000D02*
X8000000Y-30735000D01*
%TO.N,GND*%
X9525000Y-48260000D02*
X7265000Y-48260000D01*
%TD*%
%TA.AperFunction,Conductor*%
%TO.N,GND*%
G36*
X54043621Y-528502D02*
G01*
X54090114Y-582158D01*
X54101500Y-634500D01*
X54101500Y-62865500D01*
X54081498Y-62933621D01*
X54027842Y-62980114D01*
X53975500Y-62991500D01*
X634500Y-62991500D01*
X566379Y-62971498D01*
X519886Y-62917842D01*
X508500Y-62865500D01*
X508500Y-62006062D01*
X23408493Y-62006062D01*
X23417789Y-62018077D01*
X23468994Y-62053931D01*
X23478489Y-62059414D01*
X23675947Y-62151490D01*
X23686239Y-62155236D01*
X23896688Y-62211625D01*
X23907481Y-62213528D01*
X24124525Y-62232517D01*
X24135475Y-62232517D01*
X24352519Y-62213528D01*
X24363312Y-62211625D01*
X24573761Y-62155236D01*
X24584053Y-62151490D01*
X24781511Y-62059414D01*
X24791006Y-62053931D01*
X24843048Y-62017491D01*
X24851424Y-62007012D01*
X24844356Y-61993566D01*
X24142812Y-61292022D01*
X24128868Y-61284408D01*
X24127035Y-61284539D01*
X24120420Y-61288790D01*
X23414923Y-61994287D01*
X23408493Y-62006062D01*
X508500Y-62006062D01*
X508500Y-56610000D01*
X2361835Y-56610000D01*
X2380465Y-56846711D01*
X2381619Y-56851518D01*
X2381620Y-56851524D01*
X2411601Y-56976401D01*
X2435895Y-57077594D01*
X2437788Y-57082165D01*
X2437789Y-57082167D01*
X2513073Y-57263919D01*
X2526760Y-57296963D01*
X2529346Y-57301183D01*
X2648241Y-57495202D01*
X2648245Y-57495208D01*
X2650824Y-57499416D01*
X2805031Y-57679969D01*
X2985584Y-57834176D01*
X2989792Y-57836755D01*
X2989798Y-57836759D01*
X3183817Y-57955654D01*
X3188037Y-57958240D01*
X3192607Y-57960133D01*
X3192611Y-57960135D01*
X3402833Y-58047211D01*
X3407406Y-58049105D01*
X3487609Y-58068360D01*
X3633476Y-58103380D01*
X3633482Y-58103381D01*
X3638289Y-58104535D01*
X3875000Y-58123165D01*
X4111711Y-58104535D01*
X4116518Y-58103381D01*
X4116524Y-58103380D01*
X4262391Y-58068360D01*
X4342594Y-58049105D01*
X4347167Y-58047211D01*
X4557389Y-57960135D01*
X4557393Y-57960133D01*
X4561963Y-57958240D01*
X4566183Y-57955654D01*
X4760202Y-57836759D01*
X4760208Y-57836755D01*
X4764416Y-57834176D01*
X4944969Y-57679969D01*
X5099176Y-57499416D01*
X5101755Y-57495208D01*
X5101759Y-57495202D01*
X5220654Y-57301183D01*
X5223240Y-57296963D01*
X5236928Y-57263919D01*
X5312211Y-57082167D01*
X5312212Y-57082165D01*
X5314105Y-57077594D01*
X5338399Y-56976401D01*
X5368380Y-56851524D01*
X5368381Y-56851518D01*
X5369535Y-56846711D01*
X5388165Y-56610000D01*
X5369535Y-56373289D01*
X5361581Y-56340155D01*
X5331131Y-56213324D01*
X5314105Y-56142406D01*
X5303201Y-56116081D01*
X5225135Y-55927611D01*
X5225133Y-55927607D01*
X5223240Y-55923037D01*
X5220654Y-55918817D01*
X5101759Y-55724798D01*
X5101755Y-55724792D01*
X5099176Y-55720584D01*
X4944969Y-55540031D01*
X4764416Y-55385824D01*
X4760208Y-55383245D01*
X4760202Y-55383241D01*
X4566183Y-55264346D01*
X4561963Y-55261760D01*
X4557393Y-55259867D01*
X4557389Y-55259865D01*
X4347167Y-55172789D01*
X4347165Y-55172788D01*
X4342594Y-55170895D01*
X4262391Y-55151640D01*
X4116524Y-55116620D01*
X4116518Y-55116619D01*
X4111711Y-55115465D01*
X3875000Y-55096835D01*
X3638289Y-55115465D01*
X3633482Y-55116619D01*
X3633476Y-55116620D01*
X3487609Y-55151640D01*
X3407406Y-55170895D01*
X3402835Y-55172788D01*
X3402833Y-55172789D01*
X3192611Y-55259865D01*
X3192607Y-55259867D01*
X3188037Y-55261760D01*
X3183817Y-55264346D01*
X2989798Y-55383241D01*
X2989792Y-55383245D01*
X2985584Y-55385824D01*
X2805031Y-55540031D01*
X2650824Y-55720584D01*
X2648245Y-55724792D01*
X2648241Y-55724798D01*
X2529346Y-55918817D01*
X2526760Y-55923037D01*
X2524867Y-55927607D01*
X2524865Y-55927611D01*
X2446799Y-56116081D01*
X2435895Y-56142406D01*
X2418869Y-56213324D01*
X2388420Y-56340155D01*
X2380465Y-56373289D01*
X2362308Y-56603995D01*
X2361835Y-56610000D01*
X508500Y-56610000D01*
X508500Y-54238134D01*
X6366500Y-54238134D01*
X6373255Y-54300316D01*
X6424385Y-54436705D01*
X6511739Y-54553261D01*
X6628295Y-54640615D01*
X6764684Y-54691745D01*
X6826866Y-54698500D01*
X9495826Y-54698500D01*
X9500443Y-54698585D01*
X9581673Y-54701564D01*
X9581677Y-54701564D01*
X9586837Y-54701753D01*
X9591957Y-54701097D01*
X9591959Y-54701097D01*
X9604261Y-54699521D01*
X9620271Y-54698500D01*
X10423134Y-54698500D01*
X10485316Y-54691745D01*
X10501270Y-54685764D01*
X10572077Y-54680581D01*
X10634446Y-54714501D01*
X10668575Y-54776757D01*
X10671500Y-54803746D01*
X10671500Y-56783629D01*
X10651498Y-56851750D01*
X10634595Y-56872724D01*
X9197296Y-58310023D01*
X9134984Y-58344049D01*
X9086105Y-58344975D01*
X9018284Y-58332894D01*
X8944452Y-58331992D01*
X8800081Y-58330228D01*
X8800079Y-58330228D01*
X8794911Y-58330165D01*
X8574091Y-58363955D01*
X8361756Y-58433357D01*
X8357164Y-58435747D01*
X8357165Y-58435747D01*
X8191598Y-58521936D01*
X8163607Y-58536507D01*
X8159474Y-58539610D01*
X8159471Y-58539612D01*
X8019647Y-58644595D01*
X7984965Y-58670635D01*
X7830629Y-58832138D01*
X7827715Y-58836410D01*
X7827714Y-58836411D01*
X7806047Y-58868174D01*
X7704743Y-59016680D01*
X7702564Y-59021375D01*
X7613283Y-59213715D01*
X7610688Y-59219305D01*
X7550989Y-59434570D01*
X7527251Y-59656695D01*
X7527548Y-59661848D01*
X7527548Y-59661851D01*
X7531051Y-59722598D01*
X7540110Y-59879715D01*
X7541247Y-59884761D01*
X7541248Y-59884767D01*
X7562275Y-59978069D01*
X7589222Y-60097639D01*
X7673266Y-60304616D01*
X7712821Y-60369164D01*
X7787291Y-60490688D01*
X7789987Y-60495088D01*
X7936250Y-60663938D01*
X8108126Y-60806632D01*
X8301000Y-60919338D01*
X8509692Y-60999030D01*
X8514760Y-61000061D01*
X8514763Y-61000062D01*
X8609862Y-61019410D01*
X8728597Y-61043567D01*
X8733772Y-61043757D01*
X8733774Y-61043757D01*
X8946673Y-61051564D01*
X8946677Y-61051564D01*
X8951837Y-61051753D01*
X8956957Y-61051097D01*
X8956959Y-61051097D01*
X9168288Y-61024025D01*
X9168289Y-61024025D01*
X9173416Y-61023368D01*
X9178366Y-61021883D01*
X9382429Y-60960661D01*
X9382434Y-60960659D01*
X9387384Y-60959174D01*
X9587994Y-60860896D01*
X9769860Y-60731173D01*
X9782576Y-60718502D01*
X9924435Y-60577137D01*
X9928096Y-60573489D01*
X9987594Y-60490689D01*
X10058453Y-60392077D01*
X10059776Y-60393028D01*
X10106645Y-60349857D01*
X10176580Y-60337625D01*
X10242026Y-60365144D01*
X10269875Y-60396994D01*
X10329987Y-60495088D01*
X10476250Y-60663938D01*
X10648126Y-60806632D01*
X10841000Y-60919338D01*
X11049692Y-60999030D01*
X11054760Y-61000061D01*
X11054763Y-61000062D01*
X11149862Y-61019410D01*
X11268597Y-61043567D01*
X11273772Y-61043757D01*
X11273774Y-61043757D01*
X11486673Y-61051564D01*
X11486677Y-61051564D01*
X11491837Y-61051753D01*
X11496957Y-61051097D01*
X11496959Y-61051097D01*
X11708288Y-61024025D01*
X11708289Y-61024025D01*
X11713416Y-61023368D01*
X11718366Y-61021883D01*
X11922429Y-60960661D01*
X11922434Y-60960659D01*
X11927384Y-60959174D01*
X12127994Y-60860896D01*
X12309860Y-60731173D01*
X12322576Y-60718502D01*
X12464435Y-60577137D01*
X12468096Y-60573489D01*
X12527594Y-60490689D01*
X12598453Y-60392077D01*
X12599640Y-60392930D01*
X12646960Y-60349362D01*
X12716897Y-60337145D01*
X12782338Y-60364678D01*
X12810166Y-60396511D01*
X12867694Y-60490388D01*
X12873777Y-60498699D01*
X13013213Y-60659667D01*
X13020580Y-60666883D01*
X13184434Y-60802916D01*
X13192881Y-60808831D01*
X13376756Y-60916279D01*
X13386042Y-60920729D01*
X13585001Y-60996703D01*
X13594899Y-60999579D01*
X13698250Y-61020606D01*
X13712299Y-61019410D01*
X13716000Y-61009065D01*
X13716000Y-59562000D01*
X13736002Y-59493879D01*
X13789658Y-59447386D01*
X13842000Y-59436000D01*
X14098000Y-59436000D01*
X14166121Y-59456002D01*
X14212614Y-59509658D01*
X14224000Y-59562000D01*
X14224000Y-61008517D01*
X14228064Y-61022359D01*
X14241478Y-61024393D01*
X14248184Y-61023534D01*
X14258262Y-61021392D01*
X14462255Y-60960191D01*
X14471842Y-60956433D01*
X14663095Y-60862739D01*
X14671945Y-60857464D01*
X14845328Y-60733792D01*
X14853193Y-60727145D01*
X14957897Y-60622805D01*
X15020268Y-60588889D01*
X15091075Y-60594077D01*
X15147837Y-60636723D01*
X15164819Y-60667826D01*
X15171665Y-60686087D01*
X15209385Y-60786705D01*
X15296739Y-60903261D01*
X15413295Y-60990615D01*
X15549684Y-61041745D01*
X15611866Y-61048500D01*
X17408134Y-61048500D01*
X17470316Y-61041745D01*
X17606705Y-60990615D01*
X17723261Y-60903261D01*
X17810615Y-60786705D01*
X17813767Y-60778296D01*
X17818077Y-60770425D01*
X17819741Y-60771336D01*
X17855663Y-60723510D01*
X17922224Y-60698807D01*
X17931009Y-60698500D01*
X22698877Y-60698500D01*
X22766998Y-60718502D01*
X22813491Y-60772158D01*
X22824398Y-60835481D01*
X22817483Y-60914524D01*
X22817483Y-60925475D01*
X22836472Y-61142519D01*
X22838375Y-61153312D01*
X22894764Y-61363761D01*
X22898510Y-61374053D01*
X22990586Y-61571511D01*
X22996069Y-61581006D01*
X23032509Y-61633048D01*
X23042988Y-61641424D01*
X23056434Y-61634356D01*
X23769658Y-60921132D01*
X24494408Y-60921132D01*
X24494539Y-60922965D01*
X24498790Y-60929580D01*
X25204287Y-61635077D01*
X25216062Y-61641507D01*
X25228077Y-61632211D01*
X25263931Y-61581006D01*
X25269414Y-61571511D01*
X25361490Y-61374053D01*
X25365236Y-61363761D01*
X25421625Y-61153312D01*
X25423528Y-61142519D01*
X25442517Y-60925475D01*
X25442517Y-60914525D01*
X25423528Y-60697481D01*
X25421625Y-60686688D01*
X25365236Y-60476239D01*
X25361490Y-60465947D01*
X25269414Y-60268489D01*
X25263931Y-60258994D01*
X25227491Y-60206952D01*
X25217012Y-60198576D01*
X25203566Y-60205644D01*
X24502022Y-60907188D01*
X24494408Y-60921132D01*
X23769658Y-60921132D01*
X24845077Y-59845713D01*
X24867871Y-59803971D01*
X24870047Y-59793971D01*
X24920253Y-59743773D01*
X24973814Y-59728549D01*
X24974719Y-59728500D01*
X24978134Y-59728500D01*
X24981530Y-59728131D01*
X24981532Y-59728131D01*
X24993879Y-59726790D01*
X25040316Y-59721745D01*
X25176705Y-59670615D01*
X25293261Y-59583261D01*
X25380615Y-59466705D01*
X25431745Y-59330316D01*
X25438500Y-59268134D01*
X25438500Y-57571866D01*
X25431745Y-57509684D01*
X25380615Y-57373295D01*
X25293261Y-57256739D01*
X25176705Y-57169385D01*
X25040316Y-57118255D01*
X24978134Y-57111500D01*
X23281866Y-57111500D01*
X23219684Y-57118255D01*
X23083295Y-57169385D01*
X22966739Y-57256739D01*
X22879385Y-57373295D01*
X22828255Y-57509684D01*
X22821500Y-57571866D01*
X22821500Y-58250074D01*
X22801498Y-58318195D01*
X22784596Y-58339169D01*
X22479171Y-58644595D01*
X22416858Y-58678620D01*
X22390075Y-58681500D01*
X17931009Y-58681500D01*
X17862888Y-58661498D01*
X17816395Y-58607842D01*
X17814097Y-58602306D01*
X17813768Y-58601704D01*
X17810615Y-58593295D01*
X17723261Y-58476739D01*
X17606705Y-58389385D01*
X17470316Y-58338255D01*
X17408134Y-58331500D01*
X16629925Y-58331500D01*
X16561804Y-58311498D01*
X16540830Y-58294595D01*
X15612344Y-57366109D01*
X14675294Y-56429060D01*
X14641269Y-56366748D01*
X14646333Y-56295933D01*
X14688880Y-56239097D01*
X14755400Y-56214286D01*
X14808618Y-56221983D01*
X14907282Y-56258971D01*
X14907288Y-56258973D01*
X14914684Y-56261745D01*
X14976866Y-56268500D01*
X16773134Y-56268500D01*
X16835316Y-56261745D01*
X16971705Y-56210615D01*
X17069851Y-56137058D01*
X17136358Y-56112210D01*
X17205741Y-56127263D01*
X17220982Y-56137058D01*
X17311351Y-56204786D01*
X17326946Y-56213324D01*
X17447394Y-56258478D01*
X17462649Y-56262105D01*
X17513514Y-56267631D01*
X17520328Y-56268000D01*
X18142885Y-56268000D01*
X18158124Y-56263525D01*
X18159329Y-56262135D01*
X18161000Y-56254452D01*
X18161000Y-56249884D01*
X18669000Y-56249884D01*
X18673475Y-56265123D01*
X18674865Y-56266328D01*
X18682548Y-56267999D01*
X19309669Y-56267999D01*
X19316490Y-56267629D01*
X19367352Y-56262105D01*
X19382604Y-56258479D01*
X19503054Y-56213324D01*
X19518649Y-56204786D01*
X19609018Y-56137058D01*
X19675525Y-56112210D01*
X19744907Y-56127263D01*
X19760148Y-56137058D01*
X19858295Y-56210615D01*
X19994684Y-56261745D01*
X20056866Y-56268500D01*
X21853134Y-56268500D01*
X21915316Y-56261745D01*
X22051705Y-56210615D01*
X22168261Y-56123261D01*
X22255615Y-56006705D01*
X22306745Y-55870316D01*
X22313500Y-55808134D01*
X22313500Y-53306695D01*
X25942251Y-53306695D01*
X25942548Y-53311848D01*
X25942548Y-53311851D01*
X25946291Y-53376763D01*
X25946500Y-53384016D01*
X25946500Y-54238134D01*
X25953255Y-54300316D01*
X26004385Y-54436705D01*
X26091739Y-54553261D01*
X26208295Y-54640615D01*
X26344684Y-54691745D01*
X26406866Y-54698500D01*
X27275826Y-54698500D01*
X27280443Y-54698585D01*
X27361673Y-54701564D01*
X27361677Y-54701564D01*
X27366837Y-54701753D01*
X27371957Y-54701097D01*
X27371959Y-54701097D01*
X27384261Y-54699521D01*
X27400271Y-54698500D01*
X30003134Y-54698500D01*
X30065316Y-54691745D01*
X30201705Y-54640615D01*
X30318261Y-54553261D01*
X30405615Y-54436705D01*
X30456745Y-54300316D01*
X30463500Y-54238134D01*
X30463500Y-54144500D01*
X30483502Y-54076379D01*
X30537158Y-54029886D01*
X30589500Y-54018500D01*
X35579863Y-54018500D01*
X35647984Y-54038502D01*
X35680623Y-54068847D01*
X35790358Y-54215000D01*
X35794096Y-54218572D01*
X35879636Y-54300316D01*
X35960777Y-54377857D01*
X36155508Y-54510693D01*
X36160192Y-54512867D01*
X36160195Y-54512869D01*
X36364628Y-54607764D01*
X36364633Y-54607766D01*
X36369319Y-54609941D01*
X36596468Y-54672935D01*
X36601605Y-54673484D01*
X36785563Y-54693144D01*
X36785571Y-54693144D01*
X36788898Y-54693500D01*
X38123757Y-54693500D01*
X38126330Y-54693288D01*
X38126341Y-54693288D01*
X38293779Y-54679522D01*
X38293785Y-54679521D01*
X38298930Y-54679098D01*
X38527551Y-54621673D01*
X38743723Y-54527678D01*
X38941641Y-54399640D01*
X38965581Y-54377857D01*
X39112167Y-54244473D01*
X39112168Y-54244471D01*
X39115989Y-54240995D01*
X39119188Y-54236944D01*
X39119192Y-54236940D01*
X39253870Y-54066408D01*
X39311787Y-54025345D01*
X39352752Y-54018500D01*
X48079863Y-54018500D01*
X48147984Y-54038502D01*
X48180623Y-54068847D01*
X48290358Y-54215000D01*
X48294096Y-54218572D01*
X48379636Y-54300316D01*
X48460777Y-54377857D01*
X48655508Y-54510693D01*
X48660192Y-54512867D01*
X48660195Y-54512869D01*
X48864628Y-54607764D01*
X48864633Y-54607766D01*
X48869319Y-54609941D01*
X49096468Y-54672935D01*
X49101605Y-54673484D01*
X49285563Y-54693144D01*
X49285571Y-54693144D01*
X49288898Y-54693500D01*
X50623757Y-54693500D01*
X50626330Y-54693288D01*
X50626341Y-54693288D01*
X50793779Y-54679522D01*
X50793785Y-54679521D01*
X50798930Y-54679098D01*
X51027551Y-54621673D01*
X51243723Y-54527678D01*
X51441641Y-54399640D01*
X51465581Y-54377857D01*
X51612167Y-54244473D01*
X51612168Y-54244471D01*
X51615989Y-54240995D01*
X51619188Y-54236944D01*
X51619192Y-54236940D01*
X51758883Y-54060061D01*
X51758885Y-54060057D01*
X51762085Y-54056006D01*
X51876005Y-53849639D01*
X51954691Y-53627436D01*
X51996029Y-53395367D01*
X51998909Y-53159661D01*
X51963253Y-52926651D01*
X51890020Y-52702593D01*
X51847005Y-52619962D01*
X51783564Y-52498093D01*
X51783563Y-52498092D01*
X51781175Y-52493504D01*
X51759019Y-52463994D01*
X51642747Y-52309135D01*
X51642745Y-52309132D01*
X51639642Y-52305000D01*
X51545759Y-52215283D01*
X51472960Y-52145714D01*
X51472959Y-52145713D01*
X51469223Y-52142143D01*
X51274492Y-52009307D01*
X51269808Y-52007133D01*
X51269805Y-52007131D01*
X51065372Y-51912236D01*
X51065367Y-51912234D01*
X51060681Y-51910059D01*
X50833532Y-51847065D01*
X50828395Y-51846516D01*
X50644437Y-51826856D01*
X50644429Y-51826856D01*
X50641102Y-51826500D01*
X49306243Y-51826500D01*
X49303670Y-51826712D01*
X49303659Y-51826712D01*
X49136221Y-51840478D01*
X49136215Y-51840479D01*
X49131070Y-51840902D01*
X48902449Y-51898327D01*
X48686277Y-51992322D01*
X48488359Y-52120360D01*
X48484536Y-52123839D01*
X48484533Y-52123841D01*
X48344015Y-52251703D01*
X48314011Y-52279005D01*
X48310812Y-52283056D01*
X48310808Y-52283060D01*
X48176130Y-52453592D01*
X48118213Y-52494655D01*
X48077248Y-52501500D01*
X39350137Y-52501500D01*
X39282016Y-52481498D01*
X39249377Y-52451153D01*
X39142747Y-52309135D01*
X39142745Y-52309132D01*
X39139642Y-52305000D01*
X39045759Y-52215283D01*
X38972960Y-52145714D01*
X38972959Y-52145713D01*
X38969223Y-52142143D01*
X38774492Y-52009307D01*
X38769808Y-52007133D01*
X38769805Y-52007131D01*
X38565372Y-51912236D01*
X38565367Y-51912234D01*
X38560681Y-51910059D01*
X38333532Y-51847065D01*
X38328395Y-51846516D01*
X38144437Y-51826856D01*
X38144429Y-51826856D01*
X38141102Y-51826500D01*
X36806243Y-51826500D01*
X36803670Y-51826712D01*
X36803659Y-51826712D01*
X36636221Y-51840478D01*
X36636215Y-51840479D01*
X36631070Y-51840902D01*
X36402449Y-51898327D01*
X36186277Y-51992322D01*
X35988359Y-52120360D01*
X35984536Y-52123839D01*
X35984533Y-52123841D01*
X35844015Y-52251703D01*
X35814011Y-52279005D01*
X35810812Y-52283056D01*
X35810808Y-52283060D01*
X35676130Y-52453592D01*
X35618213Y-52494655D01*
X35577248Y-52501500D01*
X30583032Y-52501500D01*
X30514911Y-52481498D01*
X30468418Y-52427842D01*
X30459448Y-52395217D01*
X30459425Y-52395222D01*
X30459270Y-52394571D01*
X30457769Y-52389111D01*
X30457598Y-52387539D01*
X30456745Y-52379684D01*
X30405615Y-52243295D01*
X30332370Y-52145564D01*
X30307522Y-52079059D01*
X30322575Y-52009676D01*
X30332370Y-51994435D01*
X30333954Y-51992322D01*
X30405615Y-51896705D01*
X30456745Y-51760316D01*
X30463500Y-51698134D01*
X30463500Y-51026371D01*
X30483502Y-50958250D01*
X30500405Y-50937276D01*
X32905487Y-48532194D01*
X35457895Y-48532194D01*
X35466453Y-48588121D01*
X35468841Y-48598146D01*
X35538836Y-48812295D01*
X35542833Y-48821804D01*
X35646861Y-49021640D01*
X35652355Y-49030365D01*
X35787628Y-49210532D01*
X35794471Y-49218239D01*
X35957356Y-49373896D01*
X35965362Y-49380379D01*
X36151485Y-49507343D01*
X36160444Y-49512432D01*
X36364807Y-49607294D01*
X36374475Y-49610851D01*
X36591580Y-49671060D01*
X36601699Y-49672991D01*
X36785595Y-49692644D01*
X36792287Y-49693000D01*
X37192885Y-49693000D01*
X37208124Y-49688525D01*
X37209329Y-49687135D01*
X37211000Y-49679452D01*
X37211000Y-49674885D01*
X37719000Y-49674885D01*
X37723475Y-49690124D01*
X37724865Y-49691329D01*
X37732548Y-49693000D01*
X38121145Y-49693000D01*
X38126318Y-49692788D01*
X38293687Y-49679027D01*
X38303867Y-49677342D01*
X38522377Y-49622456D01*
X38532128Y-49619136D01*
X38738749Y-49529296D01*
X38747824Y-49524430D01*
X38936990Y-49402052D01*
X38945161Y-49395760D01*
X39111800Y-49244131D01*
X39118825Y-49236598D01*
X39258466Y-49059782D01*
X39264162Y-49051209D01*
X39373052Y-48853955D01*
X39377273Y-48844560D01*
X39452481Y-48632180D01*
X39455113Y-48622217D01*
X39471148Y-48532194D01*
X47957895Y-48532194D01*
X47966453Y-48588121D01*
X47968841Y-48598146D01*
X48038836Y-48812295D01*
X48042833Y-48821804D01*
X48146861Y-49021640D01*
X48152355Y-49030365D01*
X48287628Y-49210532D01*
X48294471Y-49218239D01*
X48457356Y-49373896D01*
X48465362Y-49380379D01*
X48651485Y-49507343D01*
X48660444Y-49512432D01*
X48864807Y-49607294D01*
X48874475Y-49610851D01*
X49091580Y-49671060D01*
X49101699Y-49672991D01*
X49285595Y-49692644D01*
X49292287Y-49693000D01*
X49692885Y-49693000D01*
X49708124Y-49688525D01*
X49709329Y-49687135D01*
X49711000Y-49679452D01*
X49711000Y-49674885D01*
X50219000Y-49674885D01*
X50223475Y-49690124D01*
X50224865Y-49691329D01*
X50232548Y-49693000D01*
X50621145Y-49693000D01*
X50626318Y-49692788D01*
X50793687Y-49679027D01*
X50803867Y-49677342D01*
X51022377Y-49622456D01*
X51032128Y-49619136D01*
X51238749Y-49529296D01*
X51247824Y-49524430D01*
X51436990Y-49402052D01*
X51445161Y-49395760D01*
X51611800Y-49244131D01*
X51618825Y-49236598D01*
X51758466Y-49059782D01*
X51764162Y-49051209D01*
X51873052Y-48853955D01*
X51877273Y-48844560D01*
X51952481Y-48632180D01*
X51955113Y-48622217D01*
X51971212Y-48531837D01*
X51969752Y-48518540D01*
X51955197Y-48514000D01*
X50237115Y-48514000D01*
X50221876Y-48518475D01*
X50220671Y-48519865D01*
X50219000Y-48527548D01*
X50219000Y-49674885D01*
X49711000Y-49674885D01*
X49711000Y-48532115D01*
X49706525Y-48516876D01*
X49705135Y-48515671D01*
X49697452Y-48514000D01*
X47973226Y-48514000D01*
X47959882Y-48517918D01*
X47957895Y-48532194D01*
X39471148Y-48532194D01*
X39471212Y-48531837D01*
X39469752Y-48518540D01*
X39455197Y-48514000D01*
X37737115Y-48514000D01*
X37721876Y-48518475D01*
X37720671Y-48519865D01*
X37719000Y-48527548D01*
X37719000Y-49674885D01*
X37211000Y-49674885D01*
X37211000Y-48532115D01*
X37206525Y-48516876D01*
X37205135Y-48515671D01*
X37197452Y-48514000D01*
X35473226Y-48514000D01*
X35459882Y-48517918D01*
X35457895Y-48532194D01*
X32905487Y-48532194D01*
X33449518Y-47988163D01*
X35458788Y-47988163D01*
X35460248Y-48001460D01*
X35474803Y-48006000D01*
X37192885Y-48006000D01*
X37208124Y-48001525D01*
X37209329Y-48000135D01*
X37211000Y-47992452D01*
X37211000Y-47987885D01*
X37719000Y-47987885D01*
X37723475Y-48003124D01*
X37724865Y-48004329D01*
X37732548Y-48006000D01*
X39456774Y-48006000D01*
X39470118Y-48002082D01*
X39472055Y-47988163D01*
X47958788Y-47988163D01*
X47960248Y-48001460D01*
X47974803Y-48006000D01*
X49692885Y-48006000D01*
X49708124Y-48001525D01*
X49709329Y-48000135D01*
X49711000Y-47992452D01*
X49711000Y-47987885D01*
X50219000Y-47987885D01*
X50223475Y-48003124D01*
X50224865Y-48004329D01*
X50232548Y-48006000D01*
X51956774Y-48006000D01*
X51970118Y-48002082D01*
X51972105Y-47987806D01*
X51963547Y-47931879D01*
X51961159Y-47921854D01*
X51891164Y-47707705D01*
X51887167Y-47698196D01*
X51783139Y-47498360D01*
X51777645Y-47489635D01*
X51642372Y-47309468D01*
X51635529Y-47301761D01*
X51472644Y-47146104D01*
X51464638Y-47139621D01*
X51278515Y-47012657D01*
X51269556Y-47007568D01*
X51065193Y-46912706D01*
X51055525Y-46909149D01*
X50838420Y-46848940D01*
X50828301Y-46847009D01*
X50644405Y-46827356D01*
X50637713Y-46827000D01*
X50237115Y-46827000D01*
X50221876Y-46831475D01*
X50220671Y-46832865D01*
X50219000Y-46840548D01*
X50219000Y-47987885D01*
X49711000Y-47987885D01*
X49711000Y-46845115D01*
X49706525Y-46829876D01*
X49705135Y-46828671D01*
X49697452Y-46827000D01*
X49308855Y-46827000D01*
X49303682Y-46827212D01*
X49136313Y-46840973D01*
X49126133Y-46842658D01*
X48907623Y-46897544D01*
X48897872Y-46900864D01*
X48691251Y-46990704D01*
X48682176Y-46995570D01*
X48493010Y-47117948D01*
X48484839Y-47124240D01*
X48318200Y-47275869D01*
X48311175Y-47283402D01*
X48171534Y-47460218D01*
X48165838Y-47468791D01*
X48056948Y-47666045D01*
X48052727Y-47675440D01*
X47977519Y-47887820D01*
X47974887Y-47897783D01*
X47958788Y-47988163D01*
X39472055Y-47988163D01*
X39472105Y-47987806D01*
X39463547Y-47931879D01*
X39461159Y-47921854D01*
X39391164Y-47707705D01*
X39387167Y-47698196D01*
X39283139Y-47498360D01*
X39277645Y-47489635D01*
X39142372Y-47309468D01*
X39135529Y-47301761D01*
X38972644Y-47146104D01*
X38964638Y-47139621D01*
X38778515Y-47012657D01*
X38769556Y-47007568D01*
X38565193Y-46912706D01*
X38555525Y-46909149D01*
X38338420Y-46848940D01*
X38328301Y-46847009D01*
X38144405Y-46827356D01*
X38137713Y-46827000D01*
X37737115Y-46827000D01*
X37721876Y-46831475D01*
X37720671Y-46832865D01*
X37719000Y-46840548D01*
X37719000Y-47987885D01*
X37211000Y-47987885D01*
X37211000Y-46845115D01*
X37206525Y-46829876D01*
X37205135Y-46828671D01*
X37197452Y-46827000D01*
X36808855Y-46827000D01*
X36803682Y-46827212D01*
X36636313Y-46840973D01*
X36626133Y-46842658D01*
X36407623Y-46897544D01*
X36397872Y-46900864D01*
X36191251Y-46990704D01*
X36182176Y-46995570D01*
X35993010Y-47117948D01*
X35984839Y-47124240D01*
X35818200Y-47275869D01*
X35811175Y-47283402D01*
X35671534Y-47460218D01*
X35665838Y-47468791D01*
X35556948Y-47666045D01*
X35552727Y-47675440D01*
X35477519Y-47887820D01*
X35474887Y-47897783D01*
X35458788Y-47988163D01*
X33449518Y-47988163D01*
X34143911Y-47293770D01*
X34158323Y-47281384D01*
X34169918Y-47272851D01*
X34169923Y-47272846D01*
X34175818Y-47268508D01*
X34180557Y-47262930D01*
X34180560Y-47262927D01*
X34210035Y-47228232D01*
X34216965Y-47220716D01*
X34222660Y-47215021D01*
X34240281Y-47192749D01*
X34243072Y-47189345D01*
X34285591Y-47139297D01*
X34285592Y-47139295D01*
X34290333Y-47133715D01*
X34293661Y-47127199D01*
X34297020Y-47122162D01*
X34300194Y-47117023D01*
X34304734Y-47111284D01*
X34335636Y-47045163D01*
X34337569Y-47041209D01*
X34348085Y-47020615D01*
X34370769Y-46976192D01*
X34372510Y-46969076D01*
X34374604Y-46963446D01*
X34376523Y-46957679D01*
X34379621Y-46951050D01*
X34390751Y-46897544D01*
X34394482Y-46879604D01*
X34395453Y-46875315D01*
X34406180Y-46831475D01*
X34412808Y-46804390D01*
X34413500Y-46793236D01*
X34413536Y-46793238D01*
X34413775Y-46789248D01*
X34414150Y-46785050D01*
X34415640Y-46777885D01*
X34413546Y-46700479D01*
X34413500Y-46697072D01*
X34413500Y-42686371D01*
X34433502Y-42618250D01*
X34450405Y-42597276D01*
X36922276Y-40125405D01*
X36984588Y-40091379D01*
X37011371Y-40088500D01*
X37978757Y-40088500D01*
X37981330Y-40088288D01*
X37981341Y-40088288D01*
X38148779Y-40074522D01*
X38148785Y-40074521D01*
X38153930Y-40074098D01*
X38382551Y-40016673D01*
X38598723Y-39922678D01*
X38796641Y-39794640D01*
X38820581Y-39772857D01*
X38967167Y-39639473D01*
X38967168Y-39639471D01*
X38970989Y-39635995D01*
X38974188Y-39631944D01*
X38974192Y-39631940D01*
X39108870Y-39461408D01*
X39166787Y-39420345D01*
X39207752Y-39413500D01*
X47934863Y-39413500D01*
X48002984Y-39433502D01*
X48035623Y-39463847D01*
X48090423Y-39536833D01*
X48145358Y-39610000D01*
X48315777Y-39772857D01*
X48510508Y-39905693D01*
X48515192Y-39907867D01*
X48515195Y-39907869D01*
X48719628Y-40002764D01*
X48719633Y-40002766D01*
X48724319Y-40004941D01*
X48951468Y-40067935D01*
X48956605Y-40068484D01*
X49140563Y-40088144D01*
X49140571Y-40088144D01*
X49143898Y-40088500D01*
X50478757Y-40088500D01*
X50481330Y-40088288D01*
X50481341Y-40088288D01*
X50648779Y-40074522D01*
X50648785Y-40074521D01*
X50653930Y-40074098D01*
X50882551Y-40016673D01*
X51098723Y-39922678D01*
X51296641Y-39794640D01*
X51320581Y-39772857D01*
X51467167Y-39639473D01*
X51467168Y-39639471D01*
X51470989Y-39635995D01*
X51474188Y-39631944D01*
X51474192Y-39631940D01*
X51613883Y-39455061D01*
X51613885Y-39455057D01*
X51617085Y-39451006D01*
X51731005Y-39244639D01*
X51740794Y-39216998D01*
X51807965Y-39027311D01*
X51807966Y-39027307D01*
X51809691Y-39022436D01*
X51814850Y-38993475D01*
X51850123Y-38795456D01*
X51850124Y-38795450D01*
X51851029Y-38790367D01*
X51853909Y-38554661D01*
X51818253Y-38321651D01*
X51745020Y-38097593D01*
X51659425Y-37933167D01*
X51638564Y-37893093D01*
X51638563Y-37893092D01*
X51636175Y-37888504D01*
X51617415Y-37863517D01*
X51497747Y-37704135D01*
X51497745Y-37704132D01*
X51494642Y-37700000D01*
X51324223Y-37537143D01*
X51129492Y-37404307D01*
X51124808Y-37402133D01*
X51124805Y-37402131D01*
X50920372Y-37307236D01*
X50920367Y-37307234D01*
X50915681Y-37305059D01*
X50688532Y-37242065D01*
X50674337Y-37240548D01*
X50499437Y-37221856D01*
X50499429Y-37221856D01*
X50496102Y-37221500D01*
X49161243Y-37221500D01*
X49158670Y-37221712D01*
X49158659Y-37221712D01*
X48991221Y-37235478D01*
X48991215Y-37235479D01*
X48986070Y-37235902D01*
X48757449Y-37293327D01*
X48541277Y-37387322D01*
X48343359Y-37515360D01*
X48339536Y-37518839D01*
X48339533Y-37518841D01*
X48315495Y-37540714D01*
X48169011Y-37674005D01*
X48165812Y-37678056D01*
X48165808Y-37678060D01*
X48031130Y-37848592D01*
X47973213Y-37889655D01*
X47932248Y-37896500D01*
X39205137Y-37896500D01*
X39137016Y-37876498D01*
X39104377Y-37846153D01*
X38997747Y-37704135D01*
X38997745Y-37704132D01*
X38994642Y-37700000D01*
X38824223Y-37537143D01*
X38629492Y-37404307D01*
X38624808Y-37402133D01*
X38624805Y-37402131D01*
X38420372Y-37307236D01*
X38420367Y-37307234D01*
X38415681Y-37305059D01*
X38188532Y-37242065D01*
X38174337Y-37240548D01*
X37999437Y-37221856D01*
X37999429Y-37221856D01*
X37996102Y-37221500D01*
X36661243Y-37221500D01*
X36658670Y-37221712D01*
X36658659Y-37221712D01*
X36491221Y-37235478D01*
X36491215Y-37235479D01*
X36486070Y-37235902D01*
X36257449Y-37293327D01*
X36041277Y-37387322D01*
X35843359Y-37515360D01*
X35839536Y-37518839D01*
X35839533Y-37518841D01*
X35815495Y-37540714D01*
X35669011Y-37674005D01*
X35665812Y-37678056D01*
X35665808Y-37678060D01*
X35608013Y-37751241D01*
X35522915Y-37858994D01*
X35408995Y-38065361D01*
X35407271Y-38070230D01*
X35407269Y-38070234D01*
X35362076Y-38197856D01*
X35330309Y-38287564D01*
X35329402Y-38292657D01*
X35329401Y-38292660D01*
X35295853Y-38481000D01*
X35288971Y-38519633D01*
X35286091Y-38755339D01*
X35321747Y-38988349D01*
X35394980Y-39212407D01*
X35397370Y-39216998D01*
X35453291Y-39324421D01*
X35467004Y-39394080D01*
X35440879Y-39460095D01*
X35430623Y-39471696D01*
X33166089Y-41736230D01*
X33151677Y-41748616D01*
X33140082Y-41757149D01*
X33140077Y-41757154D01*
X33134182Y-41761492D01*
X33129443Y-41767070D01*
X33129440Y-41767073D01*
X33099965Y-41801768D01*
X33093035Y-41809284D01*
X33087340Y-41814979D01*
X33085060Y-41817861D01*
X33069719Y-41837251D01*
X33066928Y-41840655D01*
X33024409Y-41890703D01*
X33019667Y-41896285D01*
X33016339Y-41902801D01*
X33012972Y-41907850D01*
X33009805Y-41912979D01*
X33005266Y-41918716D01*
X32974345Y-41984875D01*
X32972442Y-41988769D01*
X32939231Y-42053808D01*
X32937492Y-42060916D01*
X32935393Y-42066559D01*
X32933476Y-42072322D01*
X32930378Y-42078950D01*
X32928888Y-42086112D01*
X32928888Y-42086113D01*
X32915514Y-42150412D01*
X32914544Y-42154696D01*
X32897192Y-42225610D01*
X32896500Y-42236764D01*
X32896464Y-42236762D01*
X32896225Y-42240755D01*
X32895851Y-42244947D01*
X32894360Y-42252115D01*
X32894558Y-42259432D01*
X32896454Y-42329521D01*
X32896500Y-42332928D01*
X32896500Y-46343629D01*
X32876498Y-46411750D01*
X32859595Y-46432724D01*
X30678095Y-48614224D01*
X30615783Y-48648250D01*
X30544968Y-48643185D01*
X30488132Y-48600638D01*
X30468963Y-48549246D01*
X30468104Y-48549498D01*
X30464576Y-48537483D01*
X30463321Y-48534118D01*
X30463284Y-48533083D01*
X30458525Y-48516876D01*
X30457135Y-48515671D01*
X30449452Y-48514000D01*
X25965116Y-48514000D01*
X25949877Y-48518475D01*
X25948672Y-48519865D01*
X25947001Y-48527548D01*
X25947001Y-49154669D01*
X25947371Y-49161490D01*
X25952895Y-49212352D01*
X25956521Y-49227604D01*
X26001676Y-49348054D01*
X26010214Y-49363649D01*
X26077942Y-49454018D01*
X26102790Y-49520525D01*
X26087737Y-49589907D01*
X26077942Y-49605148D01*
X26054578Y-49636323D01*
X26004385Y-49703295D01*
X25953255Y-49839684D01*
X25946500Y-49901866D01*
X25946500Y-50720219D01*
X25945787Y-50733607D01*
X25942251Y-50766695D01*
X25942548Y-50771848D01*
X25942548Y-50771851D01*
X25946291Y-50836763D01*
X25946500Y-50844016D01*
X25946500Y-51698134D01*
X25953255Y-51760316D01*
X26004385Y-51896705D01*
X26076046Y-51992322D01*
X26077630Y-51994435D01*
X26102478Y-52060941D01*
X26087425Y-52130324D01*
X26077632Y-52145562D01*
X26004385Y-52243295D01*
X25953255Y-52379684D01*
X25946500Y-52441866D01*
X25946500Y-53260219D01*
X25945787Y-53273607D01*
X25942251Y-53306695D01*
X22313500Y-53306695D01*
X22313500Y-53207856D01*
X22314578Y-53191409D01*
X22316092Y-53179908D01*
X22316529Y-53176590D01*
X22318156Y-53110000D01*
X22313924Y-53058524D01*
X22313500Y-53048200D01*
X22313500Y-52211866D01*
X22306745Y-52149684D01*
X22255615Y-52013295D01*
X22168261Y-51896739D01*
X22051705Y-51809385D01*
X21915316Y-51758255D01*
X21853134Y-51751500D01*
X20969985Y-51751500D01*
X20968446Y-51751491D01*
X20865081Y-51750228D01*
X20865079Y-51750228D01*
X20859911Y-51750165D01*
X20854797Y-51750948D01*
X20851289Y-51751193D01*
X20842496Y-51751500D01*
X20056866Y-51751500D01*
X19994684Y-51758255D01*
X19858295Y-51809385D01*
X19816808Y-51840478D01*
X19760148Y-51882942D01*
X19693642Y-51907790D01*
X19624259Y-51892737D01*
X19609018Y-51882942D01*
X19518649Y-51815214D01*
X19503054Y-51806676D01*
X19382606Y-51761522D01*
X19367351Y-51757895D01*
X19316486Y-51752369D01*
X19309672Y-51752000D01*
X18687115Y-51752000D01*
X18671876Y-51756475D01*
X18670671Y-51757865D01*
X18669000Y-51765548D01*
X18669000Y-56249884D01*
X18161000Y-56249884D01*
X18161000Y-51770116D01*
X18156525Y-51754877D01*
X18155135Y-51753672D01*
X18147452Y-51752001D01*
X17520331Y-51752001D01*
X17513510Y-51752371D01*
X17462648Y-51757895D01*
X17447396Y-51761521D01*
X17326946Y-51806676D01*
X17311351Y-51815214D01*
X17220982Y-51882942D01*
X17154475Y-51907790D01*
X17085093Y-51892737D01*
X17069852Y-51882942D01*
X17013192Y-51840478D01*
X16971705Y-51809385D01*
X16835316Y-51758255D01*
X16773134Y-51751500D01*
X15889985Y-51751500D01*
X15888446Y-51751491D01*
X15785081Y-51750228D01*
X15785079Y-51750228D01*
X15779911Y-51750165D01*
X15774797Y-51750948D01*
X15771289Y-51751193D01*
X15762496Y-51751500D01*
X14976866Y-51751500D01*
X14914684Y-51758255D01*
X14778295Y-51809385D01*
X14728019Y-51847065D01*
X14690065Y-51875510D01*
X14623559Y-51900358D01*
X14554176Y-51885305D01*
X14503946Y-51835131D01*
X14488500Y-51774684D01*
X14488500Y-45686695D01*
X25942251Y-45686695D01*
X25942548Y-45691848D01*
X25942548Y-45691851D01*
X25946291Y-45756763D01*
X25946500Y-45764016D01*
X25946500Y-46618134D01*
X25953255Y-46680316D01*
X26004385Y-46816705D01*
X26022573Y-46840973D01*
X26077942Y-46914852D01*
X26102790Y-46981358D01*
X26087737Y-47050741D01*
X26077942Y-47065982D01*
X26010214Y-47156351D01*
X26001676Y-47171946D01*
X25956522Y-47292394D01*
X25952895Y-47307649D01*
X25947369Y-47358514D01*
X25947000Y-47365328D01*
X25947000Y-47987885D01*
X25951475Y-48003124D01*
X25952865Y-48004329D01*
X25960548Y-48006000D01*
X30444884Y-48006000D01*
X30460123Y-48001525D01*
X30461328Y-48000135D01*
X30462999Y-47992452D01*
X30462999Y-47365331D01*
X30462629Y-47358510D01*
X30457105Y-47307648D01*
X30453479Y-47292396D01*
X30408324Y-47171946D01*
X30399786Y-47156351D01*
X30332058Y-47065982D01*
X30307210Y-46999475D01*
X30322263Y-46930093D01*
X30332058Y-46914852D01*
X30387427Y-46840973D01*
X30405615Y-46816705D01*
X30456745Y-46680316D01*
X30463500Y-46618134D01*
X30463500Y-44821866D01*
X30456745Y-44759684D01*
X30405615Y-44623295D01*
X30332370Y-44525564D01*
X30307522Y-44459059D01*
X30322575Y-44389676D01*
X30332370Y-44374435D01*
X30400229Y-44283891D01*
X30405615Y-44276705D01*
X30456745Y-44140316D01*
X30463500Y-44078134D01*
X30463500Y-42281866D01*
X30456745Y-42219684D01*
X30405615Y-42083295D01*
X30332370Y-41985564D01*
X30307522Y-41919059D01*
X30322575Y-41849676D01*
X30332370Y-41834435D01*
X30344792Y-41817861D01*
X30405615Y-41736705D01*
X30456745Y-41600316D01*
X30463500Y-41538134D01*
X30463500Y-39741866D01*
X30456745Y-39679684D01*
X30405615Y-39543295D01*
X30332370Y-39445564D01*
X30307522Y-39379059D01*
X30322575Y-39309676D01*
X30332370Y-39294435D01*
X30369690Y-39244639D01*
X30405615Y-39196705D01*
X30456745Y-39060316D01*
X30462815Y-39004440D01*
X30463131Y-39001531D01*
X30463500Y-38998134D01*
X30463500Y-37201866D01*
X30456745Y-37139684D01*
X30405615Y-37003295D01*
X30332058Y-36905148D01*
X30307210Y-36838642D01*
X30322263Y-36769259D01*
X30332058Y-36754018D01*
X30399786Y-36663649D01*
X30408324Y-36648054D01*
X30453478Y-36527606D01*
X30457105Y-36512351D01*
X30462631Y-36461486D01*
X30463000Y-36454672D01*
X30463000Y-35832115D01*
X30458525Y-35816876D01*
X30457135Y-35815671D01*
X30449452Y-35814000D01*
X25965116Y-35814000D01*
X25949877Y-35818475D01*
X25948672Y-35819865D01*
X25947001Y-35827548D01*
X25947001Y-36454669D01*
X25947371Y-36461490D01*
X25952895Y-36512352D01*
X25956521Y-36527604D01*
X26001676Y-36648054D01*
X26010214Y-36663649D01*
X26077942Y-36754018D01*
X26102790Y-36820525D01*
X26087737Y-36889907D01*
X26077942Y-36905148D01*
X26004385Y-37003295D01*
X25953255Y-37139684D01*
X25946500Y-37201866D01*
X25946500Y-38020219D01*
X25945787Y-38033607D01*
X25942251Y-38066695D01*
X25942548Y-38071848D01*
X25942548Y-38071851D01*
X25946291Y-38136763D01*
X25946500Y-38144016D01*
X25946500Y-38998134D01*
X25946869Y-39001531D01*
X25947185Y-39004440D01*
X25953255Y-39060316D01*
X26004385Y-39196705D01*
X26040310Y-39244639D01*
X26077630Y-39294435D01*
X26102478Y-39360941D01*
X26087425Y-39430324D01*
X26077632Y-39445562D01*
X26004385Y-39543295D01*
X25953255Y-39679684D01*
X25946500Y-39741866D01*
X25946500Y-40560219D01*
X25945787Y-40573607D01*
X25942251Y-40606695D01*
X25942548Y-40611848D01*
X25942548Y-40611851D01*
X25946291Y-40676763D01*
X25946500Y-40684016D01*
X25946500Y-41538134D01*
X25953255Y-41600316D01*
X26004385Y-41736705D01*
X26065208Y-41817861D01*
X26077630Y-41834435D01*
X26102478Y-41900941D01*
X26087425Y-41970324D01*
X26077632Y-41985562D01*
X26004385Y-42083295D01*
X25953255Y-42219684D01*
X25946500Y-42281866D01*
X25946500Y-43100219D01*
X25945787Y-43113607D01*
X25942251Y-43146695D01*
X25942548Y-43151848D01*
X25942548Y-43151851D01*
X25946291Y-43216763D01*
X25946500Y-43224016D01*
X25946500Y-44078134D01*
X25953255Y-44140316D01*
X26004385Y-44276705D01*
X26009771Y-44283891D01*
X26077630Y-44374435D01*
X26102478Y-44440941D01*
X26087425Y-44510324D01*
X26077632Y-44525562D01*
X26004385Y-44623295D01*
X25953255Y-44759684D01*
X25946500Y-44821866D01*
X25946500Y-45640219D01*
X25945787Y-45653607D01*
X25942251Y-45686695D01*
X14488500Y-45686695D01*
X14488500Y-32986695D01*
X25942251Y-32986695D01*
X25942548Y-32991848D01*
X25942548Y-32991851D01*
X25946291Y-33056763D01*
X25946500Y-33064016D01*
X25946500Y-33918134D01*
X25946869Y-33921531D01*
X25947185Y-33924440D01*
X25953255Y-33980316D01*
X26004385Y-34116705D01*
X26009771Y-34123891D01*
X26077942Y-34214852D01*
X26102790Y-34281358D01*
X26087737Y-34350741D01*
X26077942Y-34365982D01*
X26010214Y-34456351D01*
X26001676Y-34471946D01*
X25956522Y-34592394D01*
X25952895Y-34607649D01*
X25947369Y-34658514D01*
X25947000Y-34665328D01*
X25947000Y-35287885D01*
X25951475Y-35303124D01*
X25952865Y-35304329D01*
X25960548Y-35306000D01*
X30444884Y-35306000D01*
X30460123Y-35301525D01*
X30461328Y-35300135D01*
X30462999Y-35292452D01*
X30462999Y-34665331D01*
X30462629Y-34658510D01*
X30457105Y-34607648D01*
X30453479Y-34592396D01*
X30408324Y-34471946D01*
X30399786Y-34456351D01*
X30332058Y-34365982D01*
X30307210Y-34299475D01*
X30322263Y-34230093D01*
X30332058Y-34214852D01*
X30400229Y-34123891D01*
X30405615Y-34116705D01*
X30456745Y-33980316D01*
X30462516Y-33927194D01*
X35312895Y-33927194D01*
X35321453Y-33983121D01*
X35323841Y-33993146D01*
X35393836Y-34207295D01*
X35397833Y-34216804D01*
X35501861Y-34416640D01*
X35507355Y-34425365D01*
X35642628Y-34605532D01*
X35649471Y-34613239D01*
X35812356Y-34768896D01*
X35820362Y-34775379D01*
X36006485Y-34902343D01*
X36015444Y-34907432D01*
X36219807Y-35002294D01*
X36229475Y-35005851D01*
X36446580Y-35066060D01*
X36456699Y-35067991D01*
X36640595Y-35087644D01*
X36647287Y-35088000D01*
X37047885Y-35088000D01*
X37063124Y-35083525D01*
X37064329Y-35082135D01*
X37066000Y-35074452D01*
X37066000Y-35069885D01*
X37574000Y-35069885D01*
X37578475Y-35085124D01*
X37579865Y-35086329D01*
X37587548Y-35088000D01*
X37976145Y-35088000D01*
X37981318Y-35087788D01*
X38148687Y-35074027D01*
X38158867Y-35072342D01*
X38377377Y-35017456D01*
X38387128Y-35014136D01*
X38593749Y-34924296D01*
X38602824Y-34919430D01*
X38791990Y-34797052D01*
X38800161Y-34790760D01*
X38966800Y-34639131D01*
X38973825Y-34631598D01*
X39113466Y-34454782D01*
X39119162Y-34446209D01*
X39228052Y-34248955D01*
X39232273Y-34239560D01*
X39307481Y-34027180D01*
X39310113Y-34017217D01*
X39326148Y-33927194D01*
X47812895Y-33927194D01*
X47821453Y-33983121D01*
X47823841Y-33993146D01*
X47893836Y-34207295D01*
X47897833Y-34216804D01*
X48001861Y-34416640D01*
X48007355Y-34425365D01*
X48142628Y-34605532D01*
X48149471Y-34613239D01*
X48312356Y-34768896D01*
X48320362Y-34775379D01*
X48506485Y-34902343D01*
X48515444Y-34907432D01*
X48719807Y-35002294D01*
X48729475Y-35005851D01*
X48946580Y-35066060D01*
X48956699Y-35067991D01*
X49140595Y-35087644D01*
X49147287Y-35088000D01*
X49547885Y-35088000D01*
X49563124Y-35083525D01*
X49564329Y-35082135D01*
X49566000Y-35074452D01*
X49566000Y-35069885D01*
X50074000Y-35069885D01*
X50078475Y-35085124D01*
X50079865Y-35086329D01*
X50087548Y-35088000D01*
X50476145Y-35088000D01*
X50481318Y-35087788D01*
X50648687Y-35074027D01*
X50658867Y-35072342D01*
X50877377Y-35017456D01*
X50887128Y-35014136D01*
X51093749Y-34924296D01*
X51102824Y-34919430D01*
X51291990Y-34797052D01*
X51300161Y-34790760D01*
X51466800Y-34639131D01*
X51473825Y-34631598D01*
X51613466Y-34454782D01*
X51619162Y-34446209D01*
X51728052Y-34248955D01*
X51732273Y-34239560D01*
X51807481Y-34027180D01*
X51810113Y-34017217D01*
X51826212Y-33926837D01*
X51824752Y-33913540D01*
X51810197Y-33909000D01*
X50092115Y-33909000D01*
X50076876Y-33913475D01*
X50075671Y-33914865D01*
X50074000Y-33922548D01*
X50074000Y-35069885D01*
X49566000Y-35069885D01*
X49566000Y-33927115D01*
X49561525Y-33911876D01*
X49560135Y-33910671D01*
X49552452Y-33909000D01*
X47828226Y-33909000D01*
X47814882Y-33912918D01*
X47812895Y-33927194D01*
X39326148Y-33927194D01*
X39326212Y-33926837D01*
X39324752Y-33913540D01*
X39310197Y-33909000D01*
X37592115Y-33909000D01*
X37576876Y-33913475D01*
X37575671Y-33914865D01*
X37574000Y-33922548D01*
X37574000Y-35069885D01*
X37066000Y-35069885D01*
X37066000Y-33927115D01*
X37061525Y-33911876D01*
X37060135Y-33910671D01*
X37052452Y-33909000D01*
X35328226Y-33909000D01*
X35314882Y-33912918D01*
X35312895Y-33927194D01*
X30462516Y-33927194D01*
X30462815Y-33924440D01*
X30463131Y-33921531D01*
X30463500Y-33918134D01*
X30463500Y-33383163D01*
X35313788Y-33383163D01*
X35315248Y-33396460D01*
X35329803Y-33401000D01*
X37047885Y-33401000D01*
X37063124Y-33396525D01*
X37064329Y-33395135D01*
X37066000Y-33387452D01*
X37066000Y-33382885D01*
X37574000Y-33382885D01*
X37578475Y-33398124D01*
X37579865Y-33399329D01*
X37587548Y-33401000D01*
X39311774Y-33401000D01*
X39325118Y-33397082D01*
X39327055Y-33383163D01*
X47813788Y-33383163D01*
X47815248Y-33396460D01*
X47829803Y-33401000D01*
X49547885Y-33401000D01*
X49563124Y-33396525D01*
X49564329Y-33395135D01*
X49566000Y-33387452D01*
X49566000Y-33382885D01*
X50074000Y-33382885D01*
X50078475Y-33398124D01*
X50079865Y-33399329D01*
X50087548Y-33401000D01*
X51811774Y-33401000D01*
X51825118Y-33397082D01*
X51827105Y-33382806D01*
X51818547Y-33326879D01*
X51816159Y-33316854D01*
X51746164Y-33102705D01*
X51742167Y-33093196D01*
X51638139Y-32893360D01*
X51632645Y-32884635D01*
X51497372Y-32704468D01*
X51490529Y-32696761D01*
X51327644Y-32541104D01*
X51319638Y-32534621D01*
X51133515Y-32407657D01*
X51124556Y-32402568D01*
X50920193Y-32307706D01*
X50910525Y-32304149D01*
X50693420Y-32243940D01*
X50683301Y-32242009D01*
X50499405Y-32222356D01*
X50492713Y-32222000D01*
X50092115Y-32222000D01*
X50076876Y-32226475D01*
X50075671Y-32227865D01*
X50074000Y-32235548D01*
X50074000Y-33382885D01*
X49566000Y-33382885D01*
X49566000Y-32240115D01*
X49561525Y-32224876D01*
X49560135Y-32223671D01*
X49552452Y-32222000D01*
X49163855Y-32222000D01*
X49158682Y-32222212D01*
X48991313Y-32235973D01*
X48981133Y-32237658D01*
X48762623Y-32292544D01*
X48752872Y-32295864D01*
X48546251Y-32385704D01*
X48537176Y-32390570D01*
X48348010Y-32512948D01*
X48339839Y-32519240D01*
X48173200Y-32670869D01*
X48166175Y-32678402D01*
X48026534Y-32855218D01*
X48020838Y-32863791D01*
X47911948Y-33061045D01*
X47907727Y-33070440D01*
X47832519Y-33282820D01*
X47829887Y-33292783D01*
X47813788Y-33383163D01*
X39327055Y-33383163D01*
X39327105Y-33382806D01*
X39318547Y-33326879D01*
X39316159Y-33316854D01*
X39246164Y-33102705D01*
X39242167Y-33093196D01*
X39138139Y-32893360D01*
X39132645Y-32884635D01*
X38997372Y-32704468D01*
X38990529Y-32696761D01*
X38827644Y-32541104D01*
X38819638Y-32534621D01*
X38633515Y-32407657D01*
X38624556Y-32402568D01*
X38420193Y-32307706D01*
X38410525Y-32304149D01*
X38193420Y-32243940D01*
X38183301Y-32242009D01*
X37999405Y-32222356D01*
X37992713Y-32222000D01*
X37592115Y-32222000D01*
X37576876Y-32226475D01*
X37575671Y-32227865D01*
X37574000Y-32235548D01*
X37574000Y-33382885D01*
X37066000Y-33382885D01*
X37066000Y-32240115D01*
X37061525Y-32224876D01*
X37060135Y-32223671D01*
X37052452Y-32222000D01*
X36663855Y-32222000D01*
X36658682Y-32222212D01*
X36491313Y-32235973D01*
X36481133Y-32237658D01*
X36262623Y-32292544D01*
X36252872Y-32295864D01*
X36046251Y-32385704D01*
X36037176Y-32390570D01*
X35848010Y-32512948D01*
X35839839Y-32519240D01*
X35673200Y-32670869D01*
X35666175Y-32678402D01*
X35526534Y-32855218D01*
X35520838Y-32863791D01*
X35411948Y-33061045D01*
X35407727Y-33070440D01*
X35332519Y-33282820D01*
X35329887Y-33292783D01*
X35313788Y-33383163D01*
X30463500Y-33383163D01*
X30463500Y-32121866D01*
X30456745Y-32059684D01*
X30405615Y-31923295D01*
X30332370Y-31825564D01*
X30307522Y-31759059D01*
X30322575Y-31689676D01*
X30332370Y-31674435D01*
X30400229Y-31583891D01*
X30405615Y-31576705D01*
X30456745Y-31440316D01*
X30463500Y-31378134D01*
X30463500Y-29581866D01*
X30456745Y-29519684D01*
X30405615Y-29383295D01*
X30332370Y-29285564D01*
X30307522Y-29219059D01*
X30322575Y-29149676D01*
X30332370Y-29134435D01*
X30400229Y-29043891D01*
X30405615Y-29036705D01*
X30456745Y-28900316D01*
X30463500Y-28838134D01*
X30463500Y-27041866D01*
X30456745Y-26979684D01*
X30405615Y-26843295D01*
X30332370Y-26745564D01*
X30307522Y-26679059D01*
X30322575Y-26609676D01*
X30332370Y-26594435D01*
X30400229Y-26503891D01*
X30405615Y-26496705D01*
X30456745Y-26360316D01*
X30463500Y-26298134D01*
X30463500Y-24501866D01*
X30456745Y-24439684D01*
X30405615Y-24303295D01*
X30355422Y-24236323D01*
X30332058Y-24205148D01*
X30307210Y-24138642D01*
X30322263Y-24069259D01*
X30332058Y-24054018D01*
X30399786Y-23963649D01*
X30408324Y-23948054D01*
X30453478Y-23827606D01*
X30457105Y-23812351D01*
X30462631Y-23761486D01*
X30463000Y-23754672D01*
X30463000Y-23132115D01*
X30458525Y-23116876D01*
X30457135Y-23115671D01*
X30449452Y-23114000D01*
X25965116Y-23114000D01*
X25949877Y-23118475D01*
X25948672Y-23119865D01*
X25947001Y-23127548D01*
X25947001Y-23754669D01*
X25947371Y-23761490D01*
X25952895Y-23812352D01*
X25956521Y-23827604D01*
X26001676Y-23948054D01*
X26010214Y-23963649D01*
X26077942Y-24054018D01*
X26102790Y-24120525D01*
X26087737Y-24189907D01*
X26077942Y-24205148D01*
X26054578Y-24236323D01*
X26004385Y-24303295D01*
X25953255Y-24439684D01*
X25946500Y-24501866D01*
X25946500Y-25320219D01*
X25945787Y-25333607D01*
X25942251Y-25366695D01*
X25942548Y-25371848D01*
X25942548Y-25371851D01*
X25946291Y-25436763D01*
X25946500Y-25444016D01*
X25946500Y-26298134D01*
X25953255Y-26360316D01*
X26004385Y-26496705D01*
X26009771Y-26503891D01*
X26077630Y-26594435D01*
X26102478Y-26660941D01*
X26087425Y-26730324D01*
X26077632Y-26745562D01*
X26004385Y-26843295D01*
X25953255Y-26979684D01*
X25946500Y-27041866D01*
X25946500Y-27860219D01*
X25945787Y-27873607D01*
X25942251Y-27906695D01*
X25942548Y-27911848D01*
X25942548Y-27911851D01*
X25946291Y-27976763D01*
X25946500Y-27984016D01*
X25946500Y-28838134D01*
X25953255Y-28900316D01*
X26004385Y-29036705D01*
X26009771Y-29043891D01*
X26077630Y-29134435D01*
X26102478Y-29200941D01*
X26087425Y-29270324D01*
X26077632Y-29285562D01*
X26004385Y-29383295D01*
X25953255Y-29519684D01*
X25946500Y-29581866D01*
X25946500Y-30400219D01*
X25945787Y-30413607D01*
X25942251Y-30446695D01*
X25942548Y-30451848D01*
X25942548Y-30451851D01*
X25946291Y-30516763D01*
X25946500Y-30524016D01*
X25946500Y-31378134D01*
X25953255Y-31440316D01*
X26004385Y-31576705D01*
X26009771Y-31583891D01*
X26077630Y-31674435D01*
X26102478Y-31740941D01*
X26087425Y-31810324D01*
X26077632Y-31825562D01*
X26004385Y-31923295D01*
X25953255Y-32059684D01*
X25946500Y-32121866D01*
X25946500Y-32940219D01*
X25945787Y-32953607D01*
X25942251Y-32986695D01*
X14488500Y-32986695D01*
X14488500Y-8403325D01*
X14508502Y-8335204D01*
X14562158Y-8288711D01*
X14632432Y-8278607D01*
X14697012Y-8308101D01*
X14735396Y-8367827D01*
X14740021Y-8392344D01*
X14745885Y-8459371D01*
X14802880Y-8672076D01*
X14805205Y-8677061D01*
X14893618Y-8866666D01*
X14893621Y-8866671D01*
X14895944Y-8871653D01*
X14899100Y-8876160D01*
X14899101Y-8876162D01*
X14930228Y-8920615D01*
X15022251Y-9052038D01*
X15177962Y-9207749D01*
X15358346Y-9334056D01*
X15557924Y-9427120D01*
X15770629Y-9484115D01*
X15990000Y-9503307D01*
X16209371Y-9484115D01*
X16422076Y-9427120D01*
X16621654Y-9334056D01*
X16802038Y-9207749D01*
X16957749Y-9052038D01*
X17049773Y-8920615D01*
X17080899Y-8876162D01*
X17080900Y-8876160D01*
X17084056Y-8871653D01*
X17086379Y-8866671D01*
X17086382Y-8866666D01*
X17174795Y-8677061D01*
X17177120Y-8672076D01*
X17234115Y-8459371D01*
X17253307Y-8240000D01*
X19576693Y-8240000D01*
X19595885Y-8459371D01*
X19652880Y-8672076D01*
X19655205Y-8677061D01*
X19743618Y-8866666D01*
X19743621Y-8866671D01*
X19745944Y-8871653D01*
X19749100Y-8876160D01*
X19749101Y-8876162D01*
X19780228Y-8920615D01*
X19872251Y-9052038D01*
X20027962Y-9207749D01*
X20208346Y-9334056D01*
X20407924Y-9427120D01*
X20620629Y-9484115D01*
X20840000Y-9503307D01*
X21059371Y-9484115D01*
X21272076Y-9427120D01*
X21471654Y-9334056D01*
X21652038Y-9207749D01*
X21807749Y-9052038D01*
X21899773Y-8920615D01*
X21930899Y-8876162D01*
X21930900Y-8876160D01*
X21934056Y-8871653D01*
X21936379Y-8866671D01*
X21936382Y-8866666D01*
X22024795Y-8677061D01*
X22027120Y-8672076D01*
X22084115Y-8459371D01*
X22103307Y-8240000D01*
X22084115Y-8020629D01*
X22027120Y-7807924D01*
X21977451Y-7701409D01*
X21936382Y-7613334D01*
X21936379Y-7613329D01*
X21934056Y-7608347D01*
X21930899Y-7603838D01*
X21918895Y-7586695D01*
X25942251Y-7586695D01*
X25942548Y-7591848D01*
X25942548Y-7591851D01*
X25946291Y-7656763D01*
X25946500Y-7664016D01*
X25946500Y-8518134D01*
X25953255Y-8580316D01*
X26004385Y-8716705D01*
X26009771Y-8723891D01*
X26077942Y-8814852D01*
X26102790Y-8881358D01*
X26087737Y-8950741D01*
X26077942Y-8965982D01*
X26010214Y-9056351D01*
X26001676Y-9071946D01*
X25956522Y-9192394D01*
X25952895Y-9207649D01*
X25947369Y-9258514D01*
X25947000Y-9265328D01*
X25947000Y-9887885D01*
X25951475Y-9903124D01*
X25952865Y-9904329D01*
X25960548Y-9906000D01*
X30444884Y-9906000D01*
X30460123Y-9901525D01*
X30461328Y-9900135D01*
X30462999Y-9892452D01*
X30462999Y-9265331D01*
X30462629Y-9258510D01*
X30457105Y-9207648D01*
X30453479Y-9192396D01*
X30408324Y-9071946D01*
X30399786Y-9056351D01*
X30332058Y-8965982D01*
X30307210Y-8899475D01*
X30322263Y-8830093D01*
X30332058Y-8814852D01*
X30400229Y-8723891D01*
X30405615Y-8716705D01*
X30456745Y-8580316D01*
X30463500Y-8518134D01*
X30463500Y-6721866D01*
X30456745Y-6659684D01*
X30405615Y-6523295D01*
X30332370Y-6425564D01*
X30307522Y-6359059D01*
X30322575Y-6289676D01*
X30332370Y-6274435D01*
X30400229Y-6183891D01*
X30405615Y-6176705D01*
X30456745Y-6040316D01*
X30463500Y-5978134D01*
X30463500Y-4181866D01*
X30456745Y-4119684D01*
X30405615Y-3983295D01*
X30318261Y-3866739D01*
X30201705Y-3779385D01*
X30065316Y-3728255D01*
X30003134Y-3721500D01*
X27319985Y-3721500D01*
X27318446Y-3721491D01*
X27215081Y-3720228D01*
X27215079Y-3720228D01*
X27209911Y-3720165D01*
X27204797Y-3720948D01*
X27201289Y-3721193D01*
X27192496Y-3721500D01*
X26406866Y-3721500D01*
X26344684Y-3728255D01*
X26208295Y-3779385D01*
X26091739Y-3866739D01*
X26004385Y-3983295D01*
X25953255Y-4119684D01*
X25946500Y-4181866D01*
X25946500Y-5000219D01*
X25945787Y-5013607D01*
X25942251Y-5046695D01*
X25942548Y-5051848D01*
X25942548Y-5051851D01*
X25946291Y-5116763D01*
X25946500Y-5124016D01*
X25946500Y-5978134D01*
X25953255Y-6040316D01*
X26004385Y-6176705D01*
X26009771Y-6183891D01*
X26077630Y-6274435D01*
X26102478Y-6340941D01*
X26087425Y-6410324D01*
X26077632Y-6425562D01*
X26004385Y-6523295D01*
X25953255Y-6659684D01*
X25946500Y-6721866D01*
X25946500Y-7540219D01*
X25945787Y-7553607D01*
X25942251Y-7586695D01*
X21918895Y-7586695D01*
X21810908Y-7432473D01*
X21810906Y-7432470D01*
X21807749Y-7427962D01*
X21652038Y-7272251D01*
X21645035Y-7267347D01*
X21495571Y-7162691D01*
X21471654Y-7145944D01*
X21272076Y-7052880D01*
X21059371Y-6995885D01*
X20840000Y-6976693D01*
X20620629Y-6995885D01*
X20407924Y-7052880D01*
X20329130Y-7089622D01*
X20213334Y-7143618D01*
X20213329Y-7143621D01*
X20208347Y-7145944D01*
X20203840Y-7149100D01*
X20203838Y-7149101D01*
X20032473Y-7269092D01*
X20032470Y-7269094D01*
X20027962Y-7272251D01*
X19872251Y-7427962D01*
X19869094Y-7432470D01*
X19869092Y-7432473D01*
X19749101Y-7603838D01*
X19745944Y-7608347D01*
X19743621Y-7613329D01*
X19743618Y-7613334D01*
X19702549Y-7701409D01*
X19652880Y-7807924D01*
X19595885Y-8020629D01*
X19576693Y-8240000D01*
X17253307Y-8240000D01*
X17234115Y-8020629D01*
X17177120Y-7807924D01*
X17127451Y-7701409D01*
X17086382Y-7613334D01*
X17086379Y-7613329D01*
X17084056Y-7608347D01*
X17080899Y-7603838D01*
X16960908Y-7432473D01*
X16960906Y-7432470D01*
X16957749Y-7427962D01*
X16802038Y-7272251D01*
X16795035Y-7267347D01*
X16645571Y-7162691D01*
X16621654Y-7145944D01*
X16422076Y-7052880D01*
X16209371Y-6995885D01*
X15990000Y-6976693D01*
X15770629Y-6995885D01*
X15557924Y-7052880D01*
X15479130Y-7089622D01*
X15363334Y-7143618D01*
X15363329Y-7143621D01*
X15358347Y-7145944D01*
X15353840Y-7149100D01*
X15353838Y-7149101D01*
X15182473Y-7269092D01*
X15182470Y-7269094D01*
X15177962Y-7272251D01*
X15022251Y-7427962D01*
X15019094Y-7432470D01*
X15019092Y-7432473D01*
X14899101Y-7603838D01*
X14895944Y-7608347D01*
X14893621Y-7613329D01*
X14893618Y-7613334D01*
X14852549Y-7701409D01*
X14802880Y-7807924D01*
X14745885Y-8020629D01*
X14745406Y-8026106D01*
X14740021Y-8087656D01*
X14714158Y-8153775D01*
X14656654Y-8195414D01*
X14585767Y-8199355D01*
X14524002Y-8164346D01*
X14490970Y-8101502D01*
X14488500Y-8076675D01*
X14488500Y-7894759D01*
X14489237Y-7881151D01*
X14492659Y-7849655D01*
X14492659Y-7849651D01*
X14493324Y-7843530D01*
X14488950Y-7793528D01*
X14488621Y-7788703D01*
X14488500Y-7786232D01*
X14488500Y-7783150D01*
X14484309Y-7740408D01*
X14484187Y-7739093D01*
X14479884Y-7689908D01*
X14476087Y-7646506D01*
X14474600Y-7641387D01*
X14474080Y-7636086D01*
X14447218Y-7547113D01*
X14446862Y-7545913D01*
X14445208Y-7540219D01*
X14420909Y-7456582D01*
X14418455Y-7451848D01*
X14416916Y-7446750D01*
X14373316Y-7364750D01*
X14372702Y-7363582D01*
X14332726Y-7286460D01*
X14332725Y-7286459D01*
X14329892Y-7280993D01*
X14326569Y-7276830D01*
X14324066Y-7272123D01*
X14265263Y-7200024D01*
X14264500Y-7199079D01*
X14233261Y-7159946D01*
X14230770Y-7157455D01*
X14230120Y-7156728D01*
X14226408Y-7152382D01*
X14202955Y-7123627D01*
X14199065Y-7118857D01*
X14194323Y-7114934D01*
X14194321Y-7114932D01*
X14163727Y-7089622D01*
X14154947Y-7081632D01*
X12248784Y-5175469D01*
X14277095Y-5175469D01*
X14277392Y-5180622D01*
X14277392Y-5180625D01*
X14283067Y-5279041D01*
X14290427Y-5406697D01*
X14291564Y-5411743D01*
X14291565Y-5411749D01*
X14323741Y-5554523D01*
X14341346Y-5632642D01*
X14343288Y-5637424D01*
X14343289Y-5637428D01*
X14426540Y-5842450D01*
X14428484Y-5847237D01*
X14549501Y-6044719D01*
X14701147Y-6219784D01*
X14879349Y-6367730D01*
X15079322Y-6484584D01*
X15295694Y-6567209D01*
X15300760Y-6568240D01*
X15300761Y-6568240D01*
X15353846Y-6579040D01*
X15522656Y-6613385D01*
X15653324Y-6618176D01*
X15748949Y-6621683D01*
X15748953Y-6621683D01*
X15754113Y-6621872D01*
X15759233Y-6621216D01*
X15759235Y-6621216D01*
X15832270Y-6611860D01*
X15983847Y-6592442D01*
X15988795Y-6590957D01*
X15988802Y-6590956D01*
X16200747Y-6527369D01*
X16205690Y-6525886D01*
X16210979Y-6523295D01*
X16409049Y-6426262D01*
X16409052Y-6426260D01*
X16413684Y-6423991D01*
X16602243Y-6289494D01*
X16766303Y-6126005D01*
X16901458Y-5937917D01*
X16948641Y-5842450D01*
X17001784Y-5734922D01*
X17001785Y-5734920D01*
X17004078Y-5730280D01*
X17071408Y-5508671D01*
X17101640Y-5279041D01*
X17103327Y-5210000D01*
X17100488Y-5175469D01*
X19727095Y-5175469D01*
X19727392Y-5180622D01*
X19727392Y-5180625D01*
X19733067Y-5279041D01*
X19740427Y-5406697D01*
X19741564Y-5411743D01*
X19741565Y-5411749D01*
X19773741Y-5554523D01*
X19791346Y-5632642D01*
X19793288Y-5637424D01*
X19793289Y-5637428D01*
X19876540Y-5842450D01*
X19878484Y-5847237D01*
X19999501Y-6044719D01*
X20151147Y-6219784D01*
X20329349Y-6367730D01*
X20529322Y-6484584D01*
X20745694Y-6567209D01*
X20750760Y-6568240D01*
X20750761Y-6568240D01*
X20803846Y-6579040D01*
X20972656Y-6613385D01*
X21103324Y-6618176D01*
X21198949Y-6621683D01*
X21198953Y-6621683D01*
X21204113Y-6621872D01*
X21209233Y-6621216D01*
X21209235Y-6621216D01*
X21282270Y-6611860D01*
X21433847Y-6592442D01*
X21438795Y-6590957D01*
X21438802Y-6590956D01*
X21650747Y-6527369D01*
X21655690Y-6525886D01*
X21660979Y-6523295D01*
X21859049Y-6426262D01*
X21859052Y-6426260D01*
X21863684Y-6423991D01*
X22052243Y-6289494D01*
X22216303Y-6126005D01*
X22351458Y-5937917D01*
X22398641Y-5842450D01*
X22451784Y-5734922D01*
X22451785Y-5734920D01*
X22454078Y-5730280D01*
X22521408Y-5508671D01*
X22551640Y-5279041D01*
X22553327Y-5210000D01*
X22545960Y-5120388D01*
X22534773Y-4984318D01*
X22534772Y-4984312D01*
X22534349Y-4979167D01*
X22477925Y-4754533D01*
X22475866Y-4749797D01*
X22387630Y-4546868D01*
X22387628Y-4546865D01*
X22385570Y-4542131D01*
X22259764Y-4347665D01*
X22248597Y-4335392D01*
X22209467Y-4292389D01*
X22103887Y-4176358D01*
X22099836Y-4173159D01*
X22099832Y-4173155D01*
X21926177Y-4036011D01*
X21926172Y-4036008D01*
X21922123Y-4032810D01*
X21917607Y-4030317D01*
X21917604Y-4030315D01*
X21723879Y-3923373D01*
X21723875Y-3923371D01*
X21719355Y-3920876D01*
X21714486Y-3919152D01*
X21714482Y-3919150D01*
X21505903Y-3845288D01*
X21505899Y-3845287D01*
X21501028Y-3843562D01*
X21495935Y-3842655D01*
X21495932Y-3842654D01*
X21278095Y-3803851D01*
X21278089Y-3803850D01*
X21273006Y-3802945D01*
X21200096Y-3802054D01*
X21046581Y-3800179D01*
X21046579Y-3800179D01*
X21041411Y-3800116D01*
X20812464Y-3835150D01*
X20592314Y-3907106D01*
X20587726Y-3909494D01*
X20587722Y-3909496D01*
X20436610Y-3988160D01*
X20386872Y-4014052D01*
X20382739Y-4017155D01*
X20382736Y-4017157D01*
X20205790Y-4150012D01*
X20201655Y-4153117D01*
X20041639Y-4320564D01*
X20038725Y-4324836D01*
X20038724Y-4324837D01*
X20023152Y-4347665D01*
X19911119Y-4511899D01*
X19813602Y-4721981D01*
X19751707Y-4945169D01*
X19727095Y-5175469D01*
X17100488Y-5175469D01*
X17095960Y-5120388D01*
X17084773Y-4984318D01*
X17084772Y-4984312D01*
X17084349Y-4979167D01*
X17027925Y-4754533D01*
X17025866Y-4749797D01*
X16937630Y-4546868D01*
X16937628Y-4546865D01*
X16935570Y-4542131D01*
X16809764Y-4347665D01*
X16798597Y-4335392D01*
X16759467Y-4292389D01*
X16653887Y-4176358D01*
X16649836Y-4173159D01*
X16649832Y-4173155D01*
X16476177Y-4036011D01*
X16476172Y-4036008D01*
X16472123Y-4032810D01*
X16467607Y-4030317D01*
X16467604Y-4030315D01*
X16273879Y-3923373D01*
X16273875Y-3923371D01*
X16269355Y-3920876D01*
X16264486Y-3919152D01*
X16264482Y-3919150D01*
X16055903Y-3845288D01*
X16055899Y-3845287D01*
X16051028Y-3843562D01*
X16045935Y-3842655D01*
X16045932Y-3842654D01*
X15828095Y-3803851D01*
X15828089Y-3803850D01*
X15823006Y-3802945D01*
X15750096Y-3802054D01*
X15596581Y-3800179D01*
X15596579Y-3800179D01*
X15591411Y-3800116D01*
X15362464Y-3835150D01*
X15142314Y-3907106D01*
X15137726Y-3909494D01*
X15137722Y-3909496D01*
X14986610Y-3988160D01*
X14936872Y-4014052D01*
X14932739Y-4017155D01*
X14932736Y-4017157D01*
X14755790Y-4150012D01*
X14751655Y-4153117D01*
X14591639Y-4320564D01*
X14588725Y-4324836D01*
X14588724Y-4324837D01*
X14573152Y-4347665D01*
X14461119Y-4511899D01*
X14363602Y-4721981D01*
X14301707Y-4945169D01*
X14277095Y-5175469D01*
X12248784Y-5175469D01*
X11483936Y-4410621D01*
X11474834Y-4400478D01*
X11454978Y-4375782D01*
X11451113Y-4370975D01*
X11412659Y-4338708D01*
X11409012Y-4335528D01*
X11407200Y-4333885D01*
X11405006Y-4331691D01*
X11371732Y-4304358D01*
X11370934Y-4303696D01*
X11299607Y-4243846D01*
X11294937Y-4241278D01*
X11290820Y-4237897D01*
X11208995Y-4194023D01*
X11207836Y-4193394D01*
X11131700Y-4151538D01*
X11131692Y-4151535D01*
X11126294Y-4148567D01*
X11121212Y-4146955D01*
X11116518Y-4144438D01*
X11027550Y-4117238D01*
X11026522Y-4116918D01*
X10937775Y-4088765D01*
X10932479Y-4088171D01*
X10927383Y-4086613D01*
X10925574Y-4086429D01*
X10864190Y-4053291D01*
X10834877Y-4008001D01*
X10828767Y-3991703D01*
X10825615Y-3983295D01*
X10738261Y-3866739D01*
X10621705Y-3779385D01*
X10485316Y-3728255D01*
X10423134Y-3721500D01*
X9539985Y-3721500D01*
X9538446Y-3721491D01*
X9435081Y-3720228D01*
X9435079Y-3720228D01*
X9429911Y-3720165D01*
X9424797Y-3720948D01*
X9421289Y-3721193D01*
X9412496Y-3721500D01*
X6826866Y-3721500D01*
X6764684Y-3728255D01*
X6628295Y-3779385D01*
X6511739Y-3866739D01*
X6424385Y-3983295D01*
X6373255Y-4119684D01*
X6366500Y-4181866D01*
X6366500Y-5978134D01*
X6373255Y-6040316D01*
X6424385Y-6176705D01*
X6429771Y-6183891D01*
X6497630Y-6274435D01*
X6522478Y-6340941D01*
X6507425Y-6410324D01*
X6497632Y-6425562D01*
X6424385Y-6523295D01*
X6373255Y-6659684D01*
X6366500Y-6721866D01*
X6366500Y-8518134D01*
X6373255Y-8580316D01*
X6424385Y-8716705D01*
X6429771Y-8723891D01*
X6497942Y-8814852D01*
X6522790Y-8881358D01*
X6507737Y-8950741D01*
X6497942Y-8965982D01*
X6430214Y-9056351D01*
X6421676Y-9071946D01*
X6376522Y-9192394D01*
X6372895Y-9207649D01*
X6367369Y-9258514D01*
X6367000Y-9265328D01*
X6367000Y-9887885D01*
X6371475Y-9903124D01*
X6372865Y-9904329D01*
X6380548Y-9906000D01*
X10864884Y-9906000D01*
X10880123Y-9901525D01*
X10881328Y-9900135D01*
X10882999Y-9892452D01*
X10882999Y-9265331D01*
X10882629Y-9258510D01*
X10877105Y-9207648D01*
X10873479Y-9192396D01*
X10828324Y-9071946D01*
X10819786Y-9056351D01*
X10752058Y-8965982D01*
X10727210Y-8899475D01*
X10742263Y-8830093D01*
X10752058Y-8814852D01*
X10820229Y-8723891D01*
X10825615Y-8716705D01*
X10876745Y-8580316D01*
X10883500Y-8518134D01*
X10883500Y-7717856D01*
X10884578Y-7701409D01*
X10886092Y-7689908D01*
X10886529Y-7686590D01*
X10887479Y-7647720D01*
X10888074Y-7623365D01*
X10888074Y-7623361D01*
X10888156Y-7620000D01*
X10883924Y-7568524D01*
X10883500Y-7558200D01*
X10883500Y-6966844D01*
X10903502Y-6898723D01*
X10957158Y-6852230D01*
X11027432Y-6842126D01*
X11092012Y-6871620D01*
X11098595Y-6877749D01*
X12434595Y-8213748D01*
X12468620Y-8276060D01*
X12471500Y-8302843D01*
X12471500Y-44114629D01*
X12451498Y-44182750D01*
X12397842Y-44229243D01*
X12327568Y-44239347D01*
X12262988Y-44209853D01*
X12256405Y-44203724D01*
X10920405Y-42867724D01*
X10886379Y-42805412D01*
X10883500Y-42778629D01*
X10883500Y-42281866D01*
X10876745Y-42219684D01*
X10825615Y-42083295D01*
X10752370Y-41985564D01*
X10727522Y-41919059D01*
X10742575Y-41849676D01*
X10752370Y-41834435D01*
X10764792Y-41817861D01*
X10825615Y-41736705D01*
X10876745Y-41600316D01*
X10883500Y-41538134D01*
X10883500Y-40737856D01*
X10884578Y-40721409D01*
X10886092Y-40709908D01*
X10886529Y-40706590D01*
X10888156Y-40640000D01*
X10883924Y-40588524D01*
X10883500Y-40578200D01*
X10883500Y-39741866D01*
X10876745Y-39679684D01*
X10825615Y-39543295D01*
X10752370Y-39445564D01*
X10727522Y-39379059D01*
X10742575Y-39309676D01*
X10752370Y-39294435D01*
X10789690Y-39244639D01*
X10825615Y-39196705D01*
X10876745Y-39060316D01*
X10882815Y-39004440D01*
X10883131Y-39001531D01*
X10883500Y-38998134D01*
X10883500Y-38197856D01*
X10884578Y-38181409D01*
X10886092Y-38169908D01*
X10886529Y-38166590D01*
X10887171Y-38140319D01*
X10888074Y-38103365D01*
X10888074Y-38103361D01*
X10888156Y-38100000D01*
X10883924Y-38048524D01*
X10883500Y-38038200D01*
X10883500Y-37201866D01*
X10876745Y-37139684D01*
X10825615Y-37003295D01*
X10752058Y-36905148D01*
X10727210Y-36838642D01*
X10742263Y-36769259D01*
X10752058Y-36754018D01*
X10819786Y-36663649D01*
X10828324Y-36648054D01*
X10873478Y-36527606D01*
X10877105Y-36512351D01*
X10882631Y-36461486D01*
X10883000Y-36454672D01*
X10883000Y-35832115D01*
X10878525Y-35816876D01*
X10877135Y-35815671D01*
X10869452Y-35814000D01*
X6385116Y-35814000D01*
X6369877Y-35818475D01*
X6368672Y-35819865D01*
X6367001Y-35827548D01*
X6367001Y-36454669D01*
X6367371Y-36461490D01*
X6372895Y-36512352D01*
X6376521Y-36527604D01*
X6421676Y-36648054D01*
X6430214Y-36663649D01*
X6497942Y-36754018D01*
X6522790Y-36820525D01*
X6507737Y-36889907D01*
X6497942Y-36905148D01*
X6424385Y-37003295D01*
X6373255Y-37139684D01*
X6366500Y-37201866D01*
X6366500Y-38998134D01*
X6366869Y-39001531D01*
X6367185Y-39004440D01*
X6373255Y-39060316D01*
X6424385Y-39196705D01*
X6460310Y-39244639D01*
X6497630Y-39294435D01*
X6522478Y-39360941D01*
X6507425Y-39430324D01*
X6497632Y-39445562D01*
X6424385Y-39543295D01*
X6373255Y-39679684D01*
X6366500Y-39741866D01*
X6366500Y-41538134D01*
X6373255Y-41600316D01*
X6424385Y-41736705D01*
X6485208Y-41817861D01*
X6497630Y-41834435D01*
X6522478Y-41900941D01*
X6507425Y-41970324D01*
X6497632Y-41985562D01*
X6424385Y-42083295D01*
X6373255Y-42219684D01*
X6366500Y-42281866D01*
X6366500Y-44078134D01*
X6373255Y-44140316D01*
X6424385Y-44276705D01*
X6429771Y-44283891D01*
X6497630Y-44374435D01*
X6522478Y-44440941D01*
X6507425Y-44510324D01*
X6497632Y-44525562D01*
X6424385Y-44623295D01*
X6373255Y-44759684D01*
X6366500Y-44821866D01*
X6366500Y-46618134D01*
X6373255Y-46680316D01*
X6424385Y-46816705D01*
X6442573Y-46840973D01*
X6497942Y-46914852D01*
X6522790Y-46981358D01*
X6507737Y-47050741D01*
X6497942Y-47065982D01*
X6430214Y-47156351D01*
X6421676Y-47171946D01*
X6376522Y-47292394D01*
X6372895Y-47307649D01*
X6367369Y-47358514D01*
X6367000Y-47365328D01*
X6367000Y-47987885D01*
X6371475Y-48003124D01*
X6372865Y-48004329D01*
X6380548Y-48006000D01*
X9653000Y-48006000D01*
X9721121Y-48026002D01*
X9767614Y-48079658D01*
X9779000Y-48132000D01*
X9779000Y-48388000D01*
X9758998Y-48456121D01*
X9705342Y-48502614D01*
X9653000Y-48514000D01*
X6385116Y-48514000D01*
X6369877Y-48518475D01*
X6368672Y-48519865D01*
X6367001Y-48527548D01*
X6367001Y-49154669D01*
X6367371Y-49161490D01*
X6372895Y-49212352D01*
X6376521Y-49227604D01*
X6421676Y-49348054D01*
X6430214Y-49363649D01*
X6497942Y-49454018D01*
X6522790Y-49520525D01*
X6507737Y-49589907D01*
X6497942Y-49605148D01*
X6474578Y-49636323D01*
X6424385Y-49703295D01*
X6373255Y-49839684D01*
X6366500Y-49901866D01*
X6366500Y-51698134D01*
X6373255Y-51760316D01*
X6424385Y-51896705D01*
X6496046Y-51992322D01*
X6497630Y-51994435D01*
X6522478Y-52060941D01*
X6507425Y-52130324D01*
X6497632Y-52145562D01*
X6424385Y-52243295D01*
X6373255Y-52379684D01*
X6366500Y-52441866D01*
X6366500Y-54238134D01*
X508500Y-54238134D01*
X508500Y-39329681D01*
X1667000Y-39329681D01*
X1667077Y-39332733D01*
X1668233Y-39341945D01*
X1705162Y-39525091D01*
X1708752Y-39536833D01*
X1779978Y-39707943D01*
X1785778Y-39718759D01*
X1888885Y-39872779D01*
X1896678Y-39882266D01*
X2027734Y-40013322D01*
X2037221Y-40021115D01*
X2191241Y-40124222D01*
X2202057Y-40130022D01*
X2373167Y-40201248D01*
X2384909Y-40204838D01*
X2568055Y-40241767D01*
X2577267Y-40242923D01*
X2580319Y-40243000D01*
X2902885Y-40243000D01*
X2918124Y-40238525D01*
X2919329Y-40237135D01*
X2921000Y-40229452D01*
X2921000Y-40224885D01*
X3429000Y-40224885D01*
X3433475Y-40240124D01*
X3434865Y-40241329D01*
X3442548Y-40243000D01*
X3769681Y-40243000D01*
X3772733Y-40242923D01*
X3781945Y-40241767D01*
X3965091Y-40204838D01*
X3976833Y-40201248D01*
X4147943Y-40130022D01*
X4158759Y-40124222D01*
X4312779Y-40021115D01*
X4322266Y-40013322D01*
X4453322Y-39882266D01*
X4461115Y-39872779D01*
X4564222Y-39718759D01*
X4570022Y-39707943D01*
X4641248Y-39536833D01*
X4644838Y-39525091D01*
X4681767Y-39341945D01*
X4682923Y-39332733D01*
X4683000Y-39329681D01*
X4683000Y-39007115D01*
X4678525Y-38991876D01*
X4677135Y-38990671D01*
X4669452Y-38989000D01*
X3447115Y-38989000D01*
X3431876Y-38993475D01*
X3430671Y-38994865D01*
X3429000Y-39002548D01*
X3429000Y-40224885D01*
X2921000Y-40224885D01*
X2921000Y-39007115D01*
X2916525Y-38991876D01*
X2915135Y-38990671D01*
X2907452Y-38989000D01*
X1685115Y-38989000D01*
X1669876Y-38993475D01*
X1668671Y-38994865D01*
X1667000Y-39002548D01*
X1667000Y-39329681D01*
X508500Y-39329681D01*
X508500Y-38462885D01*
X1667000Y-38462885D01*
X1671475Y-38478124D01*
X1672865Y-38479329D01*
X1680548Y-38481000D01*
X2902885Y-38481000D01*
X2918124Y-38476525D01*
X2919329Y-38475135D01*
X2921000Y-38467452D01*
X2921000Y-38462885D01*
X3429000Y-38462885D01*
X3433475Y-38478124D01*
X3434865Y-38479329D01*
X3442548Y-38481000D01*
X4664885Y-38481000D01*
X4680124Y-38476525D01*
X4681329Y-38475135D01*
X4683000Y-38467452D01*
X4683000Y-38140319D01*
X4682923Y-38137267D01*
X4681767Y-38128055D01*
X4644838Y-37944909D01*
X4641248Y-37933167D01*
X4570022Y-37762057D01*
X4564222Y-37751241D01*
X4461115Y-37597221D01*
X4453322Y-37587734D01*
X4322266Y-37456678D01*
X4312779Y-37448885D01*
X4158759Y-37345778D01*
X4147943Y-37339978D01*
X3976833Y-37268752D01*
X3965091Y-37265162D01*
X3781945Y-37228233D01*
X3772733Y-37227077D01*
X3769681Y-37227000D01*
X3447115Y-37227000D01*
X3431876Y-37231475D01*
X3430671Y-37232865D01*
X3429000Y-37240548D01*
X3429000Y-38462885D01*
X2921000Y-38462885D01*
X2921000Y-37245115D01*
X2916525Y-37229876D01*
X2915135Y-37228671D01*
X2907452Y-37227000D01*
X2580319Y-37227000D01*
X2577267Y-37227077D01*
X2568055Y-37228233D01*
X2384909Y-37265162D01*
X2373167Y-37268752D01*
X2202057Y-37339978D01*
X2191241Y-37345778D01*
X2037221Y-37448885D01*
X2027734Y-37456678D01*
X1896678Y-37587734D01*
X1888885Y-37597221D01*
X1785778Y-37751241D01*
X1779978Y-37762057D01*
X1708752Y-37933167D01*
X1705162Y-37944909D01*
X1668233Y-38128055D01*
X1667077Y-38137267D01*
X1667000Y-38140319D01*
X1667000Y-38462885D01*
X508500Y-38462885D01*
X508500Y-31331328D01*
X1666500Y-31331328D01*
X1666808Y-31337408D01*
X1667733Y-31341995D01*
X1667733Y-31341996D01*
X1702315Y-31513502D01*
X1705900Y-31531284D01*
X1781905Y-31713873D01*
X1785332Y-31718992D01*
X1785334Y-31718996D01*
X1888496Y-31873099D01*
X1888500Y-31873104D01*
X1891927Y-31878223D01*
X2031777Y-32018073D01*
X2036896Y-32021500D01*
X2036901Y-32021504D01*
X2191004Y-32124666D01*
X2191008Y-32124668D01*
X2196127Y-32128095D01*
X2378716Y-32204100D01*
X2384752Y-32205317D01*
X2384755Y-32205318D01*
X2568004Y-32242267D01*
X2572592Y-32243192D01*
X2578672Y-32243500D01*
X3771328Y-32243500D01*
X3777408Y-32243192D01*
X3781996Y-32242267D01*
X3965245Y-32205318D01*
X3965248Y-32205317D01*
X3971284Y-32204100D01*
X4153873Y-32128095D01*
X4158992Y-32124668D01*
X4158996Y-32124666D01*
X4313099Y-32021504D01*
X4313104Y-32021500D01*
X4318223Y-32018073D01*
X4458073Y-31878223D01*
X4461500Y-31873104D01*
X4461504Y-31873099D01*
X4564666Y-31718996D01*
X4564668Y-31718992D01*
X4568095Y-31713873D01*
X4570464Y-31708182D01*
X4570466Y-31708179D01*
X4627535Y-31571079D01*
X4672179Y-31515876D01*
X4743859Y-31493500D01*
X6305865Y-31493500D01*
X6373986Y-31513502D01*
X6415378Y-31561272D01*
X6416923Y-31560426D01*
X6421235Y-31568302D01*
X6424385Y-31576705D01*
X6429765Y-31583884D01*
X6429767Y-31583887D01*
X6497630Y-31674435D01*
X6522478Y-31740941D01*
X6507425Y-31810324D01*
X6497632Y-31825562D01*
X6424385Y-31923295D01*
X6373255Y-32059684D01*
X6366500Y-32121866D01*
X6366500Y-33918134D01*
X6366869Y-33921531D01*
X6367185Y-33924440D01*
X6373255Y-33980316D01*
X6424385Y-34116705D01*
X6429771Y-34123891D01*
X6497942Y-34214852D01*
X6522790Y-34281358D01*
X6507737Y-34350741D01*
X6497942Y-34365982D01*
X6430214Y-34456351D01*
X6421676Y-34471946D01*
X6376522Y-34592394D01*
X6372895Y-34607649D01*
X6367369Y-34658514D01*
X6367000Y-34665328D01*
X6367000Y-35287885D01*
X6371475Y-35303124D01*
X6372865Y-35304329D01*
X6380548Y-35306000D01*
X10864884Y-35306000D01*
X10880123Y-35301525D01*
X10881328Y-35300135D01*
X10882999Y-35292452D01*
X10882999Y-34665331D01*
X10882629Y-34658510D01*
X10877105Y-34607648D01*
X10873479Y-34592396D01*
X10828324Y-34471946D01*
X10819786Y-34456351D01*
X10752058Y-34365982D01*
X10727210Y-34299475D01*
X10742263Y-34230093D01*
X10752058Y-34214852D01*
X10820229Y-34123891D01*
X10825615Y-34116705D01*
X10876745Y-33980316D01*
X10882815Y-33924440D01*
X10883131Y-33921531D01*
X10883500Y-33918134D01*
X10883500Y-33117856D01*
X10884578Y-33101409D01*
X10886092Y-33089908D01*
X10886529Y-33086590D01*
X10888156Y-33020000D01*
X10883924Y-32968524D01*
X10883500Y-32958200D01*
X10883500Y-32121866D01*
X10876745Y-32059684D01*
X10825615Y-31923295D01*
X10752370Y-31825564D01*
X10727522Y-31759059D01*
X10742575Y-31689676D01*
X10752370Y-31674435D01*
X10820229Y-31583891D01*
X10825615Y-31576705D01*
X10876745Y-31440316D01*
X10883500Y-31378134D01*
X10883500Y-30577856D01*
X10884578Y-30561409D01*
X10886092Y-30549908D01*
X10886529Y-30546590D01*
X10888156Y-30480000D01*
X10883924Y-30428524D01*
X10883500Y-30418200D01*
X10883500Y-29581866D01*
X10876745Y-29519684D01*
X10825615Y-29383295D01*
X10752370Y-29285564D01*
X10727522Y-29219059D01*
X10742575Y-29149676D01*
X10752370Y-29134435D01*
X10820229Y-29043891D01*
X10825615Y-29036705D01*
X10876745Y-28900316D01*
X10883500Y-28838134D01*
X10883500Y-28037856D01*
X10884578Y-28021409D01*
X10886092Y-28009908D01*
X10886529Y-28006590D01*
X10888156Y-27940000D01*
X10883924Y-27888524D01*
X10883500Y-27878200D01*
X10883500Y-27041866D01*
X10876745Y-26979684D01*
X10825615Y-26843295D01*
X10752370Y-26745564D01*
X10727522Y-26679059D01*
X10742575Y-26609676D01*
X10752370Y-26594435D01*
X10820229Y-26503891D01*
X10825615Y-26496705D01*
X10876745Y-26360316D01*
X10883500Y-26298134D01*
X10883500Y-25497856D01*
X10884578Y-25481409D01*
X10886092Y-25469908D01*
X10886529Y-25466590D01*
X10888156Y-25400000D01*
X10883924Y-25348524D01*
X10883500Y-25338200D01*
X10883500Y-24501866D01*
X10876745Y-24439684D01*
X10825615Y-24303295D01*
X10752370Y-24205564D01*
X10727522Y-24139059D01*
X10742575Y-24069676D01*
X10752370Y-24054435D01*
X10757002Y-24048255D01*
X10825615Y-23956705D01*
X10876745Y-23820316D01*
X10883500Y-23758134D01*
X10883500Y-21961866D01*
X10876745Y-21899684D01*
X10825615Y-21763295D01*
X10752370Y-21665564D01*
X10727522Y-21599059D01*
X10742575Y-21529676D01*
X10752370Y-21514435D01*
X10820229Y-21423891D01*
X10825615Y-21416705D01*
X10876745Y-21280316D01*
X10883500Y-21218134D01*
X10883500Y-20417856D01*
X10884578Y-20401409D01*
X10886092Y-20389908D01*
X10886529Y-20386590D01*
X10888156Y-20320000D01*
X10883924Y-20268524D01*
X10883500Y-20258200D01*
X10883500Y-19421866D01*
X10876745Y-19359684D01*
X10825615Y-19223295D01*
X10752370Y-19125564D01*
X10727522Y-19059059D01*
X10742575Y-18989676D01*
X10752370Y-18974435D01*
X10788290Y-18926507D01*
X10825615Y-18876705D01*
X10876745Y-18740316D01*
X10883500Y-18678134D01*
X10883500Y-17877856D01*
X10884578Y-17861409D01*
X10886092Y-17849908D01*
X10886529Y-17846590D01*
X10888156Y-17780000D01*
X10883924Y-17728524D01*
X10883500Y-17718200D01*
X10883500Y-16881866D01*
X10876745Y-16819684D01*
X10825615Y-16683295D01*
X10752370Y-16585564D01*
X10727522Y-16519059D01*
X10742575Y-16449676D01*
X10752370Y-16434435D01*
X10820229Y-16343891D01*
X10825615Y-16336705D01*
X10876745Y-16200316D01*
X10883500Y-16138134D01*
X10883500Y-15337856D01*
X10884578Y-15321409D01*
X10886092Y-15309908D01*
X10886529Y-15306590D01*
X10888156Y-15240000D01*
X10883924Y-15188524D01*
X10883500Y-15178200D01*
X10883500Y-14341866D01*
X10876745Y-14279684D01*
X10825615Y-14143295D01*
X10752370Y-14045564D01*
X10727522Y-13979059D01*
X10742575Y-13909676D01*
X10752370Y-13894435D01*
X10758951Y-13885654D01*
X10825615Y-13796705D01*
X10876745Y-13660316D01*
X10883500Y-13598134D01*
X10883500Y-12797856D01*
X10884578Y-12781409D01*
X10886092Y-12769908D01*
X10886529Y-12766590D01*
X10888156Y-12700000D01*
X10883924Y-12648524D01*
X10883500Y-12638200D01*
X10883500Y-11801866D01*
X10876745Y-11739684D01*
X10825615Y-11603295D01*
X10752058Y-11505148D01*
X10727210Y-11438642D01*
X10742263Y-11369259D01*
X10752058Y-11354018D01*
X10819786Y-11263649D01*
X10828324Y-11248054D01*
X10873478Y-11127606D01*
X10877105Y-11112351D01*
X10882631Y-11061486D01*
X10883000Y-11054672D01*
X10883000Y-10432115D01*
X10878525Y-10416876D01*
X10877135Y-10415671D01*
X10869452Y-10414000D01*
X6385116Y-10414000D01*
X6369877Y-10418475D01*
X6368672Y-10419865D01*
X6367001Y-10427548D01*
X6367001Y-11054669D01*
X6367371Y-11061490D01*
X6372895Y-11112352D01*
X6376521Y-11127604D01*
X6421676Y-11248054D01*
X6430214Y-11263649D01*
X6497942Y-11354018D01*
X6522790Y-11420525D01*
X6507737Y-11489907D01*
X6497942Y-11505148D01*
X6424385Y-11603295D01*
X6373255Y-11739684D01*
X6366500Y-11801866D01*
X6366500Y-12891076D01*
X6346498Y-12959197D01*
X6292842Y-13005690D01*
X6222568Y-13015794D01*
X6157988Y-12986300D01*
X6151405Y-12980171D01*
X6125405Y-12954171D01*
X6091379Y-12891859D01*
X6088500Y-12865076D01*
X6088500Y-3644926D01*
X6108502Y-3576805D01*
X6125404Y-3555831D01*
X6730829Y-2950405D01*
X6793142Y-2916380D01*
X6819925Y-2913500D01*
X30645075Y-2913500D01*
X30713196Y-2933502D01*
X30734170Y-2950405D01*
X43068145Y-15284379D01*
X43077247Y-15294522D01*
X43100968Y-15324025D01*
X43139456Y-15356320D01*
X43143075Y-15359478D01*
X43144890Y-15361124D01*
X43147075Y-15363309D01*
X43149455Y-15365264D01*
X43149465Y-15365273D01*
X43180236Y-15390549D01*
X43181251Y-15391391D01*
X43252474Y-15451154D01*
X43257148Y-15453723D01*
X43261261Y-15457102D01*
X43266698Y-15460017D01*
X43266699Y-15460018D01*
X43343047Y-15500955D01*
X43344177Y-15501568D01*
X43425787Y-15546433D01*
X43430869Y-15548045D01*
X43435563Y-15550562D01*
X43524531Y-15577762D01*
X43525559Y-15578082D01*
X43614306Y-15606235D01*
X43619602Y-15606829D01*
X43624698Y-15608387D01*
X43717257Y-15617790D01*
X43718393Y-15617911D01*
X43752008Y-15621681D01*
X43764730Y-15623108D01*
X43764734Y-15623108D01*
X43768227Y-15623500D01*
X43771754Y-15623500D01*
X43772739Y-15623555D01*
X43778419Y-15624002D01*
X43807825Y-15626989D01*
X43815337Y-15627752D01*
X43815339Y-15627752D01*
X43821462Y-15628374D01*
X43867108Y-15624059D01*
X43878967Y-15623500D01*
X49207393Y-15623500D01*
X49275514Y-15643502D01*
X49287877Y-15652555D01*
X49383126Y-15731632D01*
X49453595Y-15772811D01*
X49456445Y-15774476D01*
X49505169Y-15826114D01*
X49518240Y-15895897D01*
X49491509Y-15961669D01*
X49451055Y-15995027D01*
X49438607Y-16001507D01*
X49434474Y-16004610D01*
X49434471Y-16004612D01*
X49264100Y-16132530D01*
X49259965Y-16135635D01*
X49105629Y-16297138D01*
X48979743Y-16481680D01*
X48885688Y-16684305D01*
X48825989Y-16899570D01*
X48825440Y-16904708D01*
X48825438Y-16904718D01*
X48824992Y-16908890D01*
X48797864Y-16974500D01*
X48739572Y-17015027D01*
X48699706Y-17021500D01*
X30589500Y-17021500D01*
X30521379Y-17001498D01*
X30474886Y-16947842D01*
X30463500Y-16895500D01*
X30463500Y-16881866D01*
X30456745Y-16819684D01*
X30405615Y-16683295D01*
X30332370Y-16585564D01*
X30307522Y-16519059D01*
X30322575Y-16449676D01*
X30332370Y-16434435D01*
X30400229Y-16343891D01*
X30405615Y-16336705D01*
X30456745Y-16200316D01*
X30463500Y-16138134D01*
X30463500Y-14341866D01*
X30456745Y-14279684D01*
X30405615Y-14143295D01*
X30332370Y-14045564D01*
X30307522Y-13979059D01*
X30322575Y-13909676D01*
X30332370Y-13894435D01*
X30338951Y-13885654D01*
X30405615Y-13796705D01*
X30456745Y-13660316D01*
X30463500Y-13598134D01*
X30463500Y-11801866D01*
X30456745Y-11739684D01*
X30405615Y-11603295D01*
X30332058Y-11505148D01*
X30307210Y-11438642D01*
X30322263Y-11369259D01*
X30332058Y-11354018D01*
X30399786Y-11263649D01*
X30408324Y-11248054D01*
X30453478Y-11127606D01*
X30457105Y-11112351D01*
X30462631Y-11061486D01*
X30463000Y-11054672D01*
X30463000Y-10432115D01*
X30458525Y-10416876D01*
X30457135Y-10415671D01*
X30449452Y-10414000D01*
X25965116Y-10414000D01*
X25949877Y-10418475D01*
X25948672Y-10419865D01*
X25947001Y-10427548D01*
X25947001Y-11054669D01*
X25947371Y-11061490D01*
X25952895Y-11112352D01*
X25956521Y-11127604D01*
X26001676Y-11248054D01*
X26010214Y-11263649D01*
X26077942Y-11354018D01*
X26102790Y-11420525D01*
X26087737Y-11489907D01*
X26077942Y-11505148D01*
X26004385Y-11603295D01*
X25953255Y-11739684D01*
X25946500Y-11801866D01*
X25946500Y-12620219D01*
X25945787Y-12633607D01*
X25942251Y-12666695D01*
X25942548Y-12671848D01*
X25942548Y-12671851D01*
X25946291Y-12736763D01*
X25946500Y-12744016D01*
X25946500Y-13598134D01*
X25953255Y-13660316D01*
X26004385Y-13796705D01*
X26071049Y-13885654D01*
X26077630Y-13894435D01*
X26102478Y-13960941D01*
X26087425Y-14030324D01*
X26077632Y-14045562D01*
X26004385Y-14143295D01*
X25953255Y-14279684D01*
X25946500Y-14341866D01*
X25946500Y-15160219D01*
X25945787Y-15173607D01*
X25942251Y-15206695D01*
X25942548Y-15211848D01*
X25942548Y-15211851D01*
X25946291Y-15276763D01*
X25946500Y-15284016D01*
X25946500Y-16138134D01*
X25953255Y-16200316D01*
X26004385Y-16336705D01*
X26009771Y-16343891D01*
X26077630Y-16434435D01*
X26102478Y-16500941D01*
X26087425Y-16570324D01*
X26077632Y-16585562D01*
X26004385Y-16683295D01*
X25953255Y-16819684D01*
X25946500Y-16881866D01*
X25946500Y-17700219D01*
X25945787Y-17713607D01*
X25942251Y-17746695D01*
X25942548Y-17751848D01*
X25942548Y-17751851D01*
X25946291Y-17816763D01*
X25946500Y-17824016D01*
X25946500Y-18678134D01*
X25953255Y-18740316D01*
X26004385Y-18876705D01*
X26041710Y-18926507D01*
X26077630Y-18974435D01*
X26102478Y-19040941D01*
X26087425Y-19110324D01*
X26077632Y-19125562D01*
X26004385Y-19223295D01*
X25953255Y-19359684D01*
X25946500Y-19421866D01*
X25946500Y-20240219D01*
X25945787Y-20253607D01*
X25942251Y-20286695D01*
X25942548Y-20291848D01*
X25942548Y-20291851D01*
X25946291Y-20356763D01*
X25946500Y-20364016D01*
X25946500Y-21218134D01*
X25953255Y-21280316D01*
X26004385Y-21416705D01*
X26009771Y-21423891D01*
X26077942Y-21514852D01*
X26102790Y-21581358D01*
X26087737Y-21650741D01*
X26077942Y-21665982D01*
X26010214Y-21756351D01*
X26001676Y-21771946D01*
X25956522Y-21892394D01*
X25952895Y-21907649D01*
X25947369Y-21958514D01*
X25947000Y-21965328D01*
X25947000Y-22587885D01*
X25951475Y-22603124D01*
X25952865Y-22604329D01*
X25960548Y-22606000D01*
X30444884Y-22606000D01*
X30460123Y-22601525D01*
X30461328Y-22600135D01*
X30462999Y-22592452D01*
X30462999Y-21965331D01*
X30462629Y-21958510D01*
X30457105Y-21907648D01*
X30453479Y-21892396D01*
X30408324Y-21771946D01*
X30399786Y-21756351D01*
X30332058Y-21665982D01*
X30307210Y-21599475D01*
X30322263Y-21530093D01*
X30332058Y-21514852D01*
X30400229Y-21423891D01*
X30405615Y-21416705D01*
X30456745Y-21280316D01*
X30463500Y-21218134D01*
X30463500Y-20579500D01*
X30483502Y-20511379D01*
X30537158Y-20464886D01*
X30589500Y-20453500D01*
X48967491Y-20453500D01*
X49035612Y-20473502D01*
X49064402Y-20500595D01*
X49064987Y-20500088D01*
X49211250Y-20668938D01*
X49383126Y-20811632D01*
X49576000Y-20924338D01*
X49784692Y-21004030D01*
X49789760Y-21005061D01*
X49789763Y-21005062D01*
X49897017Y-21026883D01*
X50003597Y-21048567D01*
X50008772Y-21048757D01*
X50008774Y-21048757D01*
X50221673Y-21056564D01*
X50221677Y-21056564D01*
X50226837Y-21056753D01*
X50231957Y-21056097D01*
X50231959Y-21056097D01*
X50443288Y-21029025D01*
X50443289Y-21029025D01*
X50448416Y-21028368D01*
X50453366Y-21026883D01*
X50657429Y-20965661D01*
X50657434Y-20965659D01*
X50662384Y-20964174D01*
X50862994Y-20865896D01*
X51044860Y-20736173D01*
X51203096Y-20578489D01*
X51333453Y-20397077D01*
X51353378Y-20356763D01*
X51430136Y-20201453D01*
X51430137Y-20201451D01*
X51432430Y-20196811D01*
X51497370Y-19983069D01*
X51526529Y-19761590D01*
X51528156Y-19695000D01*
X51509852Y-19472361D01*
X51455431Y-19255702D01*
X51366354Y-19050840D01*
X51292384Y-18936500D01*
X51247822Y-18867617D01*
X51247820Y-18867614D01*
X51245014Y-18863277D01*
X51094670Y-18698051D01*
X51090619Y-18694852D01*
X51090615Y-18694848D01*
X50923414Y-18562800D01*
X50923410Y-18562798D01*
X50919359Y-18559598D01*
X50878053Y-18536796D01*
X50828084Y-18486364D01*
X50813312Y-18416921D01*
X50838428Y-18350516D01*
X50865780Y-18323909D01*
X50909603Y-18292650D01*
X51044860Y-18196173D01*
X51203096Y-18038489D01*
X51333453Y-17857077D01*
X51353378Y-17816763D01*
X51430136Y-17661453D01*
X51430137Y-17661451D01*
X51432430Y-17656811D01*
X51497370Y-17443069D01*
X51526529Y-17221590D01*
X51528156Y-17155000D01*
X51509852Y-16932361D01*
X51455431Y-16715702D01*
X51366354Y-16510840D01*
X51245014Y-16323277D01*
X51094670Y-16158051D01*
X51090619Y-16154852D01*
X51090615Y-16154848D01*
X50923414Y-16022800D01*
X50923410Y-16022798D01*
X50919359Y-16019598D01*
X50878053Y-15996796D01*
X50828084Y-15946364D01*
X50813312Y-15876921D01*
X50838428Y-15810516D01*
X50865780Y-15783909D01*
X50909603Y-15752650D01*
X51044860Y-15656173D01*
X51057576Y-15643502D01*
X51153219Y-15548192D01*
X51203096Y-15498489D01*
X51232836Y-15457102D01*
X51330435Y-15321277D01*
X51333453Y-15317077D01*
X51344601Y-15294522D01*
X51430136Y-15121453D01*
X51430137Y-15121451D01*
X51432430Y-15116811D01*
X51497370Y-14903069D01*
X51526529Y-14681590D01*
X51528156Y-14615000D01*
X51509852Y-14392361D01*
X51455431Y-14175702D01*
X51366354Y-13970840D01*
X51245014Y-13783277D01*
X51241540Y-13779459D01*
X51241533Y-13779450D01*
X51097435Y-13621088D01*
X51066383Y-13557242D01*
X51074779Y-13486744D01*
X51119956Y-13431976D01*
X51146400Y-13418307D01*
X51253052Y-13378325D01*
X51268649Y-13369786D01*
X51370724Y-13293285D01*
X51383285Y-13280724D01*
X51459786Y-13178649D01*
X51468324Y-13163054D01*
X51513478Y-13042606D01*
X51517105Y-13027351D01*
X51522631Y-12976486D01*
X51523000Y-12969672D01*
X51523000Y-12347115D01*
X51518525Y-12331876D01*
X51517135Y-12330671D01*
X51509452Y-12329000D01*
X48825116Y-12329000D01*
X48809877Y-12333475D01*
X48808672Y-12334865D01*
X48807001Y-12342548D01*
X48807001Y-12969669D01*
X48807371Y-12976490D01*
X48812895Y-13027352D01*
X48816521Y-13042604D01*
X48861676Y-13163054D01*
X48870214Y-13178649D01*
X48946715Y-13280724D01*
X48959276Y-13293285D01*
X49061354Y-13369788D01*
X49061705Y-13369980D01*
X49061986Y-13370261D01*
X49068538Y-13375172D01*
X49067829Y-13376118D01*
X49111851Y-13420238D01*
X49126865Y-13489629D01*
X49101980Y-13556121D01*
X49045097Y-13598605D01*
X49001196Y-13606500D01*
X44294924Y-13606500D01*
X44226803Y-13586498D01*
X44205829Y-13569595D01*
X42439119Y-11802885D01*
X48807000Y-11802885D01*
X48811475Y-11818124D01*
X48812865Y-11819329D01*
X48820548Y-11821000D01*
X49892885Y-11821000D01*
X49908124Y-11816525D01*
X49909329Y-11815135D01*
X49911000Y-11807452D01*
X49911000Y-11802885D01*
X50419000Y-11802885D01*
X50423475Y-11818124D01*
X50424865Y-11819329D01*
X50432548Y-11821000D01*
X51504884Y-11821000D01*
X51520123Y-11816525D01*
X51521328Y-11815135D01*
X51522999Y-11807452D01*
X51522999Y-11180331D01*
X51522629Y-11173510D01*
X51517105Y-11122648D01*
X51513479Y-11107396D01*
X51468324Y-10986946D01*
X51459786Y-10971351D01*
X51383285Y-10869276D01*
X51370724Y-10856715D01*
X51268649Y-10780214D01*
X51253054Y-10771676D01*
X51132606Y-10726522D01*
X51117351Y-10722895D01*
X51066486Y-10717369D01*
X51059672Y-10717000D01*
X50437115Y-10717000D01*
X50421876Y-10721475D01*
X50420671Y-10722865D01*
X50419000Y-10730548D01*
X50419000Y-11802885D01*
X49911000Y-11802885D01*
X49911000Y-10735116D01*
X49906525Y-10719877D01*
X49905135Y-10718672D01*
X49897452Y-10717001D01*
X49270331Y-10717001D01*
X49263510Y-10717371D01*
X49212648Y-10722895D01*
X49197396Y-10726521D01*
X49076946Y-10771676D01*
X49061351Y-10780214D01*
X48959276Y-10856715D01*
X48946715Y-10869276D01*
X48870214Y-10971351D01*
X48861676Y-10986946D01*
X48816522Y-11107394D01*
X48812895Y-11122649D01*
X48807369Y-11173514D01*
X48807000Y-11180328D01*
X48807000Y-11802885D01*
X42439119Y-11802885D01*
X34246234Y-3610000D01*
X49361835Y-3610000D01*
X49380465Y-3846711D01*
X49381619Y-3851518D01*
X49381620Y-3851524D01*
X49395538Y-3909496D01*
X49435895Y-4077594D01*
X49437788Y-4082165D01*
X49437789Y-4082167D01*
X49505225Y-4244972D01*
X49526760Y-4296963D01*
X49529346Y-4301183D01*
X49648241Y-4495202D01*
X49648245Y-4495208D01*
X49650824Y-4499416D01*
X49805031Y-4679969D01*
X49985584Y-4834176D01*
X49989792Y-4836755D01*
X49989798Y-4836759D01*
X50166707Y-4945169D01*
X50188037Y-4958240D01*
X50192607Y-4960133D01*
X50192611Y-4960135D01*
X50402833Y-5047211D01*
X50407406Y-5049105D01*
X50487609Y-5068360D01*
X50633476Y-5103380D01*
X50633482Y-5103381D01*
X50638289Y-5104535D01*
X50875000Y-5123165D01*
X51111711Y-5104535D01*
X51116518Y-5103381D01*
X51116524Y-5103380D01*
X51262391Y-5068360D01*
X51342594Y-5049105D01*
X51347167Y-5047211D01*
X51557389Y-4960135D01*
X51557393Y-4960133D01*
X51561963Y-4958240D01*
X51583293Y-4945169D01*
X51760202Y-4836759D01*
X51760208Y-4836755D01*
X51764416Y-4834176D01*
X51944969Y-4679969D01*
X52099176Y-4499416D01*
X52101755Y-4495208D01*
X52101759Y-4495202D01*
X52220654Y-4301183D01*
X52223240Y-4296963D01*
X52244776Y-4244972D01*
X52312211Y-4082167D01*
X52312212Y-4082165D01*
X52314105Y-4077594D01*
X52354462Y-3909496D01*
X52368380Y-3851524D01*
X52368381Y-3851518D01*
X52369535Y-3846711D01*
X52388165Y-3610000D01*
X52369535Y-3373289D01*
X52361581Y-3340155D01*
X52332040Y-3217109D01*
X52314105Y-3142406D01*
X52304090Y-3118227D01*
X52225135Y-2927611D01*
X52225133Y-2927607D01*
X52223240Y-2923037D01*
X52139050Y-2785652D01*
X52101759Y-2724798D01*
X52101755Y-2724792D01*
X52099176Y-2720584D01*
X51944969Y-2540031D01*
X51764416Y-2385824D01*
X51760208Y-2383245D01*
X51760202Y-2383241D01*
X51566183Y-2264346D01*
X51561963Y-2261760D01*
X51557393Y-2259867D01*
X51557389Y-2259865D01*
X51347167Y-2172789D01*
X51347165Y-2172788D01*
X51342594Y-2170895D01*
X51262391Y-2151640D01*
X51116524Y-2116620D01*
X51116518Y-2116619D01*
X51111711Y-2115465D01*
X50875000Y-2096835D01*
X50638289Y-2115465D01*
X50633482Y-2116619D01*
X50633476Y-2116620D01*
X50487609Y-2151640D01*
X50407406Y-2170895D01*
X50402835Y-2172788D01*
X50402833Y-2172789D01*
X50192611Y-2259865D01*
X50192607Y-2259867D01*
X50188037Y-2261760D01*
X50183817Y-2264346D01*
X49989798Y-2383241D01*
X49989792Y-2383245D01*
X49985584Y-2385824D01*
X49805031Y-2540031D01*
X49650824Y-2720584D01*
X49648245Y-2724792D01*
X49648241Y-2724798D01*
X49610950Y-2785652D01*
X49526760Y-2923037D01*
X49524867Y-2927607D01*
X49524865Y-2927611D01*
X49445910Y-3118227D01*
X49435895Y-3142406D01*
X49417960Y-3217109D01*
X49388420Y-3340155D01*
X49380465Y-3373289D01*
X49362308Y-3603995D01*
X49361835Y-3610000D01*
X34246234Y-3610000D01*
X31871855Y-1235621D01*
X31862753Y-1225478D01*
X31842897Y-1200782D01*
X31839032Y-1195975D01*
X31800578Y-1163708D01*
X31796931Y-1160528D01*
X31795119Y-1158885D01*
X31792925Y-1156691D01*
X31759651Y-1129358D01*
X31758853Y-1128696D01*
X31687526Y-1068846D01*
X31682856Y-1066278D01*
X31678739Y-1062897D01*
X31596914Y-1019023D01*
X31595755Y-1018394D01*
X31519619Y-976538D01*
X31519611Y-976535D01*
X31514213Y-973567D01*
X31509131Y-971955D01*
X31504437Y-969438D01*
X31415469Y-942238D01*
X31414441Y-941918D01*
X31325694Y-913765D01*
X31320398Y-913171D01*
X31315302Y-911613D01*
X31222743Y-902210D01*
X31221607Y-902089D01*
X31187992Y-898319D01*
X31175270Y-896892D01*
X31175266Y-896892D01*
X31171773Y-896500D01*
X31168246Y-896500D01*
X31167261Y-896445D01*
X31161581Y-895998D01*
X31132175Y-893011D01*
X31124663Y-892248D01*
X31124661Y-892248D01*
X31118538Y-891626D01*
X31076259Y-895623D01*
X31072891Y-895941D01*
X31061033Y-896500D01*
X6411842Y-896500D01*
X6398235Y-895763D01*
X6366737Y-892341D01*
X6366732Y-892341D01*
X6360611Y-891676D01*
X6342611Y-893251D01*
X6310609Y-896050D01*
X6305784Y-896379D01*
X6303313Y-896500D01*
X6300231Y-896500D01*
X6277763Y-898703D01*
X6257489Y-900691D01*
X6256174Y-900813D01*
X6223913Y-903636D01*
X6163587Y-908913D01*
X6158468Y-910400D01*
X6153167Y-910920D01*
X6147262Y-912703D01*
X6147261Y-912703D01*
X6127907Y-918546D01*
X6064194Y-937782D01*
X6063054Y-938120D01*
X5973663Y-964091D01*
X5968929Y-966545D01*
X5963831Y-968084D01*
X5958387Y-970978D01*
X5958386Y-970979D01*
X5881831Y-1011684D01*
X5880663Y-1012298D01*
X5798074Y-1055108D01*
X5793911Y-1058431D01*
X5789204Y-1060934D01*
X5717082Y-1119755D01*
X5716226Y-1120446D01*
X5677027Y-1151738D01*
X5674523Y-1154242D01*
X5673805Y-1154884D01*
X5669472Y-1158585D01*
X5635938Y-1185935D01*
X5632011Y-1190682D01*
X5632009Y-1190684D01*
X5606713Y-1221262D01*
X5598723Y-1230042D01*
X4410621Y-2418145D01*
X4400478Y-2427247D01*
X4370975Y-2450968D01*
X4367008Y-2455696D01*
X4338709Y-2489421D01*
X4335528Y-2493069D01*
X4333885Y-2494881D01*
X4331691Y-2497075D01*
X4304358Y-2530349D01*
X4303696Y-2531147D01*
X4243846Y-2602474D01*
X4241278Y-2607144D01*
X4237897Y-2611261D01*
X4206860Y-2669145D01*
X4194023Y-2693086D01*
X4193394Y-2694245D01*
X4151538Y-2770381D01*
X4151535Y-2770389D01*
X4148567Y-2775787D01*
X4146955Y-2780869D01*
X4144438Y-2785563D01*
X4117238Y-2874531D01*
X4116918Y-2875559D01*
X4088765Y-2964306D01*
X4088171Y-2969602D01*
X4086613Y-2974698D01*
X4085990Y-2980834D01*
X4077218Y-3067187D01*
X4077089Y-3068393D01*
X4071500Y-3118227D01*
X4071500Y-3121754D01*
X4071445Y-3122739D01*
X4070998Y-3128419D01*
X4069089Y-3147218D01*
X4067402Y-3163827D01*
X4066626Y-3171462D01*
X4067206Y-3177593D01*
X4070941Y-3217109D01*
X4071500Y-3228967D01*
X4071500Y-13273157D01*
X4070763Y-13286764D01*
X4069644Y-13297069D01*
X4066676Y-13324388D01*
X4067213Y-13330523D01*
X4071050Y-13374388D01*
X4071379Y-13379214D01*
X4071500Y-13381686D01*
X4071500Y-13384769D01*
X4071801Y-13387837D01*
X4075690Y-13427506D01*
X4075812Y-13428819D01*
X4078672Y-13461507D01*
X4083913Y-13521413D01*
X4085400Y-13526532D01*
X4085920Y-13531833D01*
X4112791Y-13620834D01*
X4113126Y-13621967D01*
X4126418Y-13667715D01*
X4139091Y-13711336D01*
X4141544Y-13716068D01*
X4143084Y-13721169D01*
X4145978Y-13726612D01*
X4186731Y-13803260D01*
X4187343Y-13804426D01*
X4230108Y-13886926D01*
X4233431Y-13891089D01*
X4235934Y-13895796D01*
X4294755Y-13967918D01*
X4295446Y-13968774D01*
X4326738Y-14007973D01*
X4329242Y-14010477D01*
X4329884Y-14011195D01*
X4333585Y-14015528D01*
X4360935Y-14049062D01*
X4365682Y-14052989D01*
X4365684Y-14052991D01*
X4396262Y-14078287D01*
X4405042Y-14086277D01*
X6228145Y-15909379D01*
X6237247Y-15919522D01*
X6260968Y-15949025D01*
X6299421Y-15981291D01*
X6303069Y-15984472D01*
X6304881Y-15986115D01*
X6307075Y-15988309D01*
X6320479Y-15999320D01*
X6360420Y-16058014D01*
X6366500Y-16096681D01*
X6366500Y-16138134D01*
X6373255Y-16200316D01*
X6424385Y-16336705D01*
X6429771Y-16343891D01*
X6497630Y-16434435D01*
X6522478Y-16500941D01*
X6507425Y-16570324D01*
X6497632Y-16585562D01*
X6424385Y-16683295D01*
X6373255Y-16819684D01*
X6366500Y-16881866D01*
X6366500Y-18678134D01*
X6373255Y-18740316D01*
X6424385Y-18876705D01*
X6461710Y-18926507D01*
X6497630Y-18974435D01*
X6522478Y-19040941D01*
X6507425Y-19110324D01*
X6497632Y-19125562D01*
X6424385Y-19223295D01*
X6373255Y-19359684D01*
X6366500Y-19421866D01*
X6366500Y-21218134D01*
X6373255Y-21280316D01*
X6424385Y-21416705D01*
X6429771Y-21423891D01*
X6497630Y-21514435D01*
X6522478Y-21580941D01*
X6507425Y-21650324D01*
X6497632Y-21665562D01*
X6424385Y-21763295D01*
X6373255Y-21899684D01*
X6366500Y-21961866D01*
X6366500Y-23758134D01*
X6373255Y-23820316D01*
X6424385Y-23956705D01*
X6492998Y-24048255D01*
X6497630Y-24054435D01*
X6522478Y-24120941D01*
X6507425Y-24190324D01*
X6497632Y-24205562D01*
X6424385Y-24303295D01*
X6373255Y-24439684D01*
X6366500Y-24501866D01*
X6366500Y-26298134D01*
X6373255Y-26360316D01*
X6424385Y-26496705D01*
X6429771Y-26503891D01*
X6497630Y-26594435D01*
X6522478Y-26660941D01*
X6507425Y-26730324D01*
X6497632Y-26745562D01*
X6424385Y-26843295D01*
X6373255Y-26979684D01*
X6366500Y-27041866D01*
X6366500Y-28838134D01*
X6373255Y-28900316D01*
X6424385Y-29036705D01*
X6429771Y-29043891D01*
X6497630Y-29134435D01*
X6522478Y-29200941D01*
X6507425Y-29270324D01*
X6497632Y-29285562D01*
X6424385Y-29383295D01*
X6373255Y-29519684D01*
X6366500Y-29581866D01*
X6366500Y-29850500D01*
X6346498Y-29918621D01*
X6292842Y-29965114D01*
X6240500Y-29976500D01*
X4743859Y-29976500D01*
X4675738Y-29956498D01*
X4627535Y-29898921D01*
X4570466Y-29761821D01*
X4570462Y-29761814D01*
X4568095Y-29756127D01*
X4564668Y-29751008D01*
X4564666Y-29751004D01*
X4461504Y-29596901D01*
X4461500Y-29596896D01*
X4458073Y-29591777D01*
X4318223Y-29451927D01*
X4313104Y-29448500D01*
X4313099Y-29448496D01*
X4158996Y-29345334D01*
X4158992Y-29345332D01*
X4153873Y-29341905D01*
X3971284Y-29265900D01*
X3965248Y-29264683D01*
X3965245Y-29264682D01*
X3781996Y-29227733D01*
X3781995Y-29227733D01*
X3777408Y-29226808D01*
X3771328Y-29226500D01*
X2578672Y-29226500D01*
X2572592Y-29226808D01*
X2568005Y-29227733D01*
X2568004Y-29227733D01*
X2384755Y-29264682D01*
X2384752Y-29264683D01*
X2378716Y-29265900D01*
X2196127Y-29341905D01*
X2191008Y-29345332D01*
X2191004Y-29345334D01*
X2036901Y-29448496D01*
X2036896Y-29448500D01*
X2031777Y-29451927D01*
X1891927Y-29591777D01*
X1888500Y-29596896D01*
X1888496Y-29596901D01*
X1785334Y-29751004D01*
X1785332Y-29751008D01*
X1781905Y-29756127D01*
X1705900Y-29938716D01*
X1704683Y-29944752D01*
X1704682Y-29944755D01*
X1700577Y-29965114D01*
X1666808Y-30132592D01*
X1666500Y-30138672D01*
X1666500Y-31331328D01*
X508500Y-31331328D01*
X508500Y-634500D01*
X528502Y-566379D01*
X582158Y-519886D01*
X634500Y-508500D01*
X53975500Y-508500D01*
X54043621Y-528502D01*
G37*
%TD.AperFunction*%
%TD*%
M02*
